<?xml version="1.0" encoding="utf-8"?>
<!-- Generator: Adobe Illustrator 23.0.2, SVG Export Plug-In . SVG Version: 6.00 Build 0)  -->
<svg version="1.1" id="Layer_1" xmlns="http://www.w3.org/2000/svg" xmlns:xlink="http://www.w3.org/1999/xlink" x="0px" y="0px"
	 viewBox="0 0 432 432" style="enable-background:new 0 0 432 432;" xml:space="preserve">
<style type="text/css">
	.st0{fill:none;stroke:#0000FF;stroke-width:1.000000e-02;stroke-linecap:round;stroke-linejoin:round;}
</style>
<g id="Layer_x0020_1">
	<g id="_91543720">
		<path id="_93055696" class="st0" d="M119,133.6h18c1,0,1.8-0.8,1.8-1.8v-18c0-1-0.8-1.8-1.8-1.8h-18c-1,0-1.8,0.8-1.8,1.8v18
			C117.2,132.8,118,133.6,119,133.6z"/>
		<path id="_93858152" class="st0" d="M119,158.8h18c1,0,1.8-0.8,1.8-1.8v-18c0-1-0.8-1.8-1.8-1.8h-18c-1,0-1.8,0.8-1.8,1.8v18
			C117.2,158,118,158.8,119,158.8z"/>
		<path id="_93599928" class="st0" d="M119,184h18c1,0,1.8-0.8,1.8-1.8v-18c0-1-0.8-1.8-1.8-1.8h-18c-1,0-1.8,0.8-1.8,1.8v18
			C117.2,183.2,118,184,119,184z"/>
		<path id="_93599880" class="st0" d="M119,209.2h18c1,0,1.8-0.8,1.8-1.8v-18c0-1-0.8-1.8-1.8-1.8h-18c-1,0-1.8,0.8-1.8,1.8v18
			C117.2,208.4,118,209.2,119,209.2z"/>
		<path id="_91694832" class="st0" d="M119,234.4h18c1,0,1.8-0.8,1.8-1.8v-18c0-1-0.8-1.8-1.8-1.8h-18c-1,0-1.8,0.8-1.8,1.8v18
			C117.2,233.6,118,234.4,119,234.4z"/>
		<path id="_91694784" class="st0" d="M119,259.6h18c1,0,1.8-0.8,1.8-1.8v-18c0-1-0.8-1.8-1.8-1.8h-18c-1,0-1.8,0.8-1.8,1.8v18
			C117.2,258.8,118,259.6,119,259.6z"/>
		<path id="_92705032" class="st0" d="M119,284.8h18c1,0,1.8-0.8,1.8-1.8v-18c0-1-0.8-1.8-1.8-1.8h-18c-1,0-1.8,0.8-1.8,1.8v18
			C117.2,284,118,284.8,119,284.8z"/>
		<path id="_92704984" class="st0" d="M119,310h18c1,0,1.8-0.8,1.8-1.8v-18c0-1-0.8-1.8-1.8-1.8h-18c-1,0-1.8,0.8-1.8,1.8v18
			C117.2,309.2,118,310,119,310z"/>
		<path id="_93588912" class="st0" d="M144.2,133.6h18c1,0,1.8-0.8,1.8-1.8v-18c0-1-0.8-1.8-1.8-1.8h-18c-1,0-1.8,0.8-1.8,1.8v18
			C142.4,132.8,143.2,133.6,144.2,133.6z"/>
		<path id="_94184920" class="st0" d="M144.2,158.8h18c1,0,1.8-0.8,1.8-1.8v-18c0-1-0.8-1.8-1.8-1.8h-18c-1,0-1.8,0.8-1.8,1.8v18
			C142.4,158,143.2,158.8,144.2,158.8z"/>
		<path id="_95453464" class="st0" d="M144.2,184h18c1,0,1.8-0.8,1.8-1.8v-18c0-1-0.8-1.8-1.8-1.8h-18c-1,0-1.8,0.8-1.8,1.8v18
			C142.4,183.2,143.2,184,144.2,184z"/>
		<path id="_95453048" class="st0" d="M144.2,209.2h18c1,0,1.8-0.8,1.8-1.8v-18c0-1-0.8-1.8-1.8-1.8h-18c-1,0-1.8,0.8-1.8,1.8v18
			C142.4,208.4,143.2,209.2,144.2,209.2z"/>
		<path id="_92925800" class="st0" d="M144.2,234.4h18c1,0,1.8-0.8,1.8-1.8v-18c0-1-0.8-1.8-1.8-1.8h-18c-1,0-1.8,0.8-1.8,1.8v18
			C142.4,233.6,143.2,234.4,144.2,234.4z"/>
		<path id="_93702352" class="st0" d="M144.2,259.6h18c1,0,1.8-0.8,1.8-1.8v-18c0-1-0.8-1.8-1.8-1.8h-18c-1,0-1.8,0.8-1.8,1.8v18
			C142.4,258.8,143.2,259.6,144.2,259.6z"/>
		<path id="_92132360" class="st0" d="M144.2,284.8h18c1,0,1.8-0.8,1.8-1.8v-18c0-1-0.8-1.8-1.8-1.8h-18c-1,0-1.8,0.8-1.8,1.8v18
			C142.4,284,143.2,284.8,144.2,284.8z"/>
		<path id="_91700424" class="st0" d="M144.2,310h18c1,0,1.8-0.8,1.8-1.8v-18c0-1-0.8-1.8-1.8-1.8h-18c-1,0-1.8,0.8-1.8,1.8v18
			C142.4,309.2,143.2,310,144.2,310z"/>
		<path id="_93858504" class="st0" d="M169.4,133.6h18c1,0,1.8-0.8,1.8-1.8v-18c0-1-0.8-1.8-1.8-1.8h-18c-1,0-1.8,0.8-1.8,1.8v18
			C167.6,132.8,168.4,133.6,169.4,133.6z"/>
		<path id="_91645176" class="st0" d="M169.4,158.8h18c1,0,1.8-0.8,1.8-1.8v-18c0-1-0.8-1.8-1.8-1.8h-18c-1,0-1.8,0.8-1.8,1.8v18
			C167.6,158,168.4,158.8,169.4,158.8z"/>
		<path id="_94170128" class="st0" d="M169.4,184h18c1,0,1.8-0.8,1.8-1.8v-18c0-1-0.8-1.8-1.8-1.8h-18c-1,0-1.8,0.8-1.8,1.8v18
			C167.6,183.2,168.4,184,169.4,184z"/>
		<path id="_94170344" class="st0" d="M169.4,209.2h18c1,0,1.8-0.8,1.8-1.8v-18c0-1-0.8-1.8-1.8-1.8h-18c-1,0-1.8,0.8-1.8,1.8v18
			C167.6,208.4,168.4,209.2,169.4,209.2z"/>
		<path id="_94083288" class="st0" d="M169.4,234.4h18c1,0,1.8-0.8,1.8-1.8v-18c0-1-0.8-1.8-1.8-1.8h-18c-1,0-1.8,0.8-1.8,1.8v18
			C167.6,233.6,168.4,234.4,169.4,234.4z"/>
		<path id="_92667256" class="st0" d="M169.4,259.6h18c1,0,1.8-0.8,1.8-1.8v-18c0-1-0.8-1.8-1.8-1.8h-18c-1,0-1.8,0.8-1.8,1.8v18
			C167.6,258.8,168.4,259.6,169.4,259.6z"/>
		<path id="_94083760" class="st0" d="M169.4,284.8h18c1,0,1.8-0.8,1.8-1.8v-18c0-1-0.8-1.8-1.8-1.8h-18c-1,0-1.8,0.8-1.8,1.8v18
			C167.6,284,168.4,284.8,169.4,284.8z"/>
		<path id="_93162264" class="st0" d="M169.4,310h18c1,0,1.8-0.8,1.8-1.8v-18c0-1-0.8-1.8-1.8-1.8h-18c-1,0-1.8,0.8-1.8,1.8v18
			C167.6,309.2,168.4,310,169.4,310z"/>
		<path id="_93050000" class="st0" d="M194.6,133.6h18c1,0,1.8-0.8,1.8-1.8v-18c0-1-0.8-1.8-1.8-1.8h-18c-1,0-1.8,0.8-1.8,1.8v18
			C192.8,132.8,193.6,133.6,194.6,133.6z"/>
		<path id="_93594392" class="st0" d="M194.6,158.8h18c1,0,1.8-0.8,1.8-1.8v-18c0-1-0.8-1.8-1.8-1.8h-18c-1,0-1.8,0.8-1.8,1.8v18
			C192.8,158,193.6,158.8,194.6,158.8z"/>
		<path id="_52978240" class="st0" d="M194.6,184h18c1,0,1.8-0.8,1.8-1.8v-18c0-1-0.8-1.8-1.8-1.8h-18c-1,0-1.8,0.8-1.8,1.8v18
			C192.8,183.2,193.6,184,194.6,184z"/>
		<path id="_93573664" class="st0" d="M194.6,209.2h18c1,0,1.8-0.8,1.8-1.8v-18c0-1-0.8-1.8-1.8-1.8h-18c-1,0-1.8,0.8-1.8,1.8v18
			C192.8,208.4,193.6,209.2,194.6,209.2z"/>
		<path id="_93519656" class="st0" d="M194.6,234.4h18c1,0,1.8-0.8,1.8-1.8v-18c0-1-0.8-1.8-1.8-1.8h-18c-1,0-1.8,0.8-1.8,1.8v18
			C192.8,233.6,193.6,234.4,194.6,234.4z"/>
		<path id="_93598456" class="st0" d="M194.6,259.6h18c1,0,1.8-0.8,1.8-1.8v-18c0-1-0.8-1.8-1.8-1.8h-18c-1,0-1.8,0.8-1.8,1.8v18
			C192.8,258.8,193.6,259.6,194.6,259.6z"/>
		<path id="_92985160" class="st0" d="M194.6,284.8h18c1,0,1.8-0.8,1.8-1.8v-18c0-1-0.8-1.8-1.8-1.8h-18c-1,0-1.8,0.8-1.8,1.8v18
			C192.8,284,193.6,284.8,194.6,284.8z"/>
		<path id="_93573544" class="st0" d="M194.6,310h18c1,0,1.8-0.8,1.8-1.8v-18c0-1-0.8-1.8-1.8-1.8h-18c-1,0-1.8,0.8-1.8,1.8v18
			C192.8,309.2,193.6,310,194.6,310z"/>
		<path id="_92984504" class="st0" d="M219.8,133.6h18c1,0,1.8-0.8,1.8-1.8v-18c0-1-0.8-1.8-1.8-1.8h-18c-1,0-1.8,0.8-1.8,1.8v18
			C218,132.8,218.8,133.6,219.8,133.6z"/>
		<path id="_93574032" class="st0" d="M219.8,158.8h18c1,0,1.8-0.8,1.8-1.8v-18c0-1-0.8-1.8-1.8-1.8h-18c-1,0-1.8,0.8-1.8,1.8v18
			C218,158,218.8,158.8,219.8,158.8z"/>
		<path id="_91543400" class="st0" d="M219.8,184h18c1,0,1.8-0.8,1.8-1.8v-18c0-1-0.8-1.8-1.8-1.8h-18c-1,0-1.8,0.8-1.8,1.8v18
			C218,183.2,218.8,184,219.8,184z"/>
		<path id="_92702328" class="st0" d="M219.8,209.2h18c1,0,1.8-0.8,1.8-1.8v-18c0-1-0.8-1.8-1.8-1.8h-18c-1,0-1.8,0.8-1.8,1.8v18
			C218,208.4,218.8,209.2,219.8,209.2z"/>
		<path id="_92707264" class="st0" d="M219.8,234.4h18c1,0,1.8-0.8,1.8-1.8v-18c0-1-0.8-1.8-1.8-1.8h-18c-1,0-1.8,0.8-1.8,1.8v18
			C218,233.6,218.8,234.4,219.8,234.4z"/>
		<path id="_94165136" class="st0" d="M219.8,259.6h18c1,0,1.8-0.8,1.8-1.8v-18c0-1-0.8-1.8-1.8-1.8h-18c-1,0-1.8,0.8-1.8,1.8v18
			C218,258.8,218.8,259.6,219.8,259.6z"/>
		<path id="_95454912" class="st0" d="M219.8,284.8h18c1,0,1.8-0.8,1.8-1.8v-18c0-1-0.8-1.8-1.8-1.8h-18c-1,0-1.8,0.8-1.8,1.8v18
			C218,284,218.8,284.8,219.8,284.8z"/>
		<path id="_92693320" class="st0" d="M219.8,310h18c1,0,1.8-0.8,1.8-1.8v-18c0-1-0.8-1.8-1.8-1.8h-18c-1,0-1.8,0.8-1.8,1.8v18
			C218,309.2,218.8,310,219.8,310z"/>
		<path id="_92592304" class="st0" d="M245,133.6h18c1,0,1.8-0.8,1.8-1.8v-18c0-1-0.8-1.8-1.8-1.8h-18c-1,0-1.8,0.8-1.8,1.8v18
			C243.2,132.8,244,133.6,245,133.6z"/>
		<path id="_92591832" class="st0" d="M245,158.8h18c1,0,1.8-0.8,1.8-1.8v-18c0-1-0.8-1.8-1.8-1.8h-18c-1,0-1.8,0.8-1.8,1.8v18
			C243.2,158,244,158.8,245,158.8z"/>
		<path id="_92695352" class="st0" d="M245,184h18c1,0,1.8-0.8,1.8-1.8v-18c0-1-0.8-1.8-1.8-1.8h-18c-1,0-1.8,0.8-1.8,1.8v18
			C243.2,183.2,244,184,245,184z"/>
		<path id="_92694880" class="st0" d="M245,209.2h18c1,0,1.8-0.8,1.8-1.8v-18c0-1-0.8-1.8-1.8-1.8h-18c-1,0-1.8,0.8-1.8,1.8v18
			C243.2,208.4,244,209.2,245,209.2z"/>
		<path id="_92694608" class="st0" d="M245,234.4h18c1,0,1.8-0.8,1.8-1.8v-18c0-1-0.8-1.8-1.8-1.8h-18c-1,0-1.8,0.8-1.8,1.8v18
			C243.2,233.6,244,234.4,245,234.4z"/>
		<path id="_93157280" class="st0" d="M245,259.6h18c1,0,1.8-0.8,1.8-1.8v-18c0-1-0.8-1.8-1.8-1.8h-18c-1,0-1.8,0.8-1.8,1.8v18
			C243.2,258.8,244,259.6,245,259.6z"/>
		<path id="_90834688" class="st0" d="M245,284.8h18c1,0,1.8-0.8,1.8-1.8v-18c0-1-0.8-1.8-1.8-1.8h-18c-1,0-1.8,0.8-1.8,1.8v18
			C243.2,284,244,284.8,245,284.8z"/>
		<path id="_92124096" class="st0" d="M245,310h18c1,0,1.8-0.8,1.8-1.8v-18c0-1-0.8-1.8-1.8-1.8h-18c-1,0-1.8,0.8-1.8,1.8v18
			C243.2,309.2,244,310,245,310z"/>
		<path id="_91664696" class="st0" d="M270.2,133.6h18c1,0,1.8-0.8,1.8-1.8v-18c0-1-0.8-1.8-1.8-1.8h-18c-1,0-1.8,0.8-1.8,1.8v18
			C268.4,132.8,269.2,133.6,270.2,133.6z"/>
		<path id="_92133640" class="st0" d="M270.2,158.8h18c1,0,1.8-0.8,1.8-1.8v-18c0-1-0.8-1.8-1.8-1.8h-18c-1,0-1.8,0.8-1.8,1.8v18
			C268.4,158,269.2,158.8,270.2,158.8z"/>
		<path id="_92134256" class="st0" d="M270.2,184h18c1,0,1.8-0.8,1.8-1.8v-18c0-1-0.8-1.8-1.8-1.8h-18c-1,0-1.8,0.8-1.8,1.8v18
			C268.4,183.2,269.2,184,270.2,184z"/>
		<path id="_91668712" class="st0" d="M270.2,209.2h18c1,0,1.8-0.8,1.8-1.8v-18c0-1-0.8-1.8-1.8-1.8h-18c-1,0-1.8,0.8-1.8,1.8v18
			C268.4,208.4,269.2,209.2,270.2,209.2z"/>
		<path id="_91667728" class="st0" d="M270.2,234.4h18c1,0,1.8-0.8,1.8-1.8v-18c0-1-0.8-1.8-1.8-1.8h-18c-1,0-1.8,0.8-1.8,1.8v18
			C268.4,233.6,269.2,234.4,270.2,234.4z"/>
		<path id="_93601056" class="st0" d="M270.2,259.6h18c1,0,1.8-0.8,1.8-1.8v-18c0-1-0.8-1.8-1.8-1.8h-18c-1,0-1.8,0.8-1.8,1.8v18
			C268.4,258.8,269.2,259.6,270.2,259.6z"/>
		<path id="_94169440" class="st0" d="M270.2,284.8h18c1,0,1.8-0.8,1.8-1.8v-18c0-1-0.8-1.8-1.8-1.8h-18c-1,0-1.8,0.8-1.8,1.8v18
			C268.4,284,269.2,284.8,270.2,284.8z"/>
		<path id="_94158936" class="st0" d="M270.2,310h18c1,0,1.8-0.8,1.8-1.8v-18c0-1-0.8-1.8-1.8-1.8h-18c-1,0-1.8,0.8-1.8,1.8v18
			C268.4,309.2,269.2,310,270.2,310z"/>
		<path id="_92134856" class="st0" d="M295.4,133.6h18c1,0,1.8-0.8,1.8-1.8v-18c0-1-0.8-1.8-1.8-1.8h-18c-1,0-1.8,0.8-1.8,1.8v18
			C293.6,132.8,294.4,133.6,295.4,133.6z"/>
		<path id="_92701544" class="st0" d="M295.4,158.8h18c1,0,1.8-0.8,1.8-1.8v-18c0-1-0.8-1.8-1.8-1.8h-18c-1,0-1.8,0.8-1.8,1.8v18
			C293.6,158,294.4,158.8,295.4,158.8z"/>
		<path id="_92696448" class="st0" d="M295.4,184h18c1,0,1.8-0.8,1.8-1.8v-18c0-1-0.8-1.8-1.8-1.8h-18c-1,0-1.8,0.8-1.8,1.8v18
			C293.6,183.2,294.4,184,295.4,184z"/>
		<path id="_92131464" class="st0" d="M295.4,209.2h18c1,0,1.8-0.8,1.8-1.8v-18c0-1-0.8-1.8-1.8-1.8h-18c-1,0-1.8,0.8-1.8,1.8v18
			C293.6,208.4,294.4,209.2,295.4,209.2z"/>
		<path id="_92701816" class="st0" d="M295.4,234.4h18c1,0,1.8-0.8,1.8-1.8v-18c0-1-0.8-1.8-1.8-1.8h-18c-1,0-1.8,0.8-1.8,1.8v18
			C293.6,233.6,294.4,234.4,295.4,234.4z"/>
		<path id="_93157160" class="st0" d="M295.4,259.6h18c1,0,1.8-0.8,1.8-1.8v-18c0-1-0.8-1.8-1.8-1.8h-18c-1,0-1.8,0.8-1.8,1.8v18
			C293.6,258.8,294.4,259.6,295.4,259.6z"/>
		<path id="_94168256" class="st0" d="M295.4,284.8h18c1,0,1.8-0.8,1.8-1.8v-18c0-1-0.8-1.8-1.8-1.8h-18c-1,0-1.8,0.8-1.8,1.8v18
			C293.6,284,294.4,284.8,295.4,284.8z"/>
		<path id="_93565128" class="st0" d="M295.4,310h18c1,0,1.8-0.8,1.8-1.8v-18c0-1-0.8-1.8-1.8-1.8h-18c-1,0-1.8,0.8-1.8,1.8v18
			C293.6,309.2,294.4,310,295.4,310z"/>
		<rect id="_91544072" x="111.8" y="106.6" class="st0" width="208.8" height="208.8"/>
	</g>
</g>
</svg>
