<?xml version="1.0" encoding="UTF-8" standalone="no"?>
<!DOCTYPE svg PUBLIC "-//W3C//DTD SVG 1.1//EN" "http://www.w3.org/Graphics/SVG/1.1/DTD/svg11.dtd">
<svg width="100%" height="100%" viewBox="0 0 360 360" version="1.1" xmlns="http://www.w3.org/2000/svg" xmlns:xlink="http://www.w3.org/1999/xlink" xml:space="preserve" xmlns:serif="http://www.serif.com/" style="fill-rule:evenodd;clip-rule:evenodd;stroke-linecap:round;stroke-linejoin:round;">
    <g id="Layer_x0020_1">
        <path d="M229.583,228.019C229.699,227.789 229.676,227.529 229.522,227.321C227.717,224.891 225.912,222.461 224.107,220.031C223.932,219.795 223.929,219.485 224.099,219.245C225.664,217.049 227.228,214.853 228.792,212.656C228.941,212.447 228.96,212.191 228.842,211.963C228.725,211.735 228.505,211.602 228.249,211.602C227.915,211.602 227.581,211.602 227.248,211.602C227.024,211.602 226.832,211.701 226.702,211.884C225.753,213.225 224.803,214.567 223.854,215.909C223.54,216.351 223.269,216.744 223.045,217.085C222.919,217.278 222.724,217.385 222.495,217.387C222.266,217.39 222.067,217.288 221.937,217.099C221.703,216.759 221.449,216.411 221.176,216.056C220.116,214.659 219.056,213.263 217.996,211.865C217.866,211.694 217.68,211.602 217.464,211.602C217.213,211.602 216.962,211.602 216.71,211.602C216.451,211.602 216.229,211.738 216.114,211.97C215.998,212.202 216.02,212.461 216.175,212.668C217.779,214.819 219.383,216.97 220.987,219.12C221.163,219.358 221.166,219.668 220.994,219.908C219.222,222.382 217.451,224.856 215.679,227.33C215.53,227.54 215.511,227.796 215.629,228.024C215.746,228.252 215.965,228.387 216.222,228.387C216.59,228.387 216.957,228.387 217.324,228.387C217.549,228.387 217.741,228.288 217.87,228.105C219.212,226.203 220.554,224.301 221.895,222.399C221.952,222.318 222.01,222.235 222.066,222.149C222.195,221.957 222.395,221.851 222.627,221.853C222.858,221.856 223.057,221.966 223.182,222.161C223.281,222.315 223.363,222.438 223.427,222.531C223.429,222.535 223.432,222.538 223.435,222.542C224.771,224.398 226.107,226.254 227.443,228.11C227.573,228.289 227.764,228.387 227.986,228.387C228.319,228.387 228.652,228.387 228.986,228.387C229.245,228.387 229.467,228.251 229.583,228.019" style="fill:none;stroke:rgb(0,0,255);stroke-width:0.01px;"/>
        <path d="M123.697,171.009C123.354,171.101 123.019,171.25 122.686,171.465C122.354,171.676 121.979,172.051 121.561,172.586C121.138,173.117 120.603,173.892 119.954,174.896C119.28,175.958 118.606,177.019 117.931,178.081C117.805,178.279 117.603,178.39 117.368,178.39C116.965,178.39 116.562,178.39 116.159,178.39C115.908,178.39 115.694,178.263 115.573,178.043C115.453,177.824 115.461,177.574 115.596,177.364C116.351,176.183 117.105,175.002 117.86,173.821C118.442,172.93 119.056,172.183 119.704,171.59C119.718,171.577 119.733,171.563 119.748,171.551C119.934,171.389 120.013,171.157 119.963,170.915C119.914,170.672 119.75,170.49 119.515,170.414C118.656,170.133 117.975,169.726 117.473,169.195C116.699,168.377 116.316,167.377 116.316,166.185C116.316,165.262 116.546,164.418 117.011,163.652C117.481,162.89 118.102,162.359 118.879,162.058C119.658,161.757 120.794,161.605 122.292,161.605C124.55,161.605 126.808,161.605 129.065,161.605C129.432,161.605 129.733,161.905 129.733,162.272C129.733,167.422 129.733,172.572 129.733,177.723C129.733,178.09 129.432,178.39 129.065,178.39C128.77,178.39 128.475,178.39 128.18,178.39C127.813,178.39 127.512,178.09 127.512,177.723L127.512,164.085C127.512,163.644 127.33,163.461 126.889,163.461C125.326,163.461 123.764,163.461 122.202,163.461C120.955,163.461 120.045,163.715 119.47,164.227C118.892,164.739 118.606,165.392 118.606,166.185C118.606,166.728 118.754,167.228 119.051,167.689C119.349,168.151 119.783,168.486 120.357,168.697C120.928,168.909 121.725,169.015 122.737,169.015C123.009,169.015 123.28,169.015 123.551,169.015C123.993,169.015 124.175,169.197 124.175,169.638C124.175,169.893 124.175,170.148 124.175,170.403C124.175,170.759 124.043,170.926 123.697,171.009" style="fill:none;stroke:rgb(0,0,255);stroke-width:0.01px;"/>
        <path d="M148.696,221.006C148.353,221.098 148.018,221.247 147.685,221.462C147.353,221.672 146.977,222.048 146.559,222.583C146.138,223.114 145.602,223.888 144.954,224.893C144.279,225.955 143.604,227.016 142.93,228.077C142.804,228.275 142.602,228.386 142.367,228.386C141.964,228.386 141.56,228.386 141.157,228.386C140.907,228.386 140.692,228.259 140.572,228.04C140.452,227.821 140.46,227.571 140.594,227.36C141.349,226.179 142.104,224.999 142.859,223.818C143.44,222.927 144.054,222.18 144.703,221.587C144.717,221.574 144.732,221.56 144.746,221.548C144.933,221.386 145.011,221.154 144.962,220.912C144.913,220.669 144.749,220.487 144.514,220.411C143.654,220.13 142.973,219.723 142.472,219.191C141.697,218.374 141.314,217.374 141.314,216.182C141.314,215.259 141.545,214.415 142.011,213.649C142.479,212.887 143.101,212.356 143.878,212.054C144.656,211.754 145.793,211.601 147.29,211.601C149.548,211.601 151.806,211.601 154.064,211.601C154.431,211.601 154.731,211.901 154.731,212.269C154.731,217.419 154.731,222.569 154.731,227.719C154.731,228.086 154.431,228.386 154.064,228.386C153.769,228.386 153.474,228.386 153.179,228.386C152.811,228.386 152.511,228.086 152.511,227.719L152.511,214.082C152.511,213.641 152.328,213.458 151.888,213.458C150.325,213.458 148.762,213.458 147.2,213.458C145.954,213.458 145.043,213.711 144.468,214.224C143.89,214.735 143.605,215.388 143.605,216.182C143.605,216.724 143.753,217.224 144.05,217.686C144.347,218.147 144.781,218.483 145.356,218.694C145.926,218.905 146.724,219.011 147.736,219.011C148.007,219.011 148.279,219.011 148.55,219.011C148.991,219.011 149.173,219.194 149.173,219.634C149.173,219.89 149.173,220.145 149.173,220.4C149.173,220.756 149.042,220.923 148.696,221.006" style="fill:none;stroke:rgb(0,0,255);stroke-width:0.01px;"/>
        <path d="M198.693,271.003C198.349,271.095 198.013,271.243 197.681,271.458C197.349,271.669 196.974,272.044 196.556,272.58C196.134,273.111 195.599,273.885 194.949,274.89C194.275,275.952 193.601,277.013 192.927,278.075C192.8,278.273 192.598,278.383 192.363,278.383C191.96,278.383 191.557,278.383 191.154,278.383C190.904,278.383 190.689,278.256 190.568,278.037C190.449,277.818 190.457,277.568 190.592,277.357C191.346,276.176 192.101,274.996 192.855,273.815C193.437,272.924 194.051,272.177 194.7,271.583C194.714,271.571 194.729,271.557 194.743,271.545C194.929,271.382 195.008,271.151 194.959,270.909C194.909,270.666 194.746,270.483 194.511,270.407C193.651,270.126 192.97,269.72 192.468,269.188C191.694,268.37 191.311,267.37 191.311,266.179C191.311,265.256 191.542,264.412 192.007,263.646C192.476,262.884 193.098,262.353 193.875,262.051C194.653,261.75 195.79,261.598 197.287,261.598C199.545,261.598 201.803,261.598 204.061,261.598C204.428,261.598 204.728,261.899 204.728,262.265C204.728,267.415 204.728,272.566 204.728,277.716C204.728,278.084 204.428,278.383 204.061,278.383C203.766,278.383 203.47,278.383 203.175,278.383C202.808,278.383 202.508,278.084 202.508,277.716L202.508,264.079C202.508,263.637 202.325,263.455 201.884,263.455C200.321,263.455 198.759,263.455 197.197,263.455C195.95,263.455 195.04,263.709 194.465,264.221C193.886,264.732 193.602,265.385 193.602,266.179C193.602,266.722 193.75,267.222 194.047,267.684C194.344,268.145 194.778,268.481 195.352,268.691C195.922,268.902 196.72,269.008 197.733,269.008C198.004,268.984 198.275,268.96 198.547,268.936C198.988,268.936 199.17,269.119 199.17,269.56C199.17,269.839 199.17,270.118 199.17,270.397C199.17,270.752 199.038,270.92 198.693,271.003" style="fill:none;stroke:rgb(0,0,255);stroke-width:0.01px;"/>
        <path d="M273.187,126.475C274.611,126.235 275.811,125.657 276.775,124.62C277.854,123.451 278.393,121.776 278.393,119.595C278.393,117.339 277.849,115.647 276.754,114.513C275.665,113.38 274.289,112.814 272.636,112.814C271.526,112.814 270.53,113.095 269.639,113.654C268.751,114.217 268.076,115.006 267.614,116.018C267.153,117.035 266.922,118.222 266.922,119.582C266.922,120.924 267.128,122.079 267.536,123.047C267.674,123.376 267.617,123.582 267.329,123.792C267.128,123.939 266.861,124.133 266.543,124.357C266.234,124.577 265.802,124.471 265.629,124.134C265.492,123.868 265.369,123.592 265.261,123.307C264.839,122.204 264.632,120.962 264.632,119.582C264.632,117.917 264.956,116.425 265.609,115.1C266.262,113.775 267.212,112.743 268.455,112.009C269.701,111.27 271.096,110.903 272.648,110.903C274.18,110.903 275.567,111.258 276.806,111.966C278.049,112.677 279.002,113.713 279.674,115.069C280.347,116.428 280.683,117.937 280.683,119.595C280.683,121.255 280.35,122.752 279.683,124.08C279.014,125.409 278.061,126.438 276.825,127.172C275.586,127.903 274.21,128.272 272.68,128.163C272.045,128.228 271.734,127.41 272.252,127.037C272.459,126.888 272.665,126.739 272.872,126.591C272.969,126.521 273.067,126.485 273.187,126.475" style="fill:none;stroke:rgb(0,0,255);stroke-width:0.01px;"/>
        <path d="M198.693,121.013C198.349,121.104 198.013,121.253 197.681,121.468C197.349,121.679 196.974,122.054 196.556,122.589C196.134,123.12 195.599,123.895 194.949,124.899C194.275,125.961 193.601,127.023 192.927,128.084C192.8,128.282 192.598,128.393 192.363,128.393C191.96,128.393 191.557,128.393 191.154,128.393C190.903,128.393 190.689,128.266 190.568,128.046C190.449,127.827 190.457,127.577 190.592,127.367C191.346,126.186 192.101,125.005 192.855,123.824C193.437,122.933 194.051,122.186 194.7,121.593C194.713,121.58 194.728,121.567 194.743,121.554C194.929,121.392 195.008,121.16 194.959,120.918C194.909,120.675 194.746,120.493 194.511,120.417C193.65,120.136 192.97,119.729 192.468,119.198C191.694,118.38 191.311,117.38 191.311,116.188C191.311,115.266 191.541,114.421 192.007,113.655C192.475,112.893 193.098,112.362 193.875,112.061C194.653,111.76 195.79,111.607 197.286,111.607C199.544,111.607 201.802,111.607 204.06,111.607C204.428,111.607 204.728,111.908 204.728,112.275C204.728,117.425 204.728,122.575 204.728,127.726C204.728,128.093 204.428,128.393 204.06,128.393C203.765,128.393 203.47,128.393 203.175,128.393C202.808,128.393 202.508,128.093 202.508,127.726L202.508,114.088C202.508,113.647 202.325,113.464 201.884,113.464C200.321,113.464 198.759,113.464 197.197,113.464C195.95,113.464 195.04,113.718 194.465,114.23C193.886,114.742 193.602,115.395 193.602,116.188C193.602,116.731 193.75,117.231 194.047,117.693C194.344,118.154 194.778,118.49 195.352,118.701C195.922,118.912 196.72,119.018 197.732,119.018C198.004,119.025 198.275,119.032 198.547,119.039C198.988,119.039 199.17,119.221 199.17,119.662C199.17,119.91 199.17,120.158 199.17,120.406C199.17,120.762 199.038,120.929 198.693,121.013" style="fill:none;stroke:rgb(0,0,255);stroke-width:0.01px;"/>
        <path d="M123.697,121.013C123.354,121.104 123.019,121.253 122.687,121.468C122.354,121.679 121.979,122.054 121.561,122.589C121.139,123.121 120.604,123.895 119.955,124.9C119.28,125.961 118.606,127.023 117.932,128.084C117.805,128.282 117.603,128.393 117.369,128.393C116.965,128.393 116.562,128.393 116.159,128.393C115.908,128.393 115.694,128.266 115.574,128.046C115.454,127.827 115.462,127.578 115.597,127.367C116.351,126.186 117.106,125.005 117.86,123.825C118.442,122.933 119.056,122.187 119.705,121.593C119.718,121.58 119.734,121.567 119.748,121.555C119.935,121.392 120.014,121.16 119.964,120.918C119.915,120.676 119.751,120.493 119.516,120.417C118.656,120.136 117.975,119.73 117.473,119.198C116.699,118.38 116.317,117.38 116.317,116.189C116.317,115.266 116.547,114.421 117.012,113.656C117.48,112.894 118.103,112.362 118.88,112.061C119.658,111.76 120.795,111.608 122.291,111.608C124.549,111.608 126.807,111.608 129.065,111.608C129.433,111.608 129.733,111.909 129.733,112.275C129.733,117.425 129.733,122.576 129.733,127.726C129.733,128.093 129.433,128.393 129.065,128.393C128.77,128.393 128.475,128.393 128.18,128.393C127.814,128.393 127.513,128.093 127.513,127.726L127.513,114.088C127.513,113.647 127.33,113.464 126.889,113.464C125.327,113.464 123.764,113.464 122.202,113.464C120.955,113.464 120.045,113.718 119.471,114.23C118.891,114.742 118.607,115.395 118.607,116.189C118.607,116.731 118.755,117.231 119.052,117.693C119.348,118.154 119.783,118.49 120.357,118.701C120.928,118.912 121.725,119.018 122.738,119.018C123.009,119.051 123.28,119.085 123.551,119.118C123.993,119.118 124.175,119.301 124.175,119.742C124.175,119.963 124.175,120.185 124.175,120.406C124.175,120.762 124.043,120.929 123.697,121.013" style="fill:none;stroke:rgb(0,0,255);stroke-width:0.01px;"/>
        <path d="M245.466,261.566C244.735,261.75 244.045,262.034 243.399,262.42C242.157,263.16 241.208,264.194 240.554,265.519C239.902,266.839 239.577,268.344 239.577,270.021C239.577,271.725 239.917,273.249 240.605,274.59C241.293,275.934 242.262,276.958 243.524,277.642C244.153,277.982 244.813,278.237 245.488,278.41C245.882,278.511 246.266,278.213 246.266,277.806C246.266,277.577 246.266,277.348 246.266,277.119C246.266,276.785 246.145,276.622 245.827,276.523C244.933,276.246 244.152,275.741 243.485,275.015C242.408,273.839 241.864,272.17 241.864,270.009C241.864,268.645 242.098,267.453 242.56,266.433C243.021,265.413 243.697,264.623 244.583,264.061C244.971,263.818 245.38,263.627 245.808,263.49C246.123,263.389 246.242,263.226 246.242,262.896C246.242,262.654 246.242,262.413 246.242,262.171C246.242,261.765 245.86,261.466 245.466,261.566M248.912,262.884C248.912,262.678 248.912,262.472 248.912,262.267C248.912,261.863 249.29,261.565 249.683,261.661C251.138,261.892 252.364,262.6 253.385,263.674C254.882,265.249 255.628,267.429 255.628,270.216C255.628,271.69 255.308,273.088 254.667,274.405C254.025,275.726 253.082,276.768 251.837,277.532C251.179,277.936 250.473,278.234 249.72,278.426C249.319,278.527 248.931,278.217 248.943,277.804C248.941,277.575 248.938,277.346 248.936,277.118C248.936,276.785 249.057,276.622 249.374,276.523C250.258,276.247 251.036,275.749 251.708,275.031C252.795,273.866 253.339,272.276 253.339,270.252C253.339,267.726 252.771,265.922 251.638,264.842C250.957,264.194 250.194,263.74 249.351,263.479C249.033,263.381 248.912,263.217 248.912,262.884" style="fill:none;stroke:rgb(0,0,255);stroke-width:0.01px;"/>
        <path d="M277.314,177.764C277.316,177.312 277.318,176.86 277.32,176.408C277.32,172.134 277.32,167.86 277.32,163.586C277.32,163.134 277.319,162.681 277.319,162.229C277.318,161.788 277.501,161.605 277.943,161.605C278.252,161.605 278.563,161.605 278.873,161.605C279.24,161.605 279.54,161.904 279.54,162.272C279.54,167.422 279.54,172.573 279.54,177.723C279.54,178.089 279.24,178.39 278.873,178.39C278.561,178.39 278.25,178.39 277.938,178.39C277.495,178.39 277.312,178.206 277.314,177.764" style="fill:none;stroke:rgb(0,0,255);stroke-width:0.01px;"/>
        <path d="M274.028,161.605C273.938,161.605 273.849,161.605 273.76,161.605C272.455,161.602 271.459,161.69 270.77,161.847C269.81,162.068 268.989,162.469 268.309,163.047C267.426,163.797 266.761,164.751 266.323,165.916C265.882,167.08 265.662,168.409 265.662,169.906C265.662,171.179 265.811,172.309 266.112,173.294C266.409,174.279 266.788,175.095 267.257,175.74C267.722,176.386 268.23,176.894 268.785,177.26C269.336,177.632 270.004,177.913 270.786,178.105C271.572,178.297 272.47,178.39 273.483,178.39C273.664,178.39 273.845,178.39 274.027,178.39C274.468,178.39 274.65,178.207 274.65,177.766C274.65,177.521 274.65,177.276 274.65,177.032C274.65,176.591 274.467,176.409 274.026,176.409C273.93,176.409 273.834,176.409 273.737,176.409C272.63,176.409 271.759,176.307 271.13,176.1C270.501,175.893 270,175.603 269.625,175.228C269.098,174.705 268.687,173.993 268.394,173.107C268.102,172.215 267.952,171.141 267.952,169.87C267.952,168.116 268.242,166.768 268.816,165.825C269.395,164.88 270.095,164.25 270.919,163.93C271.513,163.7 272.47,163.592 273.786,163.592C273.866,163.592 273.946,163.592 274.026,163.592C274.467,163.592 274.65,163.409 274.65,162.968C274.65,162.722 274.65,162.475 274.65,162.229C274.65,161.789 274.468,161.607 274.028,161.605" style="fill:none;stroke:rgb(0,0,255);stroke-width:0.01px;"/>
        <path d="M251.788,177.766L251.788,162.228C251.788,161.787 251.971,161.604 252.412,161.604C252.737,161.604 253.061,161.604 253.386,161.604C253.826,161.604 254.009,161.787 254.009,162.228C254.009,167.407 254.009,172.587 254.009,177.766C254.009,178.207 253.826,178.389 253.386,178.389C253.061,178.389 252.737,178.389 252.412,178.389C251.971,178.389 251.788,178.207 251.788,177.766" style="fill:none;stroke:rgb(0,0,255);stroke-width:0.01px;"/>
        <path d="M249.161,171.566C248.601,171.566 248.041,171.566 247.482,171.566C245.109,171.566 243.468,171.07 242.557,170.085C241.651,169.096 241.197,167.884 241.197,166.458C241.197,165.626 241.365,164.864 241.706,164.167C242.045,163.475 242.495,162.932 243.049,162.55C243.608,162.163 244.3,161.901 245.125,161.764C245.711,161.659 246.563,161.604 247.677,161.604C248.172,161.604 248.667,161.604 249.162,161.604C249.603,161.604 249.786,161.787 249.786,162.228C249.786,162.493 249.786,162.758 249.786,163.022C249.786,163.463 249.603,163.646 249.162,163.646C248.606,163.626 248.05,163.606 247.493,163.586C246.485,163.586 245.796,163.636 245.421,163.734C244.84,163.894 244.374,164.223 244.018,164.723C243.663,165.223 243.487,165.825 243.487,166.528C243.487,167.497 243.788,168.248 244.39,168.783C244.992,169.319 246.012,169.585 247.446,169.585C248.018,169.585 248.589,169.585 249.16,169.585C249.6,169.585 249.783,169.767 249.784,170.208C249.784,170.452 249.784,170.697 249.785,170.941C249.785,171.383 249.602,171.566 249.161,171.566" style="fill:none;stroke:rgb(0,0,255);stroke-width:0.01px;"/>
        <path d="M96.236,162.229C96.241,162.454 96.246,162.679 96.252,162.904C96.252,163.234 96.133,163.397 95.818,163.497C95.39,163.634 94.981,163.825 94.593,164.068C93.707,164.631 93.03,165.42 92.569,166.44C92.108,167.46 91.873,168.653 91.873,170.017C91.873,172.177 92.418,173.846 93.495,175.023C94.162,175.749 94.942,176.253 95.837,176.53C96.155,176.629 96.276,176.793 96.276,177.126C96.276,177.355 96.276,177.584 96.276,177.813C96.275,178.22 95.892,178.518 95.498,178.417C94.823,178.245 94.163,177.989 93.534,177.649C92.272,176.965 91.303,175.941 90.615,174.597C89.927,173.256 89.587,171.732 89.587,170.028C89.587,168.351 89.912,166.847 90.564,165.526C91.216,164.201 92.166,163.167 93.409,162.427C94.05,162.045 94.735,161.762 95.46,161.578C95.873,161.472 96.268,161.803 96.236,162.229M99.687,161.549C101.129,161.888 102.366,162.599 103.395,163.681C104.892,165.256 105.638,167.437 105.638,170.224C105.638,171.697 105.317,173.096 104.676,174.413C104.035,175.734 103.092,176.775 101.847,177.539C101.186,177.944 100.478,178.243 99.722,178.434C99.328,178.534 98.946,178.236 98.946,177.83C98.946,177.587 98.946,177.344 98.946,177.102C98.946,176.734 99.084,176.565 99.444,176.491C100.306,176.229 101.062,175.738 101.718,175.038C102.804,173.873 103.347,172.283 103.347,170.259C103.347,167.734 102.78,165.929 101.647,164.85C100.967,164.2 100.204,163.747 99.361,163.487C99.042,163.388 98.921,163.225 98.921,162.891C98.921,162.646 98.921,162.401 98.921,162.156C98.921,161.754 99.296,161.457 99.687,161.549" style="fill:none;stroke:rgb(0,0,255);stroke-width:0.01px;"/>
        <path d="M99.038,103.395C98.857,103.395 98.675,103.395 98.494,103.395C97.482,103.395 96.583,103.302 95.798,103.109C95.016,102.918 94.348,102.637 93.796,102.265C93.241,101.898 92.733,101.391 92.269,100.745C91.8,100.1 91.421,99.284 91.123,98.299C90.822,97.314 90.673,96.184 90.673,94.911C90.673,93.414 90.893,92.085 91.335,90.92C91.772,89.755 92.437,88.802 93.32,88.052C94,87.473 94.821,87.073 95.782,86.852C96.47,86.694 97.466,86.607 98.772,86.61C98.861,86.61 98.95,86.61 99.039,86.61C99.438,86.611 99.612,86.767 99.657,87.163C99.659,87.433 99.66,87.703 99.661,87.973C99.661,88.408 99.483,88.589 99.048,88.596C98.964,88.596 98.881,88.596 98.797,88.596C97.481,88.596 96.524,88.705 95.931,88.935C95.105,89.255 94.406,89.885 93.828,90.83C93.253,91.773 92.964,93.121 92.964,94.875C92.964,96.146 93.113,97.22 93.405,98.111C93.699,98.998 94.11,99.709 94.637,100.233C95.012,100.608 95.512,100.897 96.141,101.105C96.771,101.312 97.642,101.413 98.748,101.413C98.845,101.413 98.941,101.413 99.038,101.413C99.479,101.413 99.662,101.596 99.662,102.037C99.662,102.281 99.662,102.526 99.662,102.771C99.662,103.212 99.479,103.395 99.038,103.395" style="fill:none;stroke:rgb(0,0,255);stroke-width:0.01px;"/>
        <path d="M102.326,102.768C102.328,102.317 102.33,101.865 102.331,101.413C102.331,97.139 102.331,92.865 102.331,88.591C102.331,88.139 102.331,87.686 102.33,87.233C102.33,86.805 102.504,86.624 102.933,86.61C103.25,86.61 103.568,86.61 103.885,86.609C104.252,86.609 104.552,86.909 104.552,87.277C104.552,92.427 104.552,97.577 104.552,102.727C104.552,103.094 104.252,103.395 103.885,103.395C103.573,103.395 103.261,103.395 102.949,103.395C102.507,103.395 102.324,103.211 102.326,102.768" style="fill:none;stroke:rgb(0,0,255);stroke-width:0.01px;"/>
        <path d="M148.274,140.669C148.44,141.144 148.627,141.658 148.836,142.212C149.402,143.712 149.969,145.212 150.536,146.712C150.757,147.297 150.978,147.882 151.199,148.466C151.831,150.108 152.462,151.75 153.094,153.391C153.556,153.391 154.019,153.391 154.482,153.391C154.708,153.391 154.903,153.289 155.032,153.102C155.16,152.915 155.186,152.697 155.105,152.484C153.126,147.334 151.147,142.184 149.169,137.034C149.069,136.77 148.828,136.606 148.546,136.606C148.051,136.606 147.556,136.606 147.061,136.606C146.784,136.606 146.548,136.765 146.444,137.021C144.335,142.171 142.227,147.321 140.12,152.47C140.032,152.683 140.056,152.905 140.183,153.096C140.311,153.286 140.508,153.391 140.737,153.391C141.25,153.391 141.763,153.391 142.276,153.391C142.908,151.75 143.54,150.108 144.171,148.466C144.392,147.882 144.613,147.297 144.834,146.712C145.401,145.212 145.967,143.712 146.534,142.212C146.743,141.658 146.931,141.144 147.096,140.669C147.291,140.112 148.079,140.112 148.274,140.669" style="fill:none;stroke:rgb(0,0,255);stroke-width:0.01px;"/>
        <path d="M273.265,90.672C273.431,91.146 273.619,91.661 273.828,92.215C274.394,93.715 274.961,95.215 275.527,96.716C275.748,97.3 275.969,97.885 276.19,98.47C276.822,100.111 277.454,101.753 278.086,103.394C278.548,103.394 279.011,103.394 279.474,103.394C279.7,103.394 279.895,103.292 280.024,103.105C280.151,102.918 280.179,102.699 280.097,102.487C278.118,97.337 276.139,92.187 274.161,87.037C274.06,86.774 273.82,86.609 273.538,86.609C273.043,86.609 272.548,86.609 272.053,86.609C271.776,86.609 271.54,86.768 271.435,87.024C269.328,92.174 267.219,97.324 265.111,102.474C265.024,102.686 265.047,102.908 265.175,103.099C265.302,103.289 265.5,103.394 265.729,103.394C266.242,103.394 266.754,103.394 267.267,103.394C267.899,101.753 268.531,100.111 269.163,98.47C269.384,97.885 269.605,97.3 269.826,96.716C270.393,95.215 270.959,93.715 271.526,92.215C271.734,91.661 271.922,91.146 272.088,90.672C272.283,90.115 273.07,90.115 273.265,90.672" style="fill:none;stroke:rgb(0,0,255);stroke-width:0.01px;"/>
        <path d="M223.649,171.495L221.864,171.495L221.836,171.567L221.147,173.305L224.281,173.305L223.649,171.495Z" style="fill:none;stroke:rgb(0,0,255);stroke-width:0.01px;"/>
        <path d="M148.654,146.497L146.869,146.497L146.841,146.568L146.152,148.306L149.286,148.306L148.654,146.497Z" style="fill:none;stroke:rgb(0,0,255);stroke-width:0.01px;"/>
        <path d="M228.089,128.393C228.551,128.393 229.014,128.393 229.477,128.393C229.703,128.393 229.898,128.291 230.027,128.104C230.155,127.917 230.182,127.699 230.1,127.486C228.121,122.336 226.143,117.187 224.164,112.037C224.063,111.773 223.823,111.608 223.541,111.608C223.046,111.608 222.551,111.608 222.056,111.608C221.779,111.608 221.543,111.767 221.439,112.023C219.331,117.173 217.222,122.323 215.114,127.473C215.027,127.685 215.051,127.907 215.178,128.097C215.305,128.288 215.503,128.393 215.732,128.393C216.245,128.393 216.758,128.393 217.27,128.393C217.902,126.751 218.534,125.11 219.167,123.469C219.388,122.884 219.608,122.299 219.829,121.714C220.396,120.214 220.962,118.714 221.529,117.214C222.044,115.847 222.43,114.723 222.68,113.841C222.929,114.723 223.316,115.847 223.831,117.214C224.397,118.714 224.964,120.214 225.531,121.714C225.751,122.299 225.972,122.884 226.193,123.469C226.825,125.11 227.457,126.751 228.089,128.393" style="fill:none;stroke:rgb(0,0,255);stroke-width:0.01px;"/>
        <path d="M103.875,277.716C103.875,272.566 103.875,267.416 103.875,262.266C103.875,261.899 103.574,261.598 103.207,261.598C99.607,261.598 96.007,261.598 92.408,261.598C92.04,261.598 91.74,261.899 91.74,262.266C91.74,262.482 91.74,262.697 91.74,262.913C91.74,263.28 92.04,263.58 92.408,263.58C95.267,263.58 98.128,263.58 100.987,263.58C101.355,263.58 101.655,263.881 101.655,264.248C101.655,265.516 101.655,266.784 101.655,268.052C101.655,268.419 101.355,268.72 100.987,268.72C98.337,268.72 95.687,268.72 93.037,268.719C92.669,268.719 92.37,269.019 92.37,269.387C92.37,269.598 92.37,269.81 92.37,270.021C92.37,270.389 92.669,270.689 93.037,270.689C95.687,270.689 98.337,270.689 100.987,270.689C101.355,270.689 101.655,270.989 101.655,271.357C101.655,272.816 101.655,274.276 101.655,275.735C101.655,276.102 101.355,276.403 100.987,276.403C97.997,276.403 95.007,276.403 92.017,276.403C91.649,276.403 91.349,276.703 91.349,277.07C91.349,277.285 91.349,277.501 91.349,277.716C91.349,278.084 91.649,278.384 92.017,278.384C95.747,278.384 99.477,278.384 103.207,278.384C103.574,278.384 103.875,278.084 103.875,277.716" style="fill:none;stroke:rgb(0,0,255);stroke-width:0.01px;"/>
        <path d="M129.223,277.716C129.223,272.566 129.223,267.416 129.223,262.266C129.223,261.899 128.924,261.598 128.556,261.598C128.138,261.598 127.72,261.598 127.301,261.598C127.072,261.598 126.874,261.704 126.747,261.895C124.281,265.579 121.816,269.264 119.351,272.949C119.185,273.199 118.887,273.304 118.601,273.217C118.316,273.129 118.128,272.876 118.128,272.579C118.128,269.141 118.128,265.704 118.129,262.266C118.129,261.899 117.829,261.598 117.461,261.598C117.196,261.598 116.931,261.598 116.666,261.598C116.299,261.598 115.999,261.899 115.999,262.266C115.999,267.416 115.999,272.566 115.999,277.716C115.999,278.084 116.299,278.384 116.666,278.384C117.084,278.384 117.502,278.384 117.92,278.384C118.15,278.384 118.347,278.278 118.474,278.088C120.94,274.399 123.406,270.711 125.871,267.023C126.037,266.775 126.334,266.668 126.62,266.755C126.906,266.842 127.094,267.096 127.094,267.394C127.094,270.835 127.094,274.276 127.094,277.716C127.094,278.084 127.394,278.384 127.761,278.384C128.026,278.384 128.291,278.384 128.556,278.384C128.923,278.384 129.223,278.084 129.223,277.716" style="fill:none;stroke:rgb(0,0,255);stroke-width:0.01px;"/>
        <path d="M148.72,277.716C148.72,272.566 148.72,267.416 148.72,262.266C148.72,261.899 148.419,261.598 148.052,261.598C147.757,261.598 147.462,261.598 147.167,261.598C146.8,261.598 146.499,261.899 146.499,262.266C146.499,267.416 146.499,272.566 146.499,277.716C146.499,278.084 146.8,278.384 147.167,278.384C147.462,278.384 147.757,278.384 148.052,278.384C148.419,278.384 148.72,278.084 148.72,277.716" style="fill:none;stroke:rgb(0,0,255);stroke-width:0.01px;"/>
        <path d="M179.22,277.716C179.22,272.566 179.22,267.416 179.22,262.266C179.22,261.899 178.92,261.598 178.553,261.598C178.135,261.598 177.716,261.598 177.298,261.598C177.068,261.598 176.871,261.704 176.742,261.895C174.277,265.579 171.812,269.264 169.347,272.949C169.181,273.198 168.884,273.304 168.598,273.217C168.312,273.13 168.125,272.877 168.125,272.579C168.125,269.141 168.125,265.704 168.125,262.266C168.125,261.899 167.825,261.598 167.458,261.598C167.193,261.598 166.927,261.598 166.662,261.598C166.295,261.598 165.995,261.899 165.995,262.266C165.995,267.416 165.995,272.566 165.995,277.716C165.995,278.084 166.295,278.384 166.662,278.384C167.08,278.384 167.498,278.384 167.916,278.384C168.146,278.384 168.344,278.278 168.472,278.088C170.937,274.399 173.402,270.711 175.868,267.023C176.034,266.775 176.331,266.668 176.617,266.755C176.903,266.842 177.091,267.096 177.091,267.394C177.091,270.835 177.091,274.276 177.091,277.716C177.091,278.084 177.39,278.384 177.758,278.384C178.023,278.384 178.288,278.384 178.553,278.384C178.92,278.384 179.22,278.084 179.22,277.716" style="fill:none;stroke:rgb(0,0,255);stroke-width:0.01px;"/>
        <path d="M217.56,261.455C217.264,261.455 216.967,261.455 216.671,261.455C216.303,261.455 216.004,261.756 216.004,262.123C216.004,265.134 216.004,268.145 216.004,271.155C216.004,272.84 216.195,274.18 216.578,275.173C216.961,276.166 217.649,276.971 218.645,277.592C219.642,278.218 220.947,278.526 222.565,278.526C224.137,278.526 225.426,278.257 226.423,277.713C227.423,277.174 228.138,276.389 228.564,275.36C228.994,274.333 229.205,272.933 229.205,271.155C229.205,268.145 229.205,265.134 229.205,262.123C229.205,261.756 228.905,261.455 228.538,261.455C228.243,261.455 227.948,261.455 227.653,261.455C227.285,261.455 226.985,261.756 226.985,262.123C226.985,265.13 226.985,268.137 226.985,271.144C226.985,272.601 226.848,273.676 226.579,274.364C226.31,275.055 225.84,275.587 225.184,275.962C224.523,276.337 223.714,276.525 222.761,276.525C221.127,276.525 219.962,276.154 219.267,275.412C218.575,274.673 218.227,273.25 218.227,271.144C218.227,268.137 218.227,265.13 218.227,262.123C218.227,261.756 217.927,261.455 217.56,261.455" style="fill:none;stroke:rgb(0,0,255);stroke-width:0.01px;"/>
        <path d="M278.264,277.716C278.264,272.566 278.264,267.416 278.264,262.266C278.264,261.899 277.963,261.598 277.597,261.598C274.266,261.598 270.936,261.598 267.606,261.598C267.239,261.598 266.938,261.899 266.938,262.266C266.938,262.482 266.938,262.697 266.938,262.913C266.938,263.28 267.239,263.58 267.606,263.58C270.195,263.58 272.784,263.58 275.373,263.58C275.74,263.58 276.04,263.881 276.04,264.248C276.04,265.535 276.04,266.823 276.04,268.11C276.04,268.478 275.74,268.777 275.373,268.777C273.192,268.777 271.013,268.777 268.833,268.777C268.465,268.777 268.165,269.078 268.165,269.445C268.165,269.661 268.165,269.876 268.165,270.092C268.165,270.459 268.465,270.759 268.833,270.759C271.013,270.759 273.192,270.759 275.373,270.759C275.74,270.759 276.04,271.059 276.04,271.427C276.04,273.523 276.04,275.62 276.04,277.716C276.04,278.084 276.34,278.384 276.708,278.384C277.004,278.384 277.3,278.384 277.597,278.384C277.963,278.384 278.264,278.084 278.264,277.716" style="fill:none;stroke:rgb(0,0,255);stroke-width:0.01px;"/>
        <path d="M104.225,252.717C104.225,247.567 104.225,242.417 104.225,237.267C104.225,236.899 103.925,236.6 103.558,236.6C103.139,236.6 102.721,236.6 102.303,236.6C102.073,236.6 101.876,236.704 101.748,236.896C99.283,240.581 96.818,244.266 94.353,247.95C94.186,248.198 93.889,248.306 93.603,248.217C93.318,248.13 93.13,247.877 93.13,247.579C93.13,244.141 93.13,240.704 93.13,237.267C93.13,236.899 92.83,236.6 92.463,236.6C92.198,236.6 91.933,236.6 91.668,236.6C91.301,236.6 91.001,236.899 91.001,237.267C91.001,242.417 91.001,247.567 91.001,252.717C91.001,253.084 91.301,253.385 91.668,253.385C92.086,253.385 92.504,253.385 92.921,253.385C93.151,253.385 93.349,253.279 93.476,253.089C95.942,249.4 98.408,245.712 100.873,242.023C101.039,241.775 101.336,241.669 101.622,241.756C101.908,241.842 102.095,242.096 102.095,242.395C102.095,245.836 102.095,249.276 102.095,252.717C102.095,253.084 102.396,253.385 102.763,253.385C103.028,253.385 103.293,253.385 103.558,253.385C103.925,253.385 104.225,253.084 104.225,252.717" style="fill:none;stroke:rgb(0,0,255);stroke-width:0.01px;"/>
        <path d="M128.874,252.717C128.874,247.567 128.874,242.417 128.874,237.267C128.874,236.899 128.573,236.6 128.205,236.6C124.606,236.6 121.006,236.6 117.406,236.6C117.039,236.6 116.738,236.899 116.738,237.267C116.738,237.482 116.738,237.698 116.738,237.914C116.738,238.28 117.039,238.581 117.406,238.581C120.266,238.581 123.126,238.581 125.986,238.581C126.353,238.581 126.653,238.881 126.653,239.248C126.653,240.516 126.653,241.784 126.653,243.052C126.653,243.42 126.353,243.72 125.986,243.72C123.335,243.72 120.685,243.72 118.035,243.72C117.668,243.72 117.368,244.02 117.368,244.388C117.368,244.599 117.368,244.811 117.368,245.022C117.368,245.39 117.668,245.689 118.035,245.689C120.685,245.689 123.335,245.689 125.986,245.689C126.353,245.689 126.653,245.99 126.653,246.357C126.653,247.816 126.653,249.276 126.653,250.735C126.653,251.103 126.353,251.404 125.986,251.404C122.996,251.404 120.006,251.404 117.016,251.404C116.648,251.404 116.348,251.703 116.348,252.071C116.348,252.286 116.348,252.502 116.348,252.717C116.348,253.084 116.648,253.385 117.016,253.385C120.745,253.385 124.475,253.385 128.205,253.385C128.573,253.385 128.873,253.084 128.873,252.717" style="fill:none;stroke:rgb(0,0,255);stroke-width:0.01px;"/>
        <path d="M148.948,252.958C150.943,247.808 152.938,242.658 154.933,237.508C155.015,237.296 154.99,237.076 154.861,236.889C154.733,236.702 154.537,236.6 154.311,236.6C153.99,236.6 153.669,236.6 153.348,236.6C153.06,236.6 152.816,236.771 152.719,237.042C151.318,240.959 149.918,244.876 148.516,248.793C148.428,249.041 148.342,249.285 148.259,249.525C148.166,249.801 147.92,249.977 147.629,249.978C147.34,249.978 147.093,249.804 146.998,249.531C146.911,249.285 146.822,249.038 146.73,248.793C145.273,244.873 143.815,240.954 142.358,237.034C142.259,236.768 142.017,236.6 141.733,236.6C141.458,236.6 141.183,236.6 140.908,236.6C140.681,236.6 140.485,236.702 140.357,236.891C140.229,237.079 140.203,237.299 140.287,237.511C142.304,242.661 144.321,247.81 146.338,252.96C146.44,253.222 146.679,253.385 146.959,253.385C147.414,253.385 147.87,253.385 148.326,253.385C148.607,253.385 148.846,253.22 148.948,252.958" style="fill:none;stroke:rgb(0,0,255);stroke-width:0.01px;"/>
        <path d="M178.87,252.717C178.87,247.567 178.87,242.417 178.87,237.267C178.87,236.899 178.57,236.6 178.203,236.6C174.603,236.6 171.003,236.6 167.403,236.6C167.036,236.6 166.735,236.899 166.735,237.267C166.735,237.482 166.735,237.698 166.735,237.914C166.735,238.28 167.036,238.581 167.403,238.581C170.263,238.581 173.123,238.581 175.983,238.581C176.351,238.581 176.65,238.881 176.65,239.248C176.65,240.516 176.65,241.784 176.65,243.052C176.65,243.42 176.351,243.72 175.983,243.72C173.333,243.72 170.682,243.72 168.032,243.72C167.665,243.72 167.365,244.02 167.365,244.388C167.365,244.599 167.365,244.811 167.365,245.022C167.365,245.39 167.665,245.689 168.032,245.689C170.682,245.689 173.333,245.689 175.983,245.689C176.351,245.689 176.65,245.99 176.65,246.357C176.65,247.816 176.65,249.276 176.65,250.735C176.65,251.103 176.351,251.404 175.983,251.404C172.993,251.404 170.003,251.404 167.013,251.404C166.645,251.404 166.345,251.703 166.345,252.071C166.345,252.286 166.345,252.502 166.345,252.717C166.345,253.084 166.645,253.385 167.013,253.385C170.743,253.385 174.473,253.385 178.203,253.385C178.57,253.385 178.87,253.084 178.87,252.717" style="fill:none;stroke:rgb(0,0,255);stroke-width:0.01px;"/>
        <path d="M202.851,252.717C202.851,247.567 202.851,242.417 202.851,237.267C202.851,236.899 202.55,236.6 202.183,236.6C201.887,236.6 201.59,236.6 201.294,236.6C200.927,236.6 200.626,236.899 200.626,237.267C200.626,241.756 200.626,246.246 200.626,250.735C200.626,251.103 200.326,251.404 199.959,251.404C197.649,251.404 195.339,251.404 193.028,251.404C192.661,251.404 192.361,251.703 192.361,252.071C192.361,252.286 192.361,252.502 192.361,252.717C192.361,253.084 192.661,253.385 193.028,253.385C196.08,253.385 199.131,253.385 202.183,253.385C202.55,253.385 202.851,253.084 202.851,252.717" style="fill:none;stroke:rgb(0,0,255);stroke-width:0.01px;"/>
        <path d="M228.867,252.717C228.867,247.567 228.867,242.417 228.867,237.267C228.867,236.899 228.567,236.6 228.199,236.6C224.6,236.6 221,236.6 217.4,236.6C217.032,236.6 216.732,236.899 216.732,237.267C216.732,237.482 216.732,237.698 216.732,237.914C216.732,238.28 217.032,238.581 217.4,238.581C220.26,238.581 223.12,238.581 225.979,238.581C226.347,238.581 226.647,238.881 226.647,239.248C226.647,240.516 226.647,241.784 226.647,243.052C226.647,243.42 226.347,243.72 225.979,243.72C223.33,243.72 220.68,243.72 218.029,243.72C217.661,243.72 217.362,244.02 217.362,244.388C217.362,244.599 217.362,244.811 217.362,245.022C217.362,245.39 217.661,245.689 218.029,245.689C220.68,245.689 223.33,245.689 225.979,245.689C226.347,245.689 226.647,245.99 226.647,246.357C226.647,247.816 226.647,249.276 226.647,250.735C226.647,251.103 226.347,251.404 225.979,251.404C222.99,251.404 220,251.404 217.01,251.404C216.642,251.404 216.341,251.703 216.341,252.071C216.341,252.286 216.341,252.502 216.341,252.717C216.341,253.084 216.642,253.385 217.01,253.385C220.74,253.385 224.469,253.385 228.199,253.385C228.567,253.385 228.867,253.084 228.867,252.717" style="fill:none;stroke:rgb(0,0,255);stroke-width:0.01px;"/>
        <path d="M254.068,252.888C255.435,247.738 256.802,242.588 258.168,237.438C258.224,237.231 258.184,237.028 258.053,236.859C257.922,236.689 257.738,236.6 257.524,236.6C257.23,236.6 256.937,236.6 256.644,236.6C256.329,236.6 256.064,236.81 255.993,237.116C255.182,240.611 254.369,244.105 253.558,247.6C253.518,247.769 253.478,247.937 253.44,248.106C253.371,248.41 253.109,248.622 252.797,248.625C252.485,248.628 252.22,248.426 252.142,248.123C252.121,248.04 252.105,247.977 252.092,247.932C251.073,244.317 250.054,240.701 249.035,237.086C248.953,236.793 248.696,236.599 248.393,236.599C247.837,236.599 247.28,236.599 246.723,236.599C246.419,236.599 246.163,236.793 246.08,237.085C245.325,239.755 244.57,242.425 243.815,245.095C243.542,246.05 243.304,246.98 243.099,247.883C243.03,248.189 242.768,248.401 242.454,248.403C242.141,248.406 241.875,248.2 241.8,247.896C241.759,247.728 241.715,247.558 241.673,247.385C240.837,243.96 240.002,240.534 239.167,237.108C239.093,236.805 238.83,236.599 238.519,236.599C238.24,236.599 237.961,236.599 237.682,236.599C237.468,236.599 237.282,236.69 237.151,236.862C237.021,237.033 236.982,237.236 237.038,237.443C238.451,242.593 239.863,247.743 241.275,252.893C241.356,253.188 241.615,253.385 241.919,253.385C242.294,253.385 242.669,253.385 243.044,253.385C243.349,253.385 243.606,253.188 243.688,252.895C244.777,248.956 245.867,245.018 246.956,241.079C247.037,240.785 247.294,240.589 247.599,240.588C247.903,240.588 248.162,240.783 248.243,241.077C249.34,245.017 250.437,248.956 251.534,252.896C251.615,253.189 251.873,253.385 252.177,253.385C252.592,253.385 253.007,253.385 253.423,253.385C253.73,253.385 253.99,253.185 254.068,252.889" style="fill:none;stroke:rgb(0,0,255);stroke-width:0.01px;"/>
        <path d="M273.722,252.717C273.722,248.228 273.722,243.738 273.722,239.248C273.722,238.881 274.023,238.581 274.39,238.581C275.788,238.581 277.187,238.581 278.585,238.581C278.953,238.581 279.253,238.28 279.253,237.914C279.253,237.698 279.253,237.482 279.253,237.267C279.253,236.9 278.953,236.6 278.585,236.6C274.596,236.6 270.606,236.6 266.617,236.6C266.249,236.6 265.95,236.9 265.95,237.267C265.95,237.482 265.95,237.698 265.95,237.914C265.95,238.28 266.249,238.581 266.617,238.581C268.023,238.581 269.429,238.581 270.836,238.581C271.203,238.581 271.503,238.881 271.503,239.248C271.503,243.738 271.503,248.228 271.503,252.717C271.503,253.084 271.803,253.385 272.17,253.385C272.466,253.385 272.76,253.385 273.055,253.385C273.423,253.385 273.722,253.084 273.722,252.717" style="fill:none;stroke:rgb(0,0,255);stroke-width:0.01px;"/>
        <path d="M103.875,227.452C103.875,222.48 103.875,217.508 103.875,212.536C103.875,212.021 103.454,211.602 102.94,211.602C99.518,211.602 96.097,211.602 92.675,211.602C92.16,211.602 91.74,212.021 91.74,212.536C91.74,212.574 91.74,212.611 91.74,212.649C91.74,213.163 92.16,213.583 92.675,213.583C95.356,213.583 98.039,213.583 100.72,213.583C101.235,213.583 101.655,214.003 101.655,214.517C101.655,215.607 101.655,216.697 101.655,217.787C101.655,218.303 101.235,218.722 100.72,218.722C98.248,218.722 95.776,218.722 93.304,218.722C92.789,218.722 92.37,219.142 92.37,219.656C92.37,219.69 92.37,219.724 92.37,219.757C92.37,220.272 92.789,220.691 93.304,220.691C95.776,220.691 98.248,220.691 100.72,220.691C101.235,220.691 101.655,221.111 101.655,221.627C101.655,222.908 101.655,224.189 101.655,225.47C101.655,225.986 101.235,226.406 100.72,226.405C97.908,226.405 95.096,226.405 92.284,226.405C91.769,226.405 91.349,226.825 91.349,227.34C91.349,227.377 91.349,227.415 91.349,227.452C91.349,227.967 91.769,228.387 92.284,228.387C95.836,228.387 99.388,228.387 102.94,228.387C103.454,228.387 103.875,227.967 103.875,227.452" style="fill:none;stroke:rgb(0,0,255);stroke-width:0.01px;"/>
        <path d="M128.874,227.452C128.874,222.48 128.874,217.508 128.874,212.536C128.874,212.021 128.453,211.602 127.939,211.602C124.517,211.602 121.095,211.602 117.673,211.602C117.158,211.602 116.738,212.021 116.738,212.536C116.738,212.574 116.738,212.611 116.738,212.649C116.738,213.163 117.158,213.583 117.673,213.583C120.355,213.583 123.037,213.583 125.719,213.583C126.233,213.583 126.653,214.003 126.653,214.517C126.653,215.607 126.653,216.697 126.653,217.787C126.653,218.303 126.233,218.722 125.719,218.722C123.246,218.722 120.774,218.722 118.302,218.722C117.788,218.722 117.368,219.142 117.368,219.656C117.368,219.69 117.368,219.724 117.368,219.757C117.368,220.272 117.788,220.691 118.302,220.691C120.774,220.691 123.246,220.691 125.719,220.691C126.233,220.691 126.653,221.111 126.653,221.627C126.653,222.908 126.653,224.189 126.653,225.47C126.653,225.985 126.233,226.405 125.719,226.405C122.907,226.405 120.095,226.405 117.283,226.405C116.768,226.405 116.348,226.825 116.348,227.34C116.348,227.377 116.348,227.415 116.348,227.452C116.348,227.967 116.768,228.387 117.283,228.387C120.835,228.387 124.387,228.387 127.939,228.387C128.453,228.387 128.874,227.967 128.874,227.452" style="fill:none;stroke:rgb(0,0,255);stroke-width:0.01px;"/>
        <path d="M179.193,227.452C179.193,222.48 179.193,217.508 179.193,212.536C179.193,212.021 178.773,211.602 178.259,211.602C178.141,211.602 178.022,211.602 177.905,211.602C177.389,211.602 176.97,212.021 176.97,212.536C176.97,214.211 176.97,215.886 176.97,217.561C176.97,218.076 176.55,218.495 176.035,218.495C173.751,218.495 171.466,218.495 169.181,218.495C168.667,218.495 168.246,218.076 168.246,217.561C168.246,215.886 168.246,214.211 168.246,212.536C168.246,212.021 167.827,211.602 167.311,211.602C167.194,211.602 167.076,211.602 166.958,211.602C166.443,211.602 166.023,212.021 166.023,212.536C166.023,217.508 166.023,222.48 166.023,227.452C166.023,227.967 166.443,228.387 166.958,228.387C167.076,228.387 167.194,228.387 167.311,228.387C167.827,228.387 168.246,227.967 168.246,227.452C168.246,225.439 168.246,223.425 168.246,221.411C168.246,220.897 168.667,220.476 169.181,220.476C171.466,220.476 173.751,220.476 176.035,220.476C176.55,220.476 176.97,220.897 176.97,221.411C176.97,223.425 176.97,225.439 176.97,227.452C176.97,227.967 177.389,228.387 177.905,228.387C178.022,228.387 178.141,228.387 178.259,228.387C178.773,228.387 179.193,227.967 179.193,227.452" style="fill:none;stroke:rgb(0,0,255);stroke-width:0.01px;"/>
        <path d="M198.727,227.452C198.727,223.141 198.727,218.829 198.727,214.517C198.727,214.003 199.148,213.583 199.662,213.583C200.882,213.583 202.103,213.583 203.323,213.583C203.838,213.583 204.258,213.163 204.258,212.649C204.258,212.611 204.258,212.574 204.258,212.536C204.258,212.021 203.838,211.602 203.323,211.602C199.512,211.602 195.7,211.602 191.888,211.602C191.374,211.602 190.954,212.021 190.954,212.536C190.954,212.574 190.954,212.611 190.954,212.649C190.954,213.163 191.374,213.583 191.888,213.583C193.117,213.583 194.345,213.583 195.573,213.583C196.088,213.583 196.507,214.003 196.507,214.517C196.507,218.829 196.507,223.141 196.507,227.452C196.507,227.967 196.927,228.387 197.442,228.387C197.559,228.387 197.676,228.387 197.793,228.387C198.308,228.387 198.727,227.967 198.727,227.452" style="fill:none;stroke:rgb(0,0,255);stroke-width:0.01px;"/>
        <path d="M248.712,227.719C248.712,222.569 248.712,217.419 248.712,212.269C248.712,211.901 248.413,211.601 248.045,211.601C247.75,211.601 247.455,211.601 247.161,211.601C246.793,211.601 246.493,211.901 246.493,212.269C246.493,217.419 246.493,222.569 246.493,227.719C246.493,228.086 246.793,228.386 247.161,228.386C247.455,228.386 247.75,228.386 248.045,228.386C248.413,228.386 248.712,228.086 248.712,227.719" style="fill:none;stroke:rgb(0,0,255);stroke-width:0.01px;"/>
        <path d="M278.645,222.936C278.372,222.912 278.099,222.887 277.826,222.863C277.488,222.834 277.185,223.059 277.115,223.391C276.992,223.973 276.793,224.468 276.517,224.877C276.154,225.415 275.591,225.85 274.829,226.183C274.067,226.514 273.208,226.679 272.253,226.679C271.406,226.679 270.659,226.554 270.01,226.304C269.362,226.05 268.877,225.705 268.56,225.268C268.244,224.826 268.083,224.349 268.083,223.83C268.083,223.302 268.236,222.844 268.544,222.45C268.849,222.055 269.354,221.727 270.053,221.461C270.506,221.285 271.499,221.012 273.043,220.641C274.583,220.269 275.666,219.921 276.283,219.593C277.084,219.175 277.683,218.651 278.077,218.03C278.468,217.408 278.663,216.713 278.663,215.939C278.663,215.095 278.425,214.302 277.944,213.567C277.464,212.829 276.76,212.269 275.838,211.886C274.911,211.507 273.887,211.315 272.758,211.315C271.511,211.315 270.417,211.515 269.463,211.917C268.514,212.316 267.783,212.906 267.271,213.684C266.892,214.265 266.639,214.905 266.521,215.604C266.489,215.796 266.534,215.973 266.654,216.127C266.773,216.281 266.935,216.366 267.13,216.382C267.409,216.403 267.689,216.424 267.968,216.445C268.3,216.47 268.595,216.251 268.669,215.926C268.846,215.14 269.204,214.526 269.741,214.087C270.402,213.545 271.375,213.274 272.664,213.274C274.008,213.274 274.986,213.52 275.603,214.012C276.217,214.505 276.525,215.099 276.525,215.79C276.525,216.396 276.306,216.893 275.873,217.28C275.443,217.67 274.329,218.069 272.523,218.475C270.717,218.885 269.479,219.242 268.807,219.547C267.829,220 267.106,220.571 266.641,221.258C266.177,221.95 265.946,222.748 265.946,223.646C265.946,224.541 266.2,225.381 266.712,226.17C267.224,226.96 267.958,227.574 268.916,228.015C269.874,228.453 270.952,228.672 272.149,228.672C273.669,228.672 274.943,228.453 275.967,228.008C276.994,227.566 277.799,226.902 278.385,226.011C278.845,225.311 279.133,224.536 279.249,223.691C279.274,223.504 279.228,223.332 279.109,223.183C278.991,223.036 278.834,222.952 278.645,222.936" style="fill:none;stroke:rgb(0,0,255);stroke-width:0.01px;"/>
        <path d="M98.734,202.453C98.734,198.142 98.734,193.83 98.734,189.519C98.734,189.004 99.154,188.584 99.669,188.584C100.889,188.584 102.11,188.584 103.33,188.584C103.845,188.584 104.264,188.164 104.264,187.65C104.264,187.612 104.264,187.575 104.264,187.537C104.264,187.022 103.845,186.603 103.33,186.603C99.518,186.603 95.707,186.603 91.895,186.603C91.38,186.603 90.961,187.022 90.961,187.537C90.961,187.575 90.961,187.612 90.961,187.65C90.961,188.164 91.38,188.584 91.895,188.584C93.123,188.584 94.352,188.584 95.58,188.584C96.094,188.584 96.515,189.004 96.515,189.519C96.515,193.83 96.515,198.142 96.515,202.453C96.515,202.968 96.934,203.388 97.449,203.388C97.566,203.388 97.683,203.388 97.8,203.388C98.314,203.388 98.734,202.968 98.734,202.453" style="fill:none;stroke:rgb(0,0,255);stroke-width:0.01px;"/>
        <path d="M129.196,202.453C129.196,197.481 129.196,192.509 129.196,187.537C129.196,187.022 128.776,186.603 128.262,186.603C128.143,186.603 128.025,186.603 127.907,186.603C127.393,186.603 126.973,187.022 126.973,187.537C126.973,189.212 126.973,190.887 126.973,192.562C126.973,193.076 126.553,193.496 126.038,193.496C123.753,193.496 121.469,193.496 119.184,193.496C118.669,193.496 118.249,193.076 118.249,192.562C118.249,190.887 118.249,189.212 118.249,187.537C118.249,187.022 117.829,186.603 117.315,186.603C117.197,186.603 117.079,186.603 116.96,186.603C116.446,186.603 116.026,187.022 116.026,187.537C116.026,192.509 116.026,197.481 116.026,202.453C116.026,202.968 116.446,203.388 116.96,203.388C117.079,203.388 117.197,203.388 117.315,203.388C117.829,203.388 118.249,202.968 118.249,202.453C118.249,200.439 118.249,198.426 118.249,196.412C118.249,195.898 118.669,195.477 119.184,195.477C121.469,195.477 123.753,195.477 126.038,195.477C126.553,195.477 126.973,195.898 126.973,196.412C126.973,198.426 126.973,200.439 126.973,202.453C126.973,202.968 127.393,203.388 127.907,203.388C128.025,203.388 128.143,203.388 128.262,203.388C128.776,203.388 129.196,202.968 129.196,202.453" style="fill:none;stroke:rgb(0,0,255);stroke-width:0.01px;"/>
        <path d="M146.955,195.869C146.955,195.836 146.955,195.804 146.955,195.771C146.955,195.256 146.536,194.837 146.021,194.836C144.275,194.833 142.528,194.83 140.781,194.828C140.524,194.826 140.301,194.919 140.12,195.101C139.938,195.283 139.846,195.504 139.846,195.762C139.846,197.372 139.846,198.982 139.846,200.593C139.846,200.897 139.977,201.159 140.221,201.341C141.193,202.069 142.194,202.628 143.222,203.017C144.382,203.456 145.575,203.673 146.794,203.673C148.444,203.673 149.945,203.322 151.288,202.614C152.637,201.911 153.654,200.887 154.341,199.554C155.029,198.217 155.372,196.725 155.372,195.075C155.372,193.442 155.029,191.918 154.345,190.503C153.665,189.084 152.68,188.033 151.399,187.346C150.116,186.661 148.639,186.317 146.966,186.317C145.755,186.317 144.657,186.513 143.676,186.908C142.695,187.298 141.925,187.845 141.37,188.549C140.982,189.038 140.658,189.629 140.399,190.326C140.304,190.58 140.32,190.835 140.443,191.077C140.567,191.319 140.765,191.481 141.027,191.553C141.103,191.574 141.179,191.595 141.256,191.616C141.716,191.742 142.194,191.505 142.371,191.06C142.568,190.568 142.789,190.156 143.039,189.83C143.412,189.342 143.949,188.951 144.645,188.658C145.337,188.365 146.11,188.216 146.955,188.216C147.971,188.216 148.85,188.373 149.589,188.682C150.332,188.991 150.925,189.396 151.383,189.901C151.836,190.405 152.188,190.956 152.442,191.562C152.867,192.598 153.083,193.723 153.083,194.939C153.083,196.435 152.825,197.686 152.309,198.694C151.793,199.702 151.043,200.449 150.057,200.937C149.073,201.426 148.03,201.672 146.923,201.672C145.958,201.672 145.021,201.485 144.106,201.114C143.419,200.839 142.857,200.549 142.421,200.243C142.164,200.063 142.022,199.791 142.022,199.477C142.022,198.897 142.022,198.317 142.022,197.737C142.022,197.223 142.443,196.803 142.957,196.803C143.978,196.803 144.999,196.803 146.021,196.803C146.535,196.803 146.955,196.383 146.955,195.869" style="fill:none;stroke:rgb(0,0,255);stroke-width:0.01px;"/>
        <path d="M173.717,202.721C173.717,197.571 173.717,192.421 173.717,187.27C173.717,186.903 173.417,186.603 173.05,186.603C172.755,186.603 172.46,186.603 172.165,186.603C171.798,186.603 171.497,186.903 171.497,187.27C171.497,192.42 171.497,197.571 171.497,202.721C171.497,203.089 171.798,203.388 172.165,203.388C172.46,203.388 172.755,203.388 173.05,203.388C173.417,203.388 173.717,203.089 173.717,202.721" style="fill:none;stroke:rgb(0,0,255);stroke-width:0.01px;"/>
        <path d="M203.869,202.453C203.869,197.481 203.869,192.509 203.869,187.537C203.869,187.022 203.449,186.603 202.934,186.603C199.512,186.603 196.09,186.603 192.669,186.603C192.155,186.603 191.734,187.022 191.734,187.537C191.734,187.575 191.734,187.612 191.734,187.65C191.734,188.164 192.155,188.584 192.669,188.584C195.351,188.584 198.032,188.584 200.715,188.584C201.229,188.584 201.65,189.004 201.65,189.519C201.65,190.609 201.65,191.699 201.65,192.788C201.65,193.304 201.229,193.723 200.715,193.723C198.242,193.723 195.77,193.723 193.298,193.723C192.784,193.723 192.363,194.143 192.363,194.657C192.363,194.691 192.363,194.725 192.363,194.758C192.363,195.273 192.784,195.692 193.298,195.692C195.77,195.692 198.242,195.692 200.715,195.692C201.229,195.692 201.65,196.112 201.65,196.627C201.65,197.909 201.65,199.191 201.65,200.472C201.65,200.986 201.229,201.406 200.715,201.406C197.902,201.406 195.09,201.406 192.278,201.406C191.764,201.406 191.343,201.826 191.343,202.341C191.343,202.378 191.343,202.416 191.343,202.453C191.343,202.968 191.764,203.388 192.278,203.388C195.83,203.388 199.382,203.388 202.934,203.388C203.449,203.388 203.869,202.968 203.869,202.453" style="fill:none;stroke:rgb(0,0,255);stroke-width:0.01px;"/>
        <path d="M223.943,202.962C225.938,197.812 227.933,192.662 229.928,187.512C230.011,187.299 229.985,187.08 229.856,186.893C229.728,186.705 229.532,186.603 229.306,186.603C228.985,186.603 228.664,186.603 228.343,186.603C228.055,186.603 227.811,186.775 227.715,187.047C226.314,190.963 224.913,194.88 223.512,198.796C223.423,199.044 223.337,199.289 223.255,199.529C223.161,199.804 222.915,199.981 222.624,199.982C222.335,199.982 222.088,199.808 221.992,199.535C221.906,199.289 221.817,199.042 221.725,198.796C220.268,194.877 218.811,190.957 217.353,187.038C217.254,186.772 217.012,186.603 216.728,186.603C216.453,186.603 216.178,186.603 215.903,186.603C215.676,186.603 215.48,186.707 215.352,186.895C215.224,187.083 215.198,187.303 215.282,187.514C217.299,192.665 219.315,197.814 221.332,202.965C221.436,203.226 221.674,203.388 221.954,203.388C222.409,203.388 222.864,203.388 223.32,203.388C223.601,203.388 223.841,203.224 223.943,202.962" style="fill:none;stroke:rgb(0,0,255);stroke-width:0.01px;"/>
        <path d="M248.712,202.721C248.712,197.571 248.712,192.421 248.712,187.27C248.712,186.903 248.413,186.603 248.045,186.603C247.75,186.603 247.455,186.603 247.161,186.603C246.793,186.603 246.493,186.903 246.493,187.27C246.493,192.42 246.493,197.571 246.493,202.721C246.493,203.089 246.793,203.388 247.161,203.388C247.455,203.388 247.75,203.388 248.045,203.388C248.413,203.388 248.712,203.089 248.712,202.721" style="fill:none;stroke:rgb(0,0,255);stroke-width:0.01px;"/>
        <path d="M278.264,202.721C278.264,197.571 278.264,192.421 278.264,187.27C278.264,186.903 277.963,186.603 277.597,186.603C274.266,186.603 270.936,186.603 267.606,186.603C267.239,186.603 266.938,186.903 266.938,187.27C266.938,187.486 266.938,187.701 266.938,187.917C266.938,188.285 267.239,188.585 267.606,188.585C270.195,188.585 272.784,188.585 275.373,188.585C275.74,188.585 276.04,188.885 276.04,189.252C276.04,190.539 276.04,191.827 276.04,193.114C276.04,193.482 275.74,193.782 275.373,193.782C273.192,193.782 271.013,193.782 268.833,193.782C268.465,193.782 268.165,194.082 268.165,194.449C268.165,194.665 268.165,194.88 268.165,195.096C268.165,195.463 268.465,195.763 268.833,195.763C271.013,195.763 273.192,195.763 275.373,195.763C275.74,195.763 276.04,196.064 276.04,196.431C276.04,198.528 276.04,200.624 276.04,202.721C276.04,203.089 276.34,203.388 276.708,203.388C277.004,203.388 277.3,203.388 277.597,203.388C277.963,203.388 278.264,203.089 278.264,202.721" style="fill:none;stroke:rgb(0,0,255);stroke-width:0.01px;"/>
        <path d="M173.729,177.723C173.729,173.233 173.729,168.743 173.729,164.253C173.729,163.886 174.03,163.586 174.397,163.586C175.796,163.586 177.194,163.586 178.592,163.586C178.96,163.586 179.259,163.286 179.259,162.918C179.259,162.703 179.259,162.487 179.259,162.272C179.259,161.904 178.96,161.605 178.592,161.605C174.602,161.605 170.613,161.605 166.623,161.605C166.256,161.605 165.956,161.904 165.956,162.272C165.956,162.487 165.956,162.703 165.956,162.918C165.956,163.286 166.256,163.586 166.623,163.586C168.029,163.586 169.435,163.586 170.842,163.586C171.21,163.586 171.51,163.886 171.51,164.253C171.51,168.743 171.51,173.233 171.51,177.723C171.51,178.089 171.81,178.39 172.177,178.39C172.472,178.39 172.767,178.39 173.062,178.39C173.429,178.39 173.729,178.089 173.729,177.723" style="fill:none;stroke:rgb(0,0,255);stroke-width:0.01px;"/>
        <path d="M203.651,172.939C203.378,172.915 203.104,172.89 202.832,172.866C202.494,172.837 202.19,173.062 202.12,173.394C201.998,173.976 201.798,174.471 201.523,174.88C201.159,175.418 200.597,175.853 199.835,176.186C199.072,176.517 198.213,176.682 197.259,176.682C196.411,176.682 195.665,176.557 195.016,176.306C194.367,176.053 193.882,175.708 193.565,175.271C193.249,174.83 193.089,174.352 193.089,173.833C193.089,173.305 193.241,172.847 193.55,172.453C193.855,172.058 194.359,171.73 195.059,171.465C195.513,171.288 196.505,171.015 198.048,170.643C199.588,170.272 200.67,169.924 201.288,169.596C202.089,169.179 202.688,168.654 203.082,168.033C203.473,167.412 203.669,166.716 203.669,165.942C203.669,165.098 203.431,164.305 202.949,163.57C202.469,162.832 201.765,162.272 200.843,161.89C199.916,161.51 198.892,161.319 197.763,161.319C196.517,161.319 195.422,161.518 194.469,161.921C193.52,162.319 192.789,162.909 192.277,163.687C191.897,164.269 191.645,164.909 191.526,165.607C191.494,165.799 191.539,165.977 191.659,166.131C191.779,166.284 191.941,166.37 192.135,166.385C192.414,166.406 192.694,166.427 192.973,166.448C193.305,166.473 193.601,166.253 193.675,165.929C193.852,165.144 194.209,164.529 194.747,164.09C195.407,163.548 196.38,163.277 197.669,163.277C199.014,163.277 199.99,163.523 200.608,164.015C201.222,164.507 201.531,165.102 201.531,165.793C201.531,166.399 201.312,166.896 200.878,167.282C200.448,167.674 199.335,168.072 197.529,168.478C195.723,168.888 194.484,169.245 193.813,169.55C192.835,170.002 192.112,170.573 191.647,171.261C191.182,171.953 190.952,172.75 190.952,173.649C190.952,174.544 191.206,175.384 191.717,176.174C192.229,176.963 192.964,177.576 193.922,178.019C194.879,178.455 195.958,178.675 197.154,178.675C198.673,178.675 199.948,178.455 200.972,178.011C202,177.569 202.805,176.904 203.391,176.013C203.85,175.314 204.138,174.539 204.254,173.694C204.28,173.507 204.233,173.335 204.115,173.186C203.996,173.039 203.839,172.955 203.651,172.939" style="fill:none;stroke:rgb(0,0,255);stroke-width:0.01px;"/>
        <path d="M103.275,152.724C103.275,147.574 103.275,142.424 103.275,137.273C103.275,136.906 102.975,136.606 102.608,136.606C99.277,136.606 95.948,136.606 92.617,136.606C92.25,136.606 91.95,136.906 91.95,137.273C91.95,137.489 91.95,137.705 91.95,137.92C91.95,138.288 92.25,138.588 92.617,138.588C95.206,138.588 97.795,138.588 100.384,138.587C100.751,138.587 101.051,138.888 101.051,139.255C101.051,140.542 101.051,141.83 101.051,143.117C101.051,143.485 100.751,143.785 100.384,143.785C98.204,143.785 96.024,143.785 93.844,143.785C93.476,143.785 93.177,144.085 93.177,144.452C93.177,144.668 93.177,144.883 93.177,145.099C93.177,145.467 93.476,145.767 93.844,145.767C96.024,145.767 98.204,145.767 100.384,145.767C100.751,145.767 101.051,146.067 101.051,146.434C101.051,148.531 101.051,150.627 101.051,152.724C101.051,153.091 101.352,153.392 101.719,153.392C102.015,153.392 102.311,153.392 102.608,153.392C102.975,153.392 103.275,153.091 103.275,152.724" style="fill:none;stroke:rgb(0,0,255);stroke-width:0.01px;"/>
        <path d="M127.855,152.724C127.855,147.574 127.855,142.424 127.855,137.273C127.855,136.906 127.556,136.606 127.188,136.606C126.892,136.606 126.595,136.606 126.299,136.606C125.932,136.606 125.632,136.906 125.632,137.273C125.632,141.763 125.632,146.253 125.632,150.743C125.632,151.109 125.331,151.41 124.964,151.41C122.654,151.41 120.344,151.41 118.034,151.41C117.666,151.41 117.366,151.71 117.366,152.077C117.366,152.293 117.366,152.509 117.366,152.724C117.366,153.091 117.666,153.392 118.034,153.392C121.085,153.392 124.137,153.392 127.188,153.392C127.556,153.392 127.855,153.091 127.855,152.724" style="fill:none;stroke:rgb(0,0,255);stroke-width:0.01px;"/>
        <path d="M179.193,152.724C179.193,147.574 179.193,142.424 179.193,137.273C179.193,136.906 178.893,136.606 178.525,136.606C178.229,136.606 177.933,136.606 177.637,136.606C177.269,136.606 176.97,136.906 176.97,137.273C176.97,139.126 176.97,140.979 176.97,142.832C176.97,143.2 176.669,143.5 176.302,143.5C173.84,143.5 171.377,143.5 168.914,143.5C168.547,143.5 168.246,143.2 168.246,142.832C168.246,140.979 168.246,139.126 168.246,137.273C168.246,136.906 167.946,136.606 167.579,136.606C167.283,136.606 166.987,136.606 166.69,136.606C166.323,136.606 166.023,136.906 166.023,137.273C166.023,142.424 166.023,147.574 166.023,152.724C166.023,153.091 166.323,153.392 166.69,153.392C166.987,153.392 167.283,153.392 167.579,153.392C167.946,153.392 168.246,153.091 168.246,152.724C168.246,150.532 168.246,148.34 168.246,146.148C168.246,145.781 168.547,145.481 168.914,145.481C171.377,145.481 173.84,145.481 176.302,145.481C176.67,145.481 176.971,145.781 176.97,146.149C176.97,148.341 176.97,150.532 176.97,152.724C176.97,153.091 177.269,153.392 177.637,153.392C177.933,153.392 178.229,153.392 178.525,153.392C178.893,153.392 179.193,153.091 179.193,152.724" style="fill:none;stroke:rgb(0,0,255);stroke-width:0.01px;"/>
        <path d="M203.869,152.724C203.869,147.574 203.869,142.424 203.869,137.273C203.869,136.906 203.569,136.606 203.201,136.606C199.601,136.606 196.002,136.606 192.402,136.606C192.034,136.606 191.734,136.906 191.734,137.273C191.734,137.489 191.734,137.705 191.734,137.92C191.734,138.288 192.034,138.587 192.402,138.587C195.262,138.587 198.121,138.587 200.981,138.587C201.349,138.587 201.65,138.888 201.65,139.255C201.65,140.523 201.65,141.791 201.65,143.06C201.65,143.426 201.349,143.727 200.981,143.727C198.331,143.727 195.681,143.727 193.031,143.727C192.663,143.727 192.363,144.027 192.363,144.394C192.363,144.606 192.363,144.817 192.363,145.028C192.363,145.396 192.663,145.696 193.031,145.696C195.681,145.696 198.331,145.696 200.981,145.696C201.349,145.696 201.65,145.996 201.65,146.364C201.65,147.823 201.65,149.283 201.65,150.743C201.65,151.109 201.349,151.41 200.981,151.41C197.991,151.41 195.001,151.41 192.011,151.41C191.644,151.41 191.343,151.71 191.343,152.077C191.343,152.293 191.343,152.509 191.343,152.724C191.343,153.091 191.644,153.392 192.011,153.392C195.741,153.392 199.471,153.392 203.201,153.392C203.569,153.392 203.869,153.091 203.869,152.724" style="fill:none;stroke:rgb(0,0,255);stroke-width:0.01px;"/>
        <path d="M223.943,152.965C225.938,147.815 227.933,142.665 229.928,137.515C230.011,137.303 229.985,137.083 229.856,136.896C229.728,136.708 229.532,136.606 229.306,136.606C228.985,136.606 228.664,136.606 228.343,136.606C228.055,136.606 227.811,136.778 227.715,137.049C226.314,140.966 224.913,144.882 223.512,148.8C223.423,149.047 223.337,149.292 223.255,149.532C223.161,149.807 222.915,149.984 222.624,149.985C222.335,149.985 222.088,149.811 221.992,149.538C221.906,149.292 221.817,149.045 221.725,148.8C220.268,144.88 218.811,140.96 217.353,137.041C217.254,136.775 217.012,136.606 216.728,136.606C216.453,136.606 216.178,136.606 215.903,136.606C215.676,136.606 215.48,136.71 215.352,136.898C215.224,137.086 215.198,137.305 215.282,137.517C217.299,142.668 219.315,147.818 221.332,152.968C221.436,153.229 221.674,153.392 221.954,153.392C222.409,153.392 222.864,153.392 223.32,153.392C223.601,153.392 223.841,153.227 223.943,152.965" style="fill:none;stroke:rgb(0,0,255);stroke-width:0.01px;"/>
        <path d="M248.712,152.724C248.712,147.574 248.712,142.424 248.712,137.273C248.712,136.906 248.413,136.606 248.045,136.606C247.75,136.606 247.455,136.606 247.161,136.606C246.793,136.606 246.493,136.906 246.493,137.273C246.493,142.424 246.493,147.574 246.493,152.724C246.493,153.091 246.793,153.392 247.161,153.392C247.455,153.392 247.75,153.392 248.045,153.392C248.413,153.392 248.712,153.091 248.712,152.724" style="fill:none;stroke:rgb(0,0,255);stroke-width:0.01px;"/>
        <path d="M278.264,152.724C278.264,147.574 278.264,142.424 278.264,137.273C278.264,136.906 277.963,136.606 277.597,136.606C274.266,136.606 270.936,136.606 267.606,136.606C267.239,136.606 266.938,136.906 266.938,137.273C266.938,137.489 266.938,137.705 266.938,137.92C266.938,138.288 267.239,138.588 267.606,138.588C270.195,138.588 272.784,138.588 275.373,138.587C275.74,138.587 276.04,138.888 276.04,139.255C276.04,140.542 276.04,141.83 276.04,143.117C276.04,143.485 275.74,143.785 275.373,143.785C273.192,143.785 271.013,143.785 268.833,143.785C268.465,143.785 268.165,144.085 268.165,144.452C268.165,144.668 268.165,144.883 268.165,145.099C268.165,145.467 268.465,145.767 268.833,145.767C271.013,145.767 273.192,145.767 275.373,145.767C275.74,145.767 276.04,146.067 276.04,146.434C276.04,148.531 276.04,150.627 276.04,152.724C276.04,153.091 276.34,153.392 276.708,153.392C277.004,153.392 277.3,153.392 277.597,153.392C277.963,153.392 278.264,153.091 278.264,152.724" style="fill:none;stroke:rgb(0,0,255);stroke-width:0.01px;"/>
        <path d="M98.825,127.726C98.825,125.646 98.825,123.567 98.825,121.487C98.825,121.349 98.861,121.231 98.938,121.116C100.825,118.293 102.712,115.47 104.599,112.646C104.74,112.436 104.752,112.183 104.633,111.96C104.514,111.738 104.296,111.608 104.044,111.608C103.68,111.608 103.317,111.608 102.953,111.608C102.721,111.608 102.522,111.716 102.395,111.91C101.357,113.496 100.32,115.082 99.283,116.668C98.886,117.284 98.506,117.901 98.144,118.518C98.023,118.727 97.815,118.846 97.574,118.847C97.332,118.849 97.123,118.733 96.998,118.526C96.625,117.911 96.21,117.248 95.745,116.544C94.728,114.999 93.71,113.454 92.692,111.909C92.564,111.715 92.365,111.608 92.134,111.608C91.816,111.608 91.498,111.608 91.181,111.608C90.926,111.608 90.707,111.741 90.589,111.966C90.472,112.191 90.487,112.446 90.631,112.655C92.583,115.474 94.535,118.294 96.487,121.113C96.568,121.23 96.606,121.351 96.606,121.493C96.606,123.571 96.606,125.648 96.606,127.726C96.606,128.094 96.905,128.393 97.273,128.393C97.568,128.393 97.863,128.393 98.158,128.393C98.525,128.393 98.825,128.094 98.825,127.726" style="fill:none;stroke:rgb(0,0,255);stroke-width:0.01px;"/>
        <path d="M153.872,127.726C153.872,122.576 153.872,117.425 153.872,112.275C153.872,111.909 153.571,111.608 153.204,111.608C149.604,111.608 146.004,111.608 142.404,111.608C142.037,111.608 141.737,111.909 141.737,112.275C141.737,112.491 141.737,112.706 141.737,112.922C141.737,113.289 142.037,113.589 142.404,113.589C145.265,113.589 148.124,113.589 150.984,113.589C151.352,113.589 151.652,113.89 151.652,114.257C151.652,115.525 151.652,116.793 151.652,118.061C151.652,118.429 151.352,118.728 150.984,118.728C148.334,118.728 145.684,118.728 143.034,118.728C142.666,118.728 142.366,119.028 142.366,119.396C142.366,119.607 142.366,119.819 142.366,120.031C142.366,120.398 142.666,120.698 143.034,120.698C145.684,120.698 148.334,120.698 150.984,120.698C151.352,120.698 151.652,120.998 151.652,121.366C151.652,122.825 151.652,124.285 151.652,125.744C151.652,126.112 151.352,126.412 150.984,126.412C147.994,126.412 145.004,126.412 142.014,126.412C141.646,126.412 141.346,126.711 141.346,127.079C141.346,127.295 141.346,127.51 141.346,127.726C141.346,128.094 141.646,128.393 142.014,128.393C145.744,128.393 149.474,128.393 153.203,128.393C153.571,128.393 153.872,128.094 153.872,127.726" style="fill:none;stroke:rgb(0,0,255);stroke-width:0.01px;"/>
        <path d="M173.729,127.726C173.729,123.236 173.729,118.746 173.729,114.257C173.729,113.89 174.03,113.589 174.397,113.589C175.796,113.589 177.194,113.589 178.592,113.589C178.96,113.589 179.259,113.289 179.259,112.922C179.259,112.706 179.259,112.491 179.259,112.275C179.259,111.909 178.96,111.608 178.592,111.608C174.602,111.608 170.613,111.608 166.623,111.608C166.256,111.608 165.956,111.909 165.956,112.275C165.956,112.491 165.956,112.706 165.956,112.922C165.956,113.289 166.256,113.589 166.623,113.589C168.029,113.589 169.435,113.589 170.842,113.589C171.21,113.589 171.51,113.89 171.51,114.257C171.51,118.746 171.51,123.236 171.51,127.726C171.51,128.093 171.81,128.393 172.177,128.393C172.472,128.393 172.767,128.393 173.062,128.393C173.429,128.393 173.729,128.093 173.729,127.726" style="fill:none;stroke:rgb(0,0,255);stroke-width:0.01px;"/>
        <path d="M242.558,111.465C242.262,111.465 241.966,111.465 241.67,111.465C241.302,111.465 241.002,111.765 241.002,112.132C241.002,115.143 241.002,118.154 241.002,121.164C241.002,122.85 241.193,124.19 241.576,125.182C241.959,126.175 242.647,126.98 243.644,127.602C244.641,128.227 245.946,128.535 247.564,128.535C249.135,128.535 250.425,128.266 251.422,127.722C252.422,127.183 253.137,126.398 253.562,125.37C253.993,124.342 254.203,122.943 254.203,121.164C254.203,118.154 254.203,115.143 254.203,112.132C254.203,111.765 253.904,111.465 253.537,111.465C253.241,111.465 252.946,111.465 252.651,111.465C252.284,111.465 251.983,111.765 251.983,112.132C251.983,115.139 251.983,118.146 251.983,121.153C251.983,122.611 251.847,123.686 251.577,124.373C251.308,125.065 250.838,125.597 250.182,125.971C249.521,126.347 248.713,126.534 247.759,126.534C246.125,126.534 244.961,126.163 244.266,125.42C243.573,124.682 243.225,123.259 243.225,121.153C243.225,118.146 243.225,115.139 243.225,112.132C243.225,111.765 242.926,111.465 242.558,111.465" style="fill:none;stroke:rgb(0,0,255);stroke-width:0.01px;"/>
        <path d="M271.64,125.256C271.148,125.427 270.671,125.662 270.214,125.96C269.663,126.355 269.113,126.751 268.561,127.147C267.66,127.852 266.756,128.401 265.85,128.794C265.696,128.861 265.539,128.863 265.383,128.801C265.227,128.738 265.115,128.628 265.05,128.473C265.007,128.373 264.965,128.274 264.923,128.174C264.795,127.871 264.932,127.522 265.23,127.386C265.87,127.094 266.554,126.699 267.278,126.197C268.213,125.551 268.843,125.074 268.843,125.074C269.468,124.539 270.233,124.115 271.137,123.798C271.296,123.742 271.453,123.751 271.605,123.826C271.756,123.901 271.86,124.019 271.913,124.179C271.948,124.283 271.982,124.386 272.017,124.49C272.121,124.805 271.954,125.146 271.64,125.256" style="fill:none;stroke:rgb(0,0,255);stroke-width:0.01px;"/>
        <path d="M123.823,102.727C123.823,100.648 123.823,98.568 123.823,96.489C123.823,96.351 123.859,96.232 123.935,96.118C125.823,93.294 127.71,90.471 129.597,87.648C129.738,87.438 129.75,87.185 129.631,86.962C129.512,86.739 129.295,86.609 129.042,86.609C128.678,86.609 128.315,86.609 127.951,86.609C127.719,86.609 127.52,86.717 127.393,86.912C126.356,88.498 125.318,90.084 124.281,91.67C123.884,92.286 123.505,92.902 123.143,93.52C123.02,93.728 122.813,93.848 122.571,93.849C122.33,93.851 122.121,93.735 121.996,93.528C121.623,92.912 121.208,92.25 120.744,91.546C119.726,90 118.708,88.455 117.69,86.91C117.563,86.717 117.363,86.609 117.132,86.609C116.814,86.609 116.497,86.609 116.179,86.609C115.924,86.609 115.706,86.742 115.587,86.968C115.47,87.193 115.485,87.448 115.63,87.657C117.581,90.476 119.533,93.295 121.485,96.115C121.566,96.231 121.604,96.353 121.604,96.495C121.604,98.572 121.604,100.65 121.604,102.727C121.604,103.095 121.904,103.395 122.271,103.395C122.566,103.395 122.861,103.395 123.156,103.395C123.524,103.395 123.823,103.095 123.823,102.727" style="fill:none;stroke:rgb(0,0,255);stroke-width:0.01px;"/>
        <path d="M148.73,102.727C148.73,98.238 148.73,93.748 148.73,89.258C148.73,88.891 149.031,88.591 149.398,88.591C150.797,88.591 152.195,88.591 153.593,88.591C153.961,88.591 154.261,88.291 154.261,87.923C154.261,87.708 154.261,87.492 154.261,87.277C154.261,86.91 153.961,86.609 153.593,86.609C149.604,86.609 145.614,86.609 141.625,86.609C141.257,86.609 140.957,86.91 140.957,87.277C140.957,87.492 140.957,87.708 140.957,87.923C140.957,88.291 141.257,88.591 141.625,88.591C143.031,88.591 144.437,88.591 145.844,88.591C146.211,88.591 146.511,88.891 146.511,89.258C146.511,93.748 146.511,98.238 146.511,102.727C146.511,103.095 146.811,103.395 147.178,103.395C147.473,103.395 147.768,103.395 148.063,103.395C148.431,103.395 148.73,103.095 148.73,102.727" style="fill:none;stroke:rgb(0,0,255);stroke-width:0.01px;"/>
        <path d="M179.22,102.727C179.22,97.577 179.22,92.427 179.22,87.277C179.22,86.91 178.92,86.609 178.553,86.609C178.135,86.609 177.716,86.609 177.298,86.609C177.068,86.609 176.871,86.715 176.742,86.906C174.277,90.591 171.812,94.276 169.347,97.96C169.181,98.208 168.884,98.314 168.598,98.228C168.312,98.14 168.125,97.887 168.125,97.589C168.125,94.152 168.125,90.714 168.125,87.277C168.125,86.91 167.825,86.609 167.458,86.609C167.193,86.609 166.927,86.609 166.662,86.609C166.295,86.609 165.995,86.91 165.995,87.277C165.995,92.427 165.995,97.577 165.995,102.727C165.995,103.095 166.295,103.395 166.662,103.395C167.08,103.395 167.498,103.395 167.916,103.395C168.146,103.395 168.344,103.289 168.472,103.098C170.937,99.41 173.402,95.722 175.868,92.034C176.034,91.785 176.331,91.679 176.617,91.766C176.903,91.852 177.091,92.106 177.091,92.405C177.091,95.846 177.091,99.286 177.091,102.727C177.091,103.095 177.39,103.395 177.758,103.395C178.023,103.395 178.288,103.395 178.553,103.395C178.92,103.395 179.22,103.095 179.22,102.727" style="fill:none;stroke:rgb(0,0,255);stroke-width:0.01px;"/>
        <path d="M203.869,102.727C203.869,97.577 203.869,92.427 203.869,87.277C203.869,86.91 203.569,86.609 203.201,86.609C199.601,86.609 196.002,86.609 192.402,86.609C192.034,86.609 191.734,86.91 191.734,87.277C191.734,87.492 191.734,87.708 191.734,87.923C191.734,88.291 192.034,88.591 192.402,88.591C195.262,88.591 198.121,88.591 200.981,88.591C201.349,88.591 201.65,88.891 201.65,89.258C201.65,90.527 201.65,91.795 201.65,93.063C201.65,93.43 201.349,93.73 200.981,93.73C198.331,93.73 195.681,93.73 193.031,93.73C192.663,93.73 192.363,94.03 192.363,94.398C192.363,94.609 192.363,94.821 192.363,95.032C192.363,95.4 192.663,95.699 193.031,95.699C195.681,95.699 198.331,95.699 200.981,95.699C201.349,95.699 201.65,96 201.65,96.367C201.65,97.826 201.65,99.286 201.65,100.746C201.65,101.113 201.349,101.413 200.981,101.413C197.991,101.413 195.001,101.413 192.011,101.413C191.644,101.413 191.343,101.713 191.343,102.081C191.343,102.296 191.343,102.512 191.343,102.727C191.343,103.095 191.644,103.395 192.011,103.395C195.741,103.395 199.471,103.395 203.201,103.395C203.569,103.395 203.869,103.095 203.869,102.727" style="fill:none;stroke:rgb(0,0,255);stroke-width:0.01px;"/>
        <path d="M229.069,102.899C230.436,97.749 231.803,92.598 233.17,87.448C233.225,87.241 233.185,87.039 233.054,86.87C232.924,86.699 232.739,86.609 232.524,86.609C232.231,86.609 231.938,86.609 231.645,86.609C231.331,86.609 231.065,86.82 230.995,87.126C230.183,90.621 229.371,94.116 228.559,97.611C228.519,97.779 228.48,97.947 228.441,98.116C228.371,98.421 228.11,98.632 227.798,98.635C227.487,98.638 227.221,98.436 227.143,98.134C227.122,98.051 227.105,97.987 227.094,97.943C226.074,94.327 225.056,90.712 224.037,87.096C223.954,86.803 223.697,86.609 223.394,86.609C222.838,86.609 222.281,86.609 221.724,86.609C221.421,86.609 221.164,86.803 221.082,87.096C220.326,89.766 219.571,92.436 218.816,95.106C218.543,96.061 218.305,96.991 218.1,97.894C218.031,98.2 217.769,98.411 217.455,98.414C217.142,98.416 216.876,98.211 216.801,97.906C216.76,97.738 216.716,97.568 216.674,97.395C215.839,93.97 215.004,90.545 214.168,87.12C214.095,86.816 213.831,86.609 213.519,86.609C213.241,86.609 212.962,86.609 212.684,86.609C212.468,86.609 212.283,86.701 212.153,86.872C212.023,87.044 211.983,87.245 212.04,87.453C213.452,92.603 214.865,97.753 216.277,102.904C216.357,103.198 216.616,103.395 216.921,103.395C217.296,103.395 217.671,103.395 218.045,103.395C218.35,103.395 218.607,103.199 218.689,102.906C219.779,98.967 220.868,95.028 221.957,91.089C222.039,90.796 222.295,90.6 222.6,90.599C222.905,90.598 223.163,90.794 223.245,91.088C224.341,95.027 225.438,98.967 226.535,102.906C226.617,103.199 226.874,103.395 227.178,103.395C227.594,103.395 228.009,103.395 228.424,103.395C228.731,103.395 228.99,103.195 229.069,102.899" style="fill:none;stroke:rgb(0,0,255);stroke-width:0.01px;"/>
        <path d="M248.724,102.727C248.724,98.238 248.724,93.748 248.724,89.258C248.724,88.891 249.024,88.591 249.392,88.591C250.79,88.591 252.189,88.591 253.587,88.591C253.954,88.591 254.254,88.291 254.254,87.923C254.254,87.708 254.254,87.492 254.254,87.277C254.254,86.91 253.954,86.609 253.587,86.609C249.597,86.609 245.608,86.609 241.618,86.609C241.25,86.609 240.951,86.91 240.951,87.277C240.951,87.492 240.951,87.708 240.951,87.923C240.951,88.291 241.25,88.59 241.618,88.591C243.024,88.591 244.43,88.591 245.837,88.591C246.205,88.591 246.504,88.891 246.504,89.258C246.504,93.748 246.504,98.238 246.504,102.727C246.504,103.095 246.805,103.395 247.172,103.395C247.467,103.395 247.762,103.395 248.056,103.395C248.424,103.395 248.724,103.095 248.724,102.727" style="fill:none;stroke:rgb(0,0,255);stroke-width:0.01px;"/>
        <path d="M273.646,96.501L271.86,96.501L271.832,96.571L271.144,98.311L274.278,98.311L273.646,96.501Z" style="fill:none;stroke:rgb(0,0,255);stroke-width:0.01px;"/>
        <path d="M222.056,161.605C221.779,161.605 221.543,161.763 221.439,162.02C219.33,167.17 217.222,172.32 215.114,177.47C215.027,177.682 215.051,177.904 215.178,178.094C215.305,178.285 215.503,178.39 215.732,178.39C216.245,178.39 216.757,178.39 217.27,178.39C217.902,176.748 218.534,175.106 219.167,173.465C219.387,172.88 219.608,172.296 219.829,171.711C220.395,170.211 220.962,168.711 221.528,167.21C221.712,166.724 221.879,166.268 222.029,165.843C222.141,165.528 222.309,165.415 222.643,165.428C222.695,165.428 222.746,165.428 222.798,165.428C223.132,165.415 223.3,165.528 223.411,165.843C223.562,166.268 223.729,166.724 223.913,167.21C224.479,168.711 225.046,170.211 225.612,171.711C225.833,172.296 226.054,172.88 226.275,173.465C226.907,175.106 227.539,176.748 228.171,178.39C228.684,178.39 229.197,178.39 229.709,178.39C229.939,178.39 230.136,178.285 230.263,178.094C230.39,177.904 230.414,177.682 230.327,177.47C228.219,172.32 226.111,167.17 224.003,162.02C223.898,161.763 223.662,161.605 223.385,161.605L222.056,161.605" style="fill:none;stroke:rgb(0,0,255);stroke-width:0.01px;"/>
        <path d="M223.649,121.499L221.864,121.499L221.836,121.571L221.147,123.309L224.281,123.309L223.649,121.499Z" style="fill:none;stroke:rgb(0,0,255);stroke-width:0.01px;"/>
        <g id="_178792848">
            <g id="_236366152" transform="matrix(-9.90295e-15,-0.373914,-0.373914,9.90295e-15,111.335,73.6682)">
                <circle cx="0" cy="0" r="11.553" style="fill:none;stroke:rgb(0,0,255);stroke-width:0.03px;"/>
            </g>
            <g>
                <g>
                    <path id="_179029536" d="M138.335,78.168L138.335,69.168L120.335,69.168L120.335,78.168" style="fill:none;stroke:rgb(0,0,255);stroke-width:0.01px;"/>
                    <path id="_242593344" d="M102.335,78.168L102.335,69.168L84.335,69.168L84.335,78.168" style="fill:none;stroke:rgb(0,0,255);stroke-width:0.01px;"/>
                </g>
                <path id="_254777480" d="M138.335,78.168L120.335,78.168" style="fill:none;stroke:rgb(0,0,255);stroke-width:0.01px;"/>
                <path id="_185666432" d="M102.335,78.168L84.335,78.168" style="fill:none;stroke:rgb(0,0,255);stroke-width:0.01px;"/>
            </g>
        </g>
        <rect x="66.335" y="63.768" width="237.6" height="237.6" style="fill:none;stroke:rgb(0,0,255);stroke-width:0.01px;"/>
        <g id="_173608064">
            <g id="_186249800" transform="matrix(-9.90295e-15,-0.373914,-0.373914,9.90295e-15,258.935,73.6682)">
                <circle cx="0" cy="0" r="11.553" style="fill:none;stroke:rgb(0,0,255);stroke-width:0.03px;"/>
            </g>
            <g>
                <g>
                    <path id="_184008960" d="M285.935,78.168L285.935,69.168L267.935,69.168L267.935,78.168" style="fill:none;stroke:rgb(0,0,255);stroke-width:0.01px;"/>
                    <path id="_174939752" d="M249.935,78.168L249.935,69.168L231.935,69.168L231.935,78.168" style="fill:none;stroke:rgb(0,0,255);stroke-width:0.01px;"/>
                </g>
                <path id="_181879312" d="M285.935,78.168L267.935,78.168" style="fill:none;stroke:rgb(0,0,255);stroke-width:0.01px;"/>
                <path id="_178623760" d="M249.935,78.168L231.935,78.168" style="fill:none;stroke:rgb(0,0,255);stroke-width:0.01px;"/>
            </g>
        </g>
        <g id="_81032008">
            <g id="_183769056" transform="matrix(-9.90295e-15,-0.373914,-0.373914,9.90295e-15,111.335,291.468)">
                <circle cx="0" cy="0" r="11.553" style="fill:none;stroke:rgb(0,0,255);stroke-width:0.03px;"/>
            </g>
            <g>
                <g>
                    <path id="_245551320" d="M138.335,295.968L138.335,286.968L120.335,286.968L120.335,295.968" style="fill:none;stroke:rgb(0,0,255);stroke-width:0.01px;"/>
                    <path id="_81208936" d="M102.335,295.968L102.335,286.968L84.335,286.968L84.335,295.968" style="fill:none;stroke:rgb(0,0,255);stroke-width:0.01px;"/>
                </g>
                <path id="_80013632" d="M138.335,295.968L120.335,295.968" style="fill:none;stroke:rgb(0,0,255);stroke-width:0.01px;"/>
                <path id="_185927664" d="M102.335,295.968L84.335,295.968" style="fill:none;stroke:rgb(0,0,255);stroke-width:0.01px;"/>
            </g>
        </g>
        <g id="_78886544">
            <g id="_82563128" transform="matrix(-9.90295e-15,-0.373914,-0.373914,9.90295e-15,258.935,291.468)">
                <circle cx="0" cy="0" r="11.553" style="fill:none;stroke:rgb(0,0,255);stroke-width:0.03px;"/>
            </g>
            <g>
                <g>
                    <path id="_239001976" d="M285.935,295.968L285.935,286.968L267.935,286.968L267.935,295.968" style="fill:none;stroke:rgb(0,0,255);stroke-width:0.01px;"/>
                    <path id="_184131688" d="M249.935,295.968L249.935,286.968L231.935,286.968L231.935,295.968" style="fill:none;stroke:rgb(0,0,255);stroke-width:0.01px;"/>
                </g>
                <path id="_250499504" d="M285.935,295.968L267.935,295.968" style="fill:none;stroke:rgb(0,0,255);stroke-width:0.01px;"/>
                <path id="_248478144" d="M249.935,295.968L231.935,295.968" style="fill:none;stroke:rgb(0,0,255);stroke-width:0.01px;"/>
            </g>
        </g>
        <path d="M146.229,162.182C146.234,162.407 146.24,162.632 146.245,162.857C146.245,163.187 146.126,163.35 145.812,163.45C145.383,163.588 144.974,163.778 144.586,164.021C143.7,164.584 143.023,165.373 142.562,166.393C142.101,167.413 141.866,168.606 141.866,169.97C141.866,172.131 142.411,173.8 143.489,174.976C144.155,175.702 144.936,176.206 145.83,176.484C146.148,176.582 146.269,176.746 146.269,177.079C146.269,177.308 146.269,177.537 146.269,177.766C146.269,178.173 145.885,178.471 145.491,178.37C144.816,178.198 144.156,177.943 143.527,177.602C142.265,176.918 141.296,175.894 140.608,174.55C139.92,173.209 139.58,171.686 139.58,169.981C139.58,168.304 139.905,166.8 140.557,165.479C141.21,164.155 142.159,163.12 143.402,162.38C144.043,161.998 144.728,161.715 145.453,161.531C145.867,161.425 146.261,161.757 146.229,162.182M149.681,161.502C151.122,161.841 152.359,162.552 153.388,163.634C154.885,165.21 155.631,167.39 155.631,170.177C155.631,171.65 155.31,173.049 154.67,174.366C154.028,175.687 153.086,176.728 151.841,177.492C151.18,177.897 150.471,178.196 149.715,178.388C149.321,178.487 148.939,178.189 148.939,177.783C148.939,177.54 148.939,177.298 148.939,177.055C148.939,176.687 149.077,176.518 149.438,176.444C150.3,176.182 151.055,175.691 151.711,174.992C152.797,173.827 153.34,172.236 153.34,170.212C153.34,167.688 152.773,165.883 151.64,164.803C150.96,164.154 150.197,163.7 149.354,163.44C149.035,163.341 148.915,163.178 148.914,162.844C148.914,162.599 148.914,162.355 148.914,162.109C148.914,161.707 149.289,161.41 149.681,161.502" style="fill:none;stroke:rgb(0,0,255);stroke-width:0.01px;"/>
    </g>
</svg>
