<?xml version="1.0" encoding="utf-8"?>
<!-- Generator: Adobe Illustrator 23.0.2, SVG Export Plug-In . SVG Version: 6.00 Build 0)  -->
<svg version="1.1" id="Layer_1" xmlns="http://www.w3.org/2000/svg" xmlns:xlink="http://www.w3.org/1999/xlink" x="0px" y="0px"
	 viewBox="0 0 360 360" style="enable-background:new 0 0 360 360;" xml:space="preserve">
<style type="text/css">
	.st0{fill:none;stroke:#0000FF;stroke-width:1.000000e-02;stroke-linecap:round;stroke-linejoin:round;}
</style>
<g id="Layer_x0020_1">
	<path class="st0" d="M229.6,228c0.1-0.2,0.1-0.5-0.1-0.7c-1.8-2.4-3.6-4.9-5.4-7.3c-0.2-0.2-0.2-0.5,0-0.8c1.6-2.2,3.1-4.4,4.7-6.6
		c0.1-0.2,0.2-0.5,0-0.7c-0.1-0.2-0.3-0.4-0.6-0.4c-0.3,0-0.7,0-1,0c-0.2,0-0.4,0.1-0.5,0.3c-0.9,1.3-1.9,2.7-2.8,4
		c-0.3,0.4-0.6,0.8-0.8,1.2c-0.1,0.2-0.3,0.3-0.6,0.3c-0.2,0-0.4-0.1-0.6-0.3c-0.2-0.3-0.5-0.7-0.8-1c-1.1-1.4-2.1-2.8-3.2-4.2
		c-0.1-0.2-0.3-0.3-0.5-0.3c-0.3,0-0.5,0-0.8,0c-0.3,0-0.5,0.1-0.6,0.4c-0.1,0.2-0.1,0.5,0.1,0.7c1.6,2.2,3.2,4.3,4.8,6.5
		c0.2,0.2,0.2,0.5,0,0.8c-1.8,2.5-3.5,4.9-5.3,7.4c-0.1,0.2-0.2,0.5-0.1,0.7c0.1,0.2,0.3,0.4,0.6,0.4c0.4,0,0.7,0,1.1,0
		c0.2,0,0.4-0.1,0.5-0.3c1.3-1.9,2.7-3.8,4-5.7c0.1-0.1,0.1-0.2,0.2-0.3c0.1-0.2,0.3-0.3,0.6-0.3c0.2,0,0.4,0.1,0.6,0.3
		c0.1,0.2,0.2,0.3,0.2,0.4c0,0,0,0,0,0c1.3,1.9,2.7,3.7,4,5.6c0.1,0.2,0.3,0.3,0.5,0.3c0.3,0,0.7,0,1,0
		C229.2,228.4,229.5,228.3,229.6,228"/>
	<path class="st0" d="M123.7,171c-0.3,0.1-0.7,0.2-1,0.5c-0.3,0.2-0.7,0.6-1.1,1.1c-0.4,0.5-1,1.3-1.6,2.3c-0.7,1.1-1.3,2.1-2,3.2
		c-0.1,0.2-0.3,0.3-0.6,0.3c-0.4,0-0.8,0-1.2,0c-0.3,0-0.5-0.1-0.6-0.3c-0.1-0.2-0.1-0.5,0-0.7c0.8-1.2,1.5-2.4,2.3-3.5
		c0.6-0.9,1.2-1.6,1.8-2.2c0,0,0,0,0,0c0.2-0.2,0.3-0.4,0.2-0.6c0-0.2-0.2-0.4-0.4-0.5c-0.9-0.3-1.5-0.7-2-1.2
		c-0.8-0.8-1.2-1.8-1.2-3c0-0.9,0.2-1.8,0.7-2.5c0.5-0.8,1.1-1.3,1.9-1.6c0.8-0.3,1.9-0.5,3.4-0.5c2.3,0,4.5,0,6.8,0
		c0.4,0,0.7,0.3,0.7,0.7c0,5.1,0,10.3,0,15.5c0,0.4-0.3,0.7-0.7,0.7c-0.3,0-0.6,0-0.9,0c-0.4,0-0.7-0.3-0.7-0.7c0-2.3,0-4.5,0-6.8
		c0-0.6,0-1.3,0-1.9c0-1.6,0-3.3,0-4.9c0-0.4-0.2-0.6-0.6-0.6c-1.6,0-3.1,0-4.7,0c-1.2,0-2.2,0.3-2.7,0.8c-0.6,0.5-0.9,1.2-0.9,2
		c0,0.5,0.1,1,0.4,1.5c0.3,0.5,0.7,0.8,1.3,1c0.6,0.2,1.4,0.3,2.4,0.3c0.3,0,0.5,0,0.8,0c0.4,0,0.6,0.2,0.6,0.6c0,0.3,0,0.5,0,0.8
		C124.2,170.8,124,170.9,123.7,171"/>
	<path class="st0" d="M148.7,221c-0.3,0.1-0.7,0.2-1,0.5c-0.3,0.2-0.7,0.6-1.1,1.1c-0.4,0.5-1,1.3-1.6,2.3c-0.7,1.1-1.3,2.1-2,3.2
		c-0.1,0.2-0.3,0.3-0.6,0.3c-0.4,0-0.8,0-1.2,0c-0.3,0-0.5-0.1-0.6-0.3c-0.1-0.2-0.1-0.5,0-0.7c0.8-1.2,1.5-2.4,2.3-3.5
		c0.6-0.9,1.2-1.6,1.8-2.2c0,0,0,0,0,0c0.2-0.2,0.3-0.4,0.2-0.6c0-0.2-0.2-0.4-0.4-0.5c-0.9-0.3-1.5-0.7-2-1.2
		c-0.8-0.8-1.2-1.8-1.2-3c0-0.9,0.2-1.8,0.7-2.5c0.5-0.8,1.1-1.3,1.9-1.6c0.8-0.3,1.9-0.5,3.4-0.5c2.3,0,4.5,0,6.8,0
		c0.4,0,0.7,0.3,0.7,0.7c0,5.2,0,10.3,0,15.5c0,0.4-0.3,0.7-0.7,0.7c-0.3,0-0.6,0-0.9,0c-0.4,0-0.7-0.3-0.7-0.7c0-2.3,0-4.5,0-6.8
		c0-0.6,0-1.3,0-1.9c0-1.6,0-3.3,0-4.9c0-0.4-0.2-0.6-0.6-0.6c-1.6,0-3.1,0-4.7,0c-1.2,0-2.2,0.3-2.7,0.8c-0.6,0.5-0.9,1.2-0.9,2
		c0,0.5,0.1,1,0.4,1.5c0.3,0.5,0.7,0.8,1.3,1c0.6,0.2,1.4,0.3,2.4,0.3c0.3,0,0.5,0,0.8,0c0.4,0,0.6,0.2,0.6,0.6c0,0.3,0,0.5,0,0.8
		C149.2,220.8,149,220.9,148.7,221"/>
	<path class="st0" d="M198.7,271c-0.3,0.1-0.7,0.2-1,0.5c-0.3,0.2-0.7,0.6-1.1,1.1c-0.4,0.5-1,1.3-1.6,2.3c-0.7,1.1-1.3,2.1-2,3.2
		c-0.1,0.2-0.3,0.3-0.6,0.3c-0.4,0-0.8,0-1.2,0c-0.3,0-0.5-0.1-0.6-0.3c-0.1-0.2-0.1-0.5,0-0.7c0.8-1.2,1.5-2.4,2.3-3.5
		c0.6-0.9,1.2-1.6,1.8-2.2c0,0,0,0,0,0c0.2-0.2,0.3-0.4,0.2-0.6c0-0.2-0.2-0.4-0.4-0.5c-0.9-0.3-1.5-0.7-2-1.2
		c-0.8-0.8-1.2-1.8-1.2-3c0-0.9,0.2-1.8,0.7-2.5c0.5-0.8,1.1-1.3,1.9-1.6c0.8-0.3,1.9-0.5,3.4-0.5c2.3,0,4.5,0,6.8,0
		c0.4,0,0.7,0.3,0.7,0.7c0,5.1,0,10.3,0,15.5c0,0.4-0.3,0.7-0.7,0.7c-0.3,0-0.6,0-0.9,0c-0.4,0-0.7-0.3-0.7-0.7c0-2.3,0-4.5,0-6.8
		c0-0.6,0-1.3,0-1.9c0-1.6,0-3.3,0-4.9c0-0.4-0.2-0.6-0.6-0.6c-1.6,0-3.1,0-4.7,0c-1.2,0-2.2,0.3-2.7,0.8c-0.6,0.5-0.9,1.2-0.9,2
		c0,0.5,0.1,1,0.4,1.5c0.3,0.5,0.7,0.8,1.3,1c0.6,0.2,1.4,0.3,2.4,0.3c0.3,0,0.5,0,0.8-0.1c0.4,0,0.6,0.2,0.6,0.6c0,0.3,0,0.6,0,0.8
		C199.2,270.8,199,270.9,198.7,271"/>
	<path class="st0" d="M273.2,126.5c1.4-0.2,2.6-0.8,3.6-1.9c1.1-1.2,1.6-2.8,1.6-5c0-2.3-0.5-3.9-1.6-5.1c-1.1-1.1-2.5-1.7-4.1-1.7
		c-1.1,0-2.1,0.3-3,0.8c-0.9,0.6-1.6,1.4-2,2.4c-0.5,1-0.7,2.2-0.7,3.6c0,1.3,0.2,2.5,0.6,3.5c0.1,0.3,0.1,0.5-0.2,0.7
		c-0.2,0.1-0.5,0.3-0.8,0.6c-0.3,0.2-0.7,0.1-0.9-0.2c-0.1-0.3-0.3-0.5-0.4-0.8c-0.4-1.1-0.6-2.3-0.6-3.7c0-1.7,0.3-3.2,1-4.5
		c0.7-1.3,1.6-2.4,2.8-3.1c1.2-0.7,2.6-1.1,4.2-1.1c1.5,0,2.9,0.4,4.2,1.1c1.2,0.7,2.2,1.7,2.9,3.1c0.7,1.4,1,2.9,1,4.5
		c0,1.7-0.3,3.2-1,4.5c-0.7,1.3-1.6,2.4-2.9,3.1c-1.2,0.7-2.6,1.1-4.1,1c-0.6,0.1-0.9-0.8-0.4-1.1c0.2-0.1,0.4-0.3,0.6-0.4
		C273,126.5,273.1,126.5,273.2,126.5"/>
	<path class="st0" d="M198.7,121c-0.3,0.1-0.7,0.2-1,0.5c-0.3,0.2-0.7,0.6-1.1,1.1c-0.4,0.5-1,1.3-1.6,2.3c-0.7,1.1-1.3,2.1-2,3.2
		c-0.1,0.2-0.3,0.3-0.6,0.3c-0.4,0-0.8,0-1.2,0c-0.3,0-0.5-0.1-0.6-0.3c-0.1-0.2-0.1-0.5,0-0.7c0.8-1.2,1.5-2.4,2.3-3.5
		c0.6-0.9,1.2-1.6,1.8-2.2c0,0,0,0,0,0c0.2-0.2,0.3-0.4,0.2-0.6c0-0.2-0.2-0.4-0.4-0.5c-0.9-0.3-1.5-0.7-2-1.2
		c-0.8-0.8-1.2-1.8-1.2-3c0-0.9,0.2-1.8,0.7-2.5c0.5-0.8,1.1-1.3,1.9-1.6c0.8-0.3,1.9-0.5,3.4-0.5c2.3,0,4.5,0,6.8,0
		c0.4,0,0.7,0.3,0.7,0.7c0,5.2,0,10.3,0,15.5c0,0.4-0.3,0.7-0.7,0.7c-0.3,0-0.6,0-0.9,0c-0.4,0-0.7-0.3-0.7-0.7c0-2.3,0-4.5,0-6.8
		c0-0.6,0-1.3,0-1.9c0-1.6,0-3.3,0-4.9c0-0.4-0.2-0.6-0.6-0.6c-1.6,0-3.1,0-4.7,0c-1.2,0-2.2,0.3-2.7,0.8c-0.6,0.5-0.9,1.2-0.9,2
		c0,0.5,0.1,1,0.4,1.5c0.3,0.5,0.7,0.8,1.3,1c0.6,0.2,1.4,0.3,2.4,0.3c0.3,0,0.5,0,0.8,0c0.4,0,0.6,0.2,0.6,0.6c0,0.2,0,0.5,0,0.7
		C199.2,120.8,199,120.9,198.7,121"/>
	<path class="st0" d="M123.7,121c-0.3,0.1-0.7,0.2-1,0.5c-0.3,0.2-0.7,0.6-1.1,1.1c-0.4,0.5-1,1.3-1.6,2.3c-0.7,1.1-1.3,2.1-2,3.2
		c-0.1,0.2-0.3,0.3-0.6,0.3c-0.4,0-0.8,0-1.2,0c-0.3,0-0.5-0.1-0.6-0.3c-0.1-0.2-0.1-0.5,0-0.7c0.8-1.2,1.5-2.4,2.3-3.5
		c0.6-0.9,1.2-1.6,1.8-2.2c0,0,0,0,0,0c0.2-0.2,0.3-0.4,0.2-0.6c0-0.2-0.2-0.4-0.4-0.5c-0.9-0.3-1.5-0.7-2-1.2
		c-0.8-0.8-1.2-1.8-1.2-3c0-0.9,0.2-1.8,0.7-2.5c0.5-0.8,1.1-1.3,1.9-1.6c0.8-0.3,1.9-0.5,3.4-0.5c2.3,0,4.5,0,6.8,0
		c0.4,0,0.7,0.3,0.7,0.7c0,5.2,0,10.3,0,15.5c0,0.4-0.3,0.7-0.7,0.7c-0.3,0-0.6,0-0.9,0c-0.4,0-0.7-0.3-0.7-0.7c0-2.3,0-4.5,0-6.8
		c0-0.6,0-1.3,0-1.9c0-1.6,0-3.3,0-4.9c0-0.4-0.2-0.6-0.6-0.6c-1.6,0-3.1,0-4.7,0c-1.2,0-2.2,0.3-2.7,0.8c-0.6,0.5-0.9,1.2-0.9,2
		c0,0.5,0.1,1,0.4,1.5c0.3,0.5,0.7,0.8,1.3,1c0.6,0.2,1.4,0.3,2.4,0.3c0.3,0,0.5,0.1,0.8,0.1c0.4,0,0.6,0.2,0.6,0.6
		c0,0.2,0,0.4,0,0.7C124.2,120.8,124,120.9,123.7,121"/>
	<path class="st0" d="M245.5,261.6c-0.7,0.2-1.4,0.5-2.1,0.9c-1.2,0.7-2.2,1.8-2.8,3.1c-0.7,1.3-1,2.8-1,4.5c0,1.7,0.3,3.2,1,4.6
		c0.7,1.3,1.7,2.4,2.9,3.1c0.6,0.3,1.3,0.6,2,0.8c0.4,0.1,0.8-0.2,0.8-0.6c0-0.2,0-0.5,0-0.7c0-0.3-0.1-0.5-0.4-0.6
		c-0.9-0.3-1.7-0.8-2.3-1.5c-1.1-1.2-1.6-2.8-1.6-5c0-1.4,0.2-2.6,0.7-3.6c0.5-1,1.1-1.8,2-2.4c0.4-0.2,0.8-0.4,1.2-0.6
		c0.3-0.1,0.4-0.3,0.4-0.6c0-0.2,0-0.5,0-0.7C246.2,261.8,245.9,261.5,245.5,261.6 M248.9,262.9c0-0.2,0-0.4,0-0.6
		c0-0.4,0.4-0.7,0.8-0.6c1.5,0.2,2.7,0.9,3.7,2c1.5,1.6,2.2,3.8,2.2,6.5c0,1.5-0.3,2.9-1,4.2c-0.6,1.3-1.6,2.4-2.8,3.1
		c-0.7,0.4-1.4,0.7-2.1,0.9c-0.4,0.1-0.8-0.2-0.8-0.6c0-0.2,0-0.5,0-0.7c0-0.3,0.1-0.5,0.4-0.6c0.9-0.3,1.7-0.8,2.3-1.5
		c1.1-1.2,1.6-2.8,1.6-4.8c0-2.5-0.6-4.3-1.7-5.4c-0.7-0.6-1.4-1.1-2.3-1.4C249,263.4,248.9,263.2,248.9,262.9"/>
	<path class="st0" d="M277.3,177.8c0-0.5,0-0.9,0-1.4c0-4.3,0-8.5,0-12.8c0-0.5,0-0.9,0-1.4c0-0.4,0.2-0.6,0.6-0.6
		c0.3,0,0.6,0,0.9,0c0.4,0,0.7,0.3,0.7,0.7c0,5.1,0,10.3,0,15.5c0,0.4-0.3,0.7-0.7,0.7c-0.3,0-0.6,0-0.9,0
		C277.5,178.4,277.3,178.2,277.3,177.8"/>
	<path class="st0" d="M274,161.6c-0.1,0-0.2,0-0.3,0c-1.3,0-2.3,0.1-3,0.2c-1,0.2-1.8,0.6-2.5,1.2c-0.9,0.8-1.5,1.7-2,2.9
		c-0.4,1.2-0.7,2.5-0.7,4c0,1.3,0.1,2.4,0.4,3.4c0.3,1,0.7,1.8,1.1,2.4c0.5,0.6,1,1.2,1.5,1.5c0.6,0.4,1.2,0.7,2,0.8
		c0.8,0.2,1.7,0.3,2.7,0.3c0.2,0,0.4,0,0.5,0c0.4,0,0.6-0.2,0.6-0.6c0-0.2,0-0.5,0-0.7c0-0.4-0.2-0.6-0.6-0.6c-0.1,0-0.2,0-0.3,0
		c-1.1,0-2-0.1-2.6-0.3c-0.6-0.2-1.1-0.5-1.5-0.9c-0.5-0.5-0.9-1.2-1.2-2.1c-0.3-0.9-0.4-2-0.4-3.2c0-1.8,0.3-3.1,0.9-4
		c0.6-0.9,1.3-1.6,2.1-1.9c0.6-0.2,1.6-0.3,2.9-0.3c0.1,0,0.2,0,0.2,0c0.4,0,0.6-0.2,0.6-0.6c0-0.2,0-0.5,0-0.7
		C274.6,161.8,274.5,161.6,274,161.6"/>
	<path class="st0" d="M251.8,177.8c0-2.1,0-4.1,0-6.2c0-0.7,0-1.3,0-2c0-2,0-4,0-6c0-0.5,0-0.9,0-1.4c0-0.4,0.2-0.6,0.6-0.6
		c0.3,0,0.6,0,1,0c0.4,0,0.6,0.2,0.6,0.6c0,5.2,0,10.4,0,15.5c0,0.4-0.2,0.6-0.6,0.6c-0.3,0-0.6,0-1,0
		C252,178.4,251.8,178.2,251.8,177.8"/>
	<path class="st0" d="M249.2,171.6c-0.6,0-1.1,0-1.7,0c-2.4,0-4-0.5-4.9-1.5c-0.9-1-1.4-2.2-1.4-3.6c0-0.8,0.2-1.6,0.5-2.3
		c0.3-0.7,0.8-1.2,1.3-1.6c0.6-0.4,1.3-0.6,2.1-0.8c0.6-0.1,1.4-0.2,2.6-0.2c0.5,0,1,0,1.5,0c0.4,0,0.6,0.2,0.6,0.6
		c0,0.3,0,0.5,0,0.8c0,0.4-0.2,0.6-0.6,0.6c-0.6,0-1.1,0-1.7-0.1c-1,0-1.7,0.1-2.1,0.1c-0.6,0.2-1,0.5-1.4,1
		c-0.4,0.5-0.5,1.1-0.5,1.8c0,1,0.3,1.7,0.9,2.3c0.6,0.5,1.6,0.8,3.1,0.8c0.6,0,1.1,0,1.7,0c0.4,0,0.6,0.2,0.6,0.6
		c0,0.2,0,0.5,0,0.7C249.8,171.4,249.6,171.6,249.2,171.6"/>
	<path class="st0" d="M96.2,162.2c0,0.2,0,0.4,0,0.7c0,0.3-0.1,0.5-0.4,0.6c-0.4,0.1-0.8,0.3-1.2,0.6c-0.9,0.6-1.6,1.4-2,2.4
		c-0.5,1-0.7,2.2-0.7,3.6c0,2.2,0.5,3.8,1.6,5c0.7,0.7,1.4,1.2,2.3,1.5c0.3,0.1,0.4,0.3,0.4,0.6c0,0.2,0,0.5,0,0.7
		c0,0.4-0.4,0.7-0.8,0.6c-0.7-0.2-1.3-0.4-2-0.8c-1.3-0.7-2.2-1.7-2.9-3.1c-0.7-1.3-1-2.9-1-4.6c0-1.7,0.3-3.2,1-4.5
		c0.7-1.3,1.6-2.4,2.8-3.1c0.6-0.4,1.3-0.7,2.1-0.8C95.9,161.5,96.3,161.8,96.2,162.2 M99.7,161.5c1.4,0.3,2.7,1.1,3.7,2.1
		c1.5,1.6,2.2,3.8,2.2,6.5c0,1.5-0.3,2.9-1,4.2c-0.6,1.3-1.6,2.4-2.8,3.1c-0.7,0.4-1.4,0.7-2.1,0.9c-0.4,0.1-0.8-0.2-0.8-0.6
		c0-0.2,0-0.5,0-0.7c0-0.4,0.1-0.5,0.5-0.6c0.9-0.3,1.6-0.8,2.3-1.5c1.1-1.2,1.6-2.8,1.6-4.8c0-2.5-0.6-4.3-1.7-5.4
		c-0.7-0.6-1.4-1.1-2.3-1.4c-0.3-0.1-0.4-0.3-0.4-0.6c0-0.2,0-0.5,0-0.7C98.9,161.8,99.3,161.5,99.7,161.5"/>
	<path class="st0" d="M99,103.4c-0.2,0-0.4,0-0.5,0c-1,0-1.9-0.1-2.7-0.3c-0.8-0.2-1.4-0.5-2-0.8c-0.6-0.4-1.1-0.9-1.5-1.5
		c-0.5-0.6-0.8-1.5-1.1-2.4c-0.3-1-0.4-2.1-0.4-3.4c0-1.5,0.2-2.8,0.7-4c0.4-1.2,1.1-2.1,2-2.9c0.7-0.6,1.5-1,2.5-1.2
		c0.7-0.2,1.7-0.2,3-0.2c0.1,0,0.2,0,0.3,0c0.4,0,0.6,0.2,0.6,0.6c0,0.3,0,0.5,0,0.8c0,0.4-0.2,0.6-0.6,0.6c-0.1,0-0.2,0-0.3,0
		c-1.3,0-2.3,0.1-2.9,0.3c-0.8,0.3-1.5,1-2.1,1.9c-0.6,0.9-0.9,2.3-0.9,4c0,1.3,0.1,2.3,0.4,3.2c0.3,0.9,0.7,1.6,1.2,2.1
		c0.4,0.4,0.9,0.7,1.5,0.9c0.6,0.2,1.5,0.3,2.6,0.3c0.1,0,0.2,0,0.3,0c0.4,0,0.6,0.2,0.6,0.6c0,0.2,0,0.5,0,0.7
		C99.7,103.2,99.5,103.4,99,103.4"/>
	<path class="st0" d="M102.3,102.8c0-0.5,0-0.9,0-1.4c0-4.3,0-8.5,0-12.8c0-0.5,0-0.9,0-1.4c0-0.4,0.2-0.6,0.6-0.6c0.3,0,0.6,0,1,0
		c0.4,0,0.7,0.3,0.7,0.7c0,5.1,0,10.3,0,15.5c0,0.4-0.3,0.7-0.7,0.7c-0.3,0-0.6,0-0.9,0C102.5,103.4,102.3,103.2,102.3,102.8"/>
	<path class="st0" d="M148.3,140.7c0.2,0.5,0.4,1,0.6,1.5c0.6,1.5,1.1,3,1.7,4.5c0.2,0.6,0.4,1.2,0.7,1.8c0.6,1.6,1.3,3.3,1.9,4.9
		c0.5,0,0.9,0,1.4,0c0.2,0,0.4-0.1,0.6-0.3c0.1-0.2,0.2-0.4,0.1-0.6c-2-5.1-4-10.3-5.9-15.5c-0.1-0.3-0.3-0.4-0.6-0.4
		c-0.5,0-1,0-1.5,0c-0.3,0-0.5,0.2-0.6,0.4c-2.1,5.1-4.2,10.3-6.3,15.4c-0.1,0.2-0.1,0.4,0.1,0.6c0.1,0.2,0.3,0.3,0.6,0.3
		c0.5,0,1,0,1.5,0c0.6-1.6,1.3-3.3,1.9-4.9c0.2-0.6,0.4-1.2,0.7-1.8c0.6-1.5,1.1-3,1.7-4.5c0.2-0.6,0.4-1.1,0.6-1.5
		C147.3,140.1,148.1,140.1,148.3,140.7"/>
	<path class="st0" d="M273.3,90.7c0.2,0.5,0.4,1,0.6,1.5c0.6,1.5,1.1,3,1.7,4.5c0.2,0.6,0.4,1.2,0.7,1.8c0.6,1.6,1.3,3.3,1.9,4.9
		c0.5,0,0.9,0,1.4,0c0.2,0,0.4-0.1,0.5-0.3c0.1-0.2,0.2-0.4,0.1-0.6c-2-5.1-4-10.3-5.9-15.4c-0.1-0.3-0.3-0.4-0.6-0.4
		c-0.5,0-1,0-1.5,0c-0.3,0-0.5,0.2-0.6,0.4c-2.1,5.1-4.2,10.3-6.3,15.5c-0.1,0.2-0.1,0.4,0.1,0.6c0.1,0.2,0.3,0.3,0.6,0.3
		c0.5,0,1,0,1.5,0c0.6-1.6,1.3-3.3,1.9-4.9c0.2-0.6,0.4-1.2,0.7-1.8c0.6-1.5,1.1-3,1.7-4.5c0.2-0.6,0.4-1.1,0.6-1.5
		C272.3,90.1,273.1,90.1,273.3,90.7"/>
	<polygon class="st0" points="223.6,171.5 221.9,171.5 221.8,171.6 221.1,173.3 224.3,173.3 	"/>
	<polygon class="st0" points="148.7,146.5 146.9,146.5 146.8,146.6 146.2,148.3 149.3,148.3 	"/>
	<path class="st0" d="M228.1,128.4c0.5,0,0.9,0,1.4,0c0.2,0,0.4-0.1,0.6-0.3c0.1-0.2,0.2-0.4,0.1-0.6c-2-5.1-4-10.3-5.9-15.4
		c-0.1-0.3-0.3-0.4-0.6-0.4c-0.5,0-1,0-1.5,0c-0.3,0-0.5,0.2-0.6,0.4c-2.1,5.1-4.2,10.3-6.3,15.4c-0.1,0.2-0.1,0.4,0.1,0.6
		c0.1,0.2,0.3,0.3,0.6,0.3c0.5,0,1,0,1.5,0c0.6-1.6,1.3-3.3,1.9-4.9c0.2-0.6,0.4-1.2,0.7-1.8c0.6-1.5,1.1-3,1.7-4.5
		c0.5-1.4,0.9-2.5,1.2-3.4c0.2,0.9,0.6,2,1.2,3.4c0.6,1.5,1.1,3,1.7,4.5c0.2,0.6,0.4,1.2,0.7,1.8
		C226.8,125.1,227.5,126.8,228.1,128.4"/>
	<path class="st0" d="M103.9,277.7c0-5.1,0-10.3,0-15.5c0-0.4-0.3-0.7-0.7-0.7c-3.6,0-7.2,0-10.8,0c-0.4,0-0.7,0.3-0.7,0.7
		c0,0.2,0,0.4,0,0.6c0,0.4,0.3,0.7,0.7,0.7c2.9,0,5.7,0,8.6,0c0.4,0,0.7,0.3,0.7,0.7c0,1.3,0,2.5,0,3.8c0,0.4-0.3,0.7-0.7,0.7
		c-2.7,0-5.3,0-8,0c-0.4,0-0.7,0.3-0.7,0.7c0,0.2,0,0.4,0,0.6c0,0.4,0.3,0.7,0.7,0.7c2.7,0,5.3,0,8,0c0.4,0,0.7,0.3,0.7,0.7
		c0,1.5,0,2.9,0,4.4c0,0.4-0.3,0.7-0.7,0.7c-3,0-6,0-9,0c-0.4,0-0.7,0.3-0.7,0.7c0,0.2,0,0.4,0,0.6c0,0.4,0.3,0.7,0.7,0.7
		c3.7,0,7.5,0,11.2,0C103.6,278.4,103.9,278.1,103.9,277.7"/>
	<path class="st0" d="M129.2,277.7c0-5.1,0-10.3,0-15.5c0-0.4-0.3-0.7-0.7-0.7c-0.4,0-0.8,0-1.3,0c-0.2,0-0.4,0.1-0.6,0.3
		c-2.5,3.7-4.9,7.4-7.4,11.1c-0.2,0.2-0.5,0.4-0.7,0.3c-0.3-0.1-0.5-0.3-0.5-0.6c0-3.4,0-6.9,0-10.3c0-0.4-0.3-0.7-0.7-0.7
		c-0.3,0-0.5,0-0.8,0c-0.4,0-0.7,0.3-0.7,0.7c0,5.2,0,10.3,0,15.5c0,0.4,0.3,0.7,0.7,0.7c0.4,0,0.8,0,1.3,0c0.2,0,0.4-0.1,0.6-0.3
		c2.5-3.7,4.9-7.4,7.4-11.1c0.2-0.2,0.5-0.4,0.7-0.3c0.3,0.1,0.5,0.3,0.5,0.6c0,3.4,0,6.9,0,10.3c0,0.4,0.3,0.7,0.7,0.7
		c0.3,0,0.5,0,0.8,0C128.9,278.4,129.2,278.1,129.2,277.7"/>
	<path class="st0" d="M148.7,277.7c0-5.1,0-10.3,0-15.5c0-0.4-0.3-0.7-0.7-0.7c-0.3,0-0.6,0-0.9,0c-0.4,0-0.7,0.3-0.7,0.7
		c0,5.2,0,10.3,0,15.5c0,0.4,0.3,0.7,0.7,0.7c0.3,0,0.6,0,0.9,0C148.4,278.4,148.7,278.1,148.7,277.7"/>
	<path class="st0" d="M179.2,277.7c0-5.1,0-10.3,0-15.5c0-0.4-0.3-0.7-0.7-0.7c-0.4,0-0.8,0-1.3,0c-0.2,0-0.4,0.1-0.6,0.3
		c-2.5,3.7-4.9,7.4-7.4,11.1c-0.2,0.2-0.5,0.4-0.7,0.3c-0.3-0.1-0.5-0.3-0.5-0.6c0-3.4,0-6.9,0-10.3c0-0.4-0.3-0.7-0.7-0.7
		c-0.3,0-0.5,0-0.8,0c-0.4,0-0.7,0.3-0.7,0.7c0,5.2,0,10.3,0,15.5c0,0.4,0.3,0.7,0.7,0.7c0.4,0,0.8,0,1.3,0c0.2,0,0.4-0.1,0.6-0.3
		c2.5-3.7,4.9-7.4,7.4-11.1c0.2-0.2,0.5-0.4,0.7-0.3c0.3,0.1,0.5,0.3,0.5,0.6c0,3.4,0,6.9,0,10.3c0,0.4,0.3,0.7,0.7,0.7
		c0.3,0,0.5,0,0.8,0C178.9,278.4,179.2,278.1,179.2,277.7"/>
	<path class="st0" d="M217.6,261.5c-0.3,0-0.6,0-0.9,0c-0.4,0-0.7,0.3-0.7,0.7c0,3,0,6,0,9c0,1.7,0.2,3,0.6,4c0.4,1,1.1,1.8,2.1,2.4
		c1,0.6,2.3,0.9,3.9,0.9c1.6,0,2.9-0.3,3.9-0.8c1-0.5,1.7-1.3,2.1-2.4c0.4-1,0.6-2.4,0.6-4.2c0-3,0-6,0-9c0-0.4-0.3-0.7-0.7-0.7
		c-0.3,0-0.6,0-0.9,0c-0.4,0-0.7,0.3-0.7,0.7c0,3,0,6,0,9c0,1.5-0.1,2.5-0.4,3.2c-0.3,0.7-0.7,1.2-1.4,1.6c-0.7,0.4-1.5,0.6-2.4,0.6
		c-1.6,0-2.8-0.4-3.5-1.1c-0.7-0.7-1-2.2-1-4.3c0-3,0-6,0-9C218.2,261.8,217.9,261.5,217.6,261.5"/>
	<path class="st0" d="M278.3,277.7c0-5.1,0-10.3,0-15.5c0-0.4-0.3-0.7-0.7-0.7c-3.3,0-6.7,0-10,0c-0.4,0-0.7,0.3-0.7,0.7
		c0,0.2,0,0.4,0,0.6c0,0.4,0.3,0.7,0.7,0.7c2.6,0,5.2,0,7.8,0c0.4,0,0.7,0.3,0.7,0.7c0,1.3,0,2.6,0,3.9c0,0.4-0.3,0.7-0.7,0.7
		c-2.2,0-4.4,0-6.5,0c-0.4,0-0.7,0.3-0.7,0.7c0,0.2,0,0.4,0,0.6c0,0.4,0.3,0.7,0.7,0.7c2.2,0,4.4,0,6.5,0c0.4,0,0.7,0.3,0.7,0.7
		c0,2.1,0,4.2,0,6.3c0,0.4,0.3,0.7,0.7,0.7c0.3,0,0.6,0,0.9,0C278,278.4,278.3,278.1,278.3,277.7"/>
	<path class="st0" d="M104.2,252.7c0-5.1,0-10.3,0-15.5c0-0.4-0.3-0.7-0.7-0.7c-0.4,0-0.8,0-1.3,0c-0.2,0-0.4,0.1-0.6,0.3
		c-2.5,3.7-4.9,7.4-7.4,11.1c-0.2,0.2-0.5,0.4-0.7,0.3c-0.3-0.1-0.5-0.3-0.5-0.6c0-3.4,0-6.9,0-10.3c0-0.4-0.3-0.7-0.7-0.7
		c-0.3,0-0.5,0-0.8,0c-0.4,0-0.7,0.3-0.7,0.7c0,5.2,0,10.3,0,15.5c0,0.4,0.3,0.7,0.7,0.7c0.4,0,0.8,0,1.3,0c0.2,0,0.4-0.1,0.6-0.3
		c2.5-3.7,4.9-7.4,7.4-11.1c0.2-0.2,0.5-0.4,0.7-0.3c0.3,0.1,0.5,0.3,0.5,0.6c0,3.4,0,6.9,0,10.3c0,0.4,0.3,0.7,0.7,0.7
		c0.3,0,0.5,0,0.8,0C103.9,253.4,104.2,253.1,104.2,252.7"/>
	<path class="st0" d="M128.9,252.7c0-5.1,0-10.3,0-15.5c0-0.4-0.3-0.7-0.7-0.7c-3.6,0-7.2,0-10.8,0c-0.4,0-0.7,0.3-0.7,0.7
		c0,0.2,0,0.4,0,0.6c0,0.4,0.3,0.7,0.7,0.7c2.9,0,5.7,0,8.6,0c0.4,0,0.7,0.3,0.7,0.7c0,1.3,0,2.5,0,3.8c0,0.4-0.3,0.7-0.7,0.7
		c-2.7,0-5.3,0-8,0c-0.4,0-0.7,0.3-0.7,0.7c0,0.2,0,0.4,0,0.6c0,0.4,0.3,0.7,0.7,0.7c2.7,0,5.3,0,8,0c0.4,0,0.7,0.3,0.7,0.7
		c0,1.5,0,2.9,0,4.4c0,0.4-0.3,0.7-0.7,0.7c-3,0-6,0-9,0c-0.4,0-0.7,0.3-0.7,0.7c0,0.2,0,0.4,0,0.6c0,0.4,0.3,0.7,0.7,0.7
		c3.7,0,7.5,0,11.2,0C128.6,253.4,128.9,253.1,128.9,252.7"/>
	<path class="st0" d="M148.9,253c2-5.2,4-10.3,6-15.5c0.1-0.2,0.1-0.4-0.1-0.6c-0.1-0.2-0.3-0.3-0.6-0.3c-0.3,0-0.6,0-1,0
		c-0.3,0-0.5,0.2-0.6,0.4c-1.4,3.9-2.8,7.8-4.2,11.8c-0.1,0.2-0.2,0.5-0.3,0.7c-0.1,0.3-0.3,0.5-0.6,0.5c-0.3,0-0.5-0.2-0.6-0.4
		c-0.1-0.2-0.2-0.5-0.3-0.7c-1.5-3.9-2.9-7.8-4.4-11.8c-0.1-0.3-0.3-0.4-0.6-0.4c-0.3,0-0.5,0-0.8,0c-0.2,0-0.4,0.1-0.6,0.3
		c-0.1,0.2-0.2,0.4-0.1,0.6c2,5.1,4,10.3,6.1,15.4c0.1,0.3,0.3,0.4,0.6,0.4c0.5,0,0.9,0,1.4,0C148.6,253.4,148.8,253.2,148.9,253"/>
	<path class="st0" d="M178.9,252.7c0-5.1,0-10.3,0-15.5c0-0.4-0.3-0.7-0.7-0.7c-3.6,0-7.2,0-10.8,0c-0.4,0-0.7,0.3-0.7,0.7
		c0,0.2,0,0.4,0,0.6c0,0.4,0.3,0.7,0.7,0.7c2.9,0,5.7,0,8.6,0c0.4,0,0.7,0.3,0.7,0.7c0,1.3,0,2.5,0,3.8c0,0.4-0.3,0.7-0.7,0.7
		c-2.7,0-5.3,0-8,0c-0.4,0-0.7,0.3-0.7,0.7c0,0.2,0,0.4,0,0.6c0,0.4,0.3,0.7,0.7,0.7c2.7,0,5.3,0,8,0c0.4,0,0.7,0.3,0.7,0.7
		c0,1.5,0,2.9,0,4.4c0,0.4-0.3,0.7-0.7,0.7c-3,0-6,0-9,0c-0.4,0-0.7,0.3-0.7,0.7c0,0.2,0,0.4,0,0.6c0,0.4,0.3,0.7,0.7,0.7
		c3.7,0,7.5,0,11.2,0C178.6,253.4,178.9,253.1,178.9,252.7"/>
	<path class="st0" d="M202.9,252.7c0-5.1,0-10.3,0-15.5c0-0.4-0.3-0.7-0.7-0.7c-0.3,0-0.6,0-0.9,0c-0.4,0-0.7,0.3-0.7,0.7
		c0,4.5,0,9,0,13.5c0,0.4-0.3,0.7-0.7,0.7c-2.3,0-4.6,0-6.9,0c-0.4,0-0.7,0.3-0.7,0.7c0,0.2,0,0.4,0,0.6c0,0.4,0.3,0.7,0.7,0.7
		c3.1,0,6.1,0,9.2,0C202.5,253.4,202.9,253.1,202.9,252.7"/>
	<path class="st0" d="M228.9,252.7c0-5.1,0-10.3,0-15.5c0-0.4-0.3-0.7-0.7-0.7c-3.6,0-7.2,0-10.8,0c-0.4,0-0.7,0.3-0.7,0.7
		c0,0.2,0,0.4,0,0.6c0,0.4,0.3,0.7,0.7,0.7c2.9,0,5.7,0,8.6,0c0.4,0,0.7,0.3,0.7,0.7c0,1.3,0,2.5,0,3.8c0,0.4-0.3,0.7-0.7,0.7
		c-2.6,0-5.3,0-8,0c-0.4,0-0.7,0.3-0.7,0.7c0,0.2,0,0.4,0,0.6c0,0.4,0.3,0.7,0.7,0.7c2.7,0,5.3,0,8,0c0.4,0,0.7,0.3,0.7,0.7
		c0,1.5,0,2.9,0,4.4c0,0.4-0.3,0.7-0.7,0.7c-3,0-6,0-9,0c-0.4,0-0.7,0.3-0.7,0.7c0,0.2,0,0.4,0,0.6c0,0.4,0.3,0.7,0.7,0.7
		c3.7,0,7.5,0,11.2,0C228.6,253.4,228.9,253.1,228.9,252.7"/>
	<path class="st0" d="M254.1,252.9c1.4-5.2,2.7-10.3,4.1-15.5c0.1-0.2,0-0.4-0.1-0.6c-0.1-0.2-0.3-0.3-0.5-0.3c-0.3,0-0.6,0-0.9,0
		c-0.3,0-0.6,0.2-0.7,0.5c-0.8,3.5-1.6,7-2.4,10.5c0,0.2-0.1,0.3-0.1,0.5c-0.1,0.3-0.3,0.5-0.6,0.5c-0.3,0-0.6-0.2-0.7-0.5
		c0-0.1,0-0.1-0.1-0.2c-1-3.6-2-7.2-3.1-10.8c-0.1-0.3-0.3-0.5-0.6-0.5c-0.6,0-1.1,0-1.7,0c-0.3,0-0.6,0.2-0.6,0.5
		c-0.8,2.7-1.5,5.3-2.3,8c-0.3,1-0.5,1.9-0.7,2.8c-0.1,0.3-0.3,0.5-0.6,0.5c-0.3,0-0.6-0.2-0.7-0.5c0-0.2-0.1-0.3-0.1-0.5
		c-0.8-3.4-1.7-6.9-2.5-10.3c-0.1-0.3-0.3-0.5-0.6-0.5c-0.3,0-0.6,0-0.8,0c-0.2,0-0.4,0.1-0.5,0.3c-0.1,0.2-0.2,0.4-0.1,0.6
		c1.4,5.1,2.8,10.3,4.2,15.4c0.1,0.3,0.3,0.5,0.6,0.5c0.4,0,0.7,0,1.1,0c0.3,0,0.6-0.2,0.6-0.5c1.1-3.9,2.2-7.9,3.3-11.8
		c0.1-0.3,0.3-0.5,0.6-0.5c0.3,0,0.6,0.2,0.6,0.5c1.1,3.9,2.2,7.9,3.3,11.8c0.1,0.3,0.3,0.5,0.6,0.5c0.4,0,0.8,0,1.2,0
		C253.7,253.4,254,253.2,254.1,252.9"/>
	<path class="st0" d="M273.7,252.7c0-4.5,0-9,0-13.5c0-0.4,0.3-0.7,0.7-0.7c1.4,0,2.8,0,4.2,0c0.4,0,0.7-0.3,0.7-0.7
		c0-0.2,0-0.4,0-0.6c0-0.4-0.3-0.7-0.7-0.7c-4,0-8,0-12,0c-0.4,0-0.7,0.3-0.7,0.7c0,0.2,0,0.4,0,0.6c0,0.4,0.3,0.7,0.7,0.7
		c1.4,0,2.8,0,4.2,0c0.4,0,0.7,0.3,0.7,0.7c0,4.5,0,9,0,13.5c0,0.4,0.3,0.7,0.7,0.7c0.3,0,0.6,0,0.9,0
		C273.4,253.4,273.7,253.1,273.7,252.7"/>
	<path class="st0" d="M103.9,227.5c0-5,0-9.9,0-14.9c0-0.5-0.4-0.9-0.9-0.9c-3.4,0-6.8,0-10.3,0c-0.5,0-0.9,0.4-0.9,0.9
		c0,0,0,0.1,0,0.1c0,0.5,0.4,0.9,0.9,0.9c2.7,0,5.4,0,8,0c0.5,0,0.9,0.4,0.9,0.9c0,1.1,0,2.2,0,3.3c0,0.5-0.4,0.9-0.9,0.9
		c-2.5,0-4.9,0-7.4,0c-0.5,0-0.9,0.4-0.9,0.9c0,0,0,0.1,0,0.1c0,0.5,0.4,0.9,0.9,0.9c2.5,0,4.9,0,7.4,0c0.5,0,0.9,0.4,0.9,0.9
		c0,1.3,0,2.6,0,3.8c0,0.5-0.4,0.9-0.9,0.9c-2.8,0-5.6,0-8.4,0c-0.5,0-0.9,0.4-0.9,0.9c0,0,0,0.1,0,0.1c0,0.5,0.4,0.9,0.9,0.9
		c3.6,0,7.1,0,10.7,0C103.5,228.4,103.9,228,103.9,227.5"/>
	<path class="st0" d="M128.9,227.5c0-5,0-9.9,0-14.9c0-0.5-0.4-0.9-0.9-0.9c-3.4,0-6.8,0-10.3,0c-0.5,0-0.9,0.4-0.9,0.9
		c0,0,0,0.1,0,0.1c0,0.5,0.4,0.9,0.9,0.9c2.7,0,5.4,0,8,0c0.5,0,0.9,0.4,0.9,0.9c0,1.1,0,2.2,0,3.3c0,0.5-0.4,0.9-0.9,0.9
		c-2.5,0-4.9,0-7.4,0c-0.5,0-0.9,0.4-0.9,0.9c0,0,0,0.1,0,0.1c0,0.5,0.4,0.9,0.9,0.9c2.5,0,4.9,0,7.4,0c0.5,0,0.9,0.4,0.9,0.9
		c0,1.3,0,2.6,0,3.8c0,0.5-0.4,0.9-0.9,0.9c-2.8,0-5.6,0-8.4,0c-0.5,0-0.9,0.4-0.9,0.9c0,0,0,0.1,0,0.1c0,0.5,0.4,0.9,0.9,0.9
		c3.6,0,7.1,0,10.7,0C128.5,228.4,128.9,228,128.9,227.5"/>
	<path class="st0" d="M179.2,227.5c0-5,0-9.9,0-14.9c0-0.5-0.4-0.9-0.9-0.9c-0.1,0-0.2,0-0.4,0c-0.5,0-0.9,0.4-0.9,0.9
		c0,1.7,0,3.3,0,5c0,0.5-0.4,0.9-0.9,0.9c-2.3,0-4.6,0-6.9,0c-0.5,0-0.9-0.4-0.9-0.9c0-1.7,0-3.3,0-5c0-0.5-0.4-0.9-0.9-0.9
		c-0.1,0-0.2,0-0.4,0c-0.5,0-0.9,0.4-0.9,0.9c0,5,0,9.9,0,14.9c0,0.5,0.4,0.9,0.9,0.9c0.1,0,0.2,0,0.4,0c0.5,0,0.9-0.4,0.9-0.9
		c0-2,0-4,0-6c0-0.5,0.4-0.9,0.9-0.9c2.3,0,4.6,0,6.9,0c0.5,0,0.9,0.4,0.9,0.9c0,2,0,4,0,6c0,0.5,0.4,0.9,0.9,0.9c0.1,0,0.2,0,0.4,0
		C178.8,228.4,179.2,228,179.2,227.5"/>
	<path class="st0" d="M198.7,227.5c0-4.3,0-8.6,0-12.9c0-0.5,0.4-0.9,0.9-0.9c1.2,0,2.4,0,3.7,0c0.5,0,0.9-0.4,0.9-0.9
		c0,0,0-0.1,0-0.1c0-0.5-0.4-0.9-0.9-0.9c-3.8,0-7.6,0-11.4,0c-0.5,0-0.9,0.4-0.9,0.9c0,0,0,0.1,0,0.1c0,0.5,0.4,0.9,0.9,0.9
		c1.2,0,2.5,0,3.7,0c0.5,0,0.9,0.4,0.9,0.9c0,4.3,0,8.6,0,12.9c0,0.5,0.4,0.9,0.9,0.9c0.1,0,0.2,0,0.4,0
		C198.3,228.4,198.7,228,198.7,227.5"/>
	<path class="st0" d="M248.7,227.7c0-5.2,0-10.3,0-15.5c0-0.4-0.3-0.7-0.7-0.7c-0.3,0-0.6,0-0.9,0c-0.4,0-0.7,0.3-0.7,0.7
		c0,5.2,0,10.3,0,15.5c0,0.4,0.3,0.7,0.7,0.7c0.3,0,0.6,0,0.9,0C248.4,228.4,248.7,228.1,248.7,227.7"/>
	<path class="st0" d="M278.6,222.9c-0.3,0-0.5,0-0.8-0.1c-0.3,0-0.6,0.2-0.7,0.5c-0.1,0.6-0.3,1.1-0.6,1.5c-0.4,0.5-0.9,1-1.7,1.3
		c-0.8,0.3-1.6,0.5-2.6,0.5c-0.8,0-1.6-0.1-2.2-0.4c-0.6-0.3-1.1-0.6-1.5-1c-0.3-0.4-0.5-0.9-0.5-1.4c0-0.5,0.2-1,0.5-1.4
		c0.3-0.4,0.8-0.7,1.5-1c0.5-0.2,1.4-0.4,3-0.8c1.5-0.4,2.6-0.7,3.2-1c0.8-0.4,1.4-0.9,1.8-1.6c0.4-0.6,0.6-1.3,0.6-2.1
		c0-0.8-0.2-1.6-0.7-2.4c-0.5-0.7-1.2-1.3-2.1-1.7c-0.9-0.4-2-0.6-3.1-0.6c-1.2,0-2.3,0.2-3.3,0.6c-0.9,0.4-1.7,1-2.2,1.8
		c-0.4,0.6-0.6,1.2-0.7,1.9c0,0.2,0,0.4,0.1,0.5c0.1,0.2,0.3,0.2,0.5,0.3c0.3,0,0.6,0,0.8,0.1c0.3,0,0.6-0.2,0.7-0.5
		c0.2-0.8,0.5-1.4,1.1-1.8c0.7-0.5,1.6-0.8,2.9-0.8c1.3,0,2.3,0.2,2.9,0.7c0.6,0.5,0.9,1.1,0.9,1.8c0,0.6-0.2,1.1-0.7,1.5
		c-0.4,0.4-1.5,0.8-3.3,1.2c-1.8,0.4-3,0.8-3.7,1.1c-1,0.5-1.7,1-2.2,1.7c-0.5,0.7-0.7,1.5-0.7,2.4c0,0.9,0.3,1.7,0.8,2.5
		c0.5,0.8,1.2,1.4,2.2,1.8c1,0.4,2,0.7,3.2,0.7c1.5,0,2.8-0.2,3.8-0.7c1-0.4,1.8-1.1,2.4-2c0.5-0.7,0.7-1.5,0.9-2.3
		c0-0.2,0-0.4-0.1-0.5C279,223,278.8,223,278.6,222.9"/>
	<path class="st0" d="M98.7,202.5c0-4.3,0-8.6,0-12.9c0-0.5,0.4-0.9,0.9-0.9c1.2,0,2.4,0,3.7,0c0.5,0,0.9-0.4,0.9-0.9
		c0,0,0-0.1,0-0.1c0-0.5-0.4-0.9-0.9-0.9c-3.8,0-7.6,0-11.4,0c-0.5,0-0.9,0.4-0.9,0.9c0,0,0,0.1,0,0.1c0,0.5,0.4,0.9,0.9,0.9
		c1.2,0,2.5,0,3.7,0c0.5,0,0.9,0.4,0.9,0.9c0,4.3,0,8.6,0,12.9c0,0.5,0.4,0.9,0.9,0.9c0.1,0,0.2,0,0.4,0
		C98.3,203.4,98.7,203,98.7,202.5"/>
	<path class="st0" d="M129.2,202.5c0-5,0-9.9,0-14.9c0-0.5-0.4-0.9-0.9-0.9c-0.1,0-0.2,0-0.4,0c-0.5,0-0.9,0.4-0.9,0.9
		c0,1.7,0,3.3,0,5c0,0.5-0.4,0.9-0.9,0.9c-2.3,0-4.6,0-6.9,0c-0.5,0-0.9-0.4-0.9-0.9c0-1.7,0-3.4,0-5c0-0.5-0.4-0.9-0.9-0.9
		c-0.1,0-0.2,0-0.4,0c-0.5,0-0.9,0.4-0.9,0.9c0,5,0,9.9,0,14.9c0,0.5,0.4,0.9,0.9,0.9c0.1,0,0.2,0,0.4,0c0.5,0,0.9-0.4,0.9-0.9
		c0-2,0-4,0-6c0-0.5,0.4-0.9,0.9-0.9c2.3,0,4.6,0,6.9,0c0.5,0,0.9,0.4,0.9,0.9c0,2,0,4,0,6c0,0.5,0.4,0.9,0.9,0.9c0.1,0,0.2,0,0.4,0
		C128.8,203.4,129.2,203,129.2,202.5"/>
	<path class="st0" d="M147,195.9C147,195.8,147,195.8,147,195.9c0-0.6-0.4-1-0.9-1c-1.7,0-3.5,0-5.2,0c-0.3,0-0.5,0.1-0.7,0.3
		c-0.2,0.2-0.3,0.4-0.3,0.7c0,1.6,0,3.2,0,4.8c0,0.3,0.1,0.6,0.4,0.7c1,0.7,2,1.3,3,1.7c1.2,0.4,2.4,0.7,3.6,0.7
		c1.6,0,3.2-0.4,4.5-1.1c1.3-0.7,2.4-1.7,3.1-3.1c0.7-1.3,1-2.8,1-4.5c0-1.6-0.3-3.2-1-4.6c-0.7-1.4-1.7-2.5-2.9-3.2
		c-1.3-0.7-2.8-1-4.4-1c-1.2,0-2.3,0.2-3.3,0.6c-1,0.4-1.8,0.9-2.3,1.6c-0.4,0.5-0.7,1.1-1,1.8c-0.1,0.3-0.1,0.5,0,0.8
		c0.1,0.2,0.3,0.4,0.6,0.5c0.1,0,0.2,0,0.2,0.1c0.5,0.1,0.9-0.1,1.1-0.6c0.2-0.5,0.4-0.9,0.7-1.2c0.4-0.5,0.9-0.9,1.6-1.2
		c0.7-0.3,1.5-0.4,2.3-0.4c1,0,1.9,0.2,2.6,0.5c0.7,0.3,1.3,0.7,1.8,1.2c0.5,0.5,0.8,1.1,1.1,1.7c0.4,1,0.6,2.2,0.6,3.4
		c0,1.5-0.3,2.7-0.8,3.8c-0.5,1-1.3,1.8-2.3,2.2c-1,0.5-2,0.7-3.1,0.7c-1,0-1.9-0.2-2.8-0.6c-0.7-0.3-1.2-0.6-1.7-0.9
		c-0.3-0.2-0.4-0.5-0.4-0.8c0-0.6,0-1.2,0-1.7c0-0.5,0.4-0.9,0.9-0.9c1,0,2,0,3.1,0C146.5,196.8,147,196.4,147,195.9"/>
	<path class="st0" d="M173.7,202.7c0-5.2,0-10.3,0-15.5c0-0.4-0.3-0.7-0.7-0.7c-0.3,0-0.6,0-0.9,0c-0.4,0-0.7,0.3-0.7,0.7
		c0,5.1,0,10.3,0,15.5c0,0.4,0.3,0.7,0.7,0.7c0.3,0,0.6,0,0.9,0C173.4,203.4,173.7,203.1,173.7,202.7"/>
	<path class="st0" d="M203.9,202.5c0-5,0-9.9,0-14.9c0-0.5-0.4-0.9-0.9-0.9c-3.4,0-6.8,0-10.3,0c-0.5,0-0.9,0.4-0.9,0.9
		c0,0,0,0.1,0,0.1c0,0.5,0.4,0.9,0.9,0.9c2.7,0,5.4,0,8,0c0.5,0,0.9,0.4,0.9,0.9c0,1.1,0,2.2,0,3.3c0,0.5-0.4,0.9-0.9,0.9
		c-2.5,0-4.9,0-7.4,0c-0.5,0-0.9,0.4-0.9,0.9c0,0,0,0.1,0,0.1c0,0.5,0.4,0.9,0.9,0.9c2.5,0,4.9,0,7.4,0c0.5,0,0.9,0.4,0.9,0.9
		c0,1.3,0,2.6,0,3.8c0,0.5-0.4,0.9-0.9,0.9c-2.8,0-5.6,0-8.4,0c-0.5,0-0.9,0.4-0.9,0.9c0,0,0,0.1,0,0.1c0,0.5,0.4,0.9,0.9,0.9
		c3.6,0,7.1,0,10.7,0C203.4,203.4,203.9,203,203.9,202.5"/>
	<path class="st0" d="M223.9,203c2-5.2,4-10.3,6-15.5c0.1-0.2,0.1-0.4-0.1-0.6c-0.1-0.2-0.3-0.3-0.6-0.3c-0.3,0-0.6,0-1,0
		c-0.3,0-0.5,0.2-0.6,0.4c-1.4,3.9-2.8,7.8-4.2,11.7c-0.1,0.2-0.2,0.5-0.3,0.7c-0.1,0.3-0.3,0.5-0.6,0.5c-0.3,0-0.5-0.2-0.6-0.4
		c-0.1-0.2-0.2-0.5-0.3-0.7c-1.5-3.9-2.9-7.8-4.4-11.8c-0.1-0.3-0.3-0.4-0.6-0.4c-0.3,0-0.5,0-0.8,0c-0.2,0-0.4,0.1-0.6,0.3
		c-0.1,0.2-0.2,0.4-0.1,0.6c2,5.2,4,10.3,6,15.5c0.1,0.3,0.3,0.4,0.6,0.4c0.5,0,0.9,0,1.4,0C223.6,203.4,223.8,203.2,223.9,203"/>
	<path class="st0" d="M248.7,202.7c0-5.2,0-10.3,0-15.5c0-0.4-0.3-0.7-0.7-0.7c-0.3,0-0.6,0-0.9,0c-0.4,0-0.7,0.3-0.7,0.7
		c0,5.1,0,10.3,0,15.5c0,0.4,0.3,0.7,0.7,0.7c0.3,0,0.6,0,0.9,0C248.4,203.4,248.7,203.1,248.7,202.7"/>
	<path class="st0" d="M278.3,202.7c0-5.2,0-10.3,0-15.5c0-0.4-0.3-0.7-0.7-0.7c-3.3,0-6.7,0-10,0c-0.4,0-0.7,0.3-0.7,0.7
		c0,0.2,0,0.4,0,0.6c0,0.4,0.3,0.7,0.7,0.7c2.6,0,5.2,0,7.8,0c0.4,0,0.7,0.3,0.7,0.7c0,1.3,0,2.6,0,3.9c0,0.4-0.3,0.7-0.7,0.7
		c-2.2,0-4.4,0-6.5,0c-0.4,0-0.7,0.3-0.7,0.7c0,0.2,0,0.4,0,0.6c0,0.4,0.3,0.7,0.7,0.7c2.2,0,4.4,0,6.5,0c0.4,0,0.7,0.3,0.7,0.7
		c0,2.1,0,4.2,0,6.3c0,0.4,0.3,0.7,0.7,0.7c0.3,0,0.6,0,0.9,0C278,203.4,278.3,203.1,278.3,202.7"/>
	<path class="st0" d="M173.7,177.7c0-4.5,0-9,0-13.5c0-0.4,0.3-0.7,0.7-0.7c1.4,0,2.8,0,4.2,0c0.4,0,0.7-0.3,0.7-0.7
		c0-0.2,0-0.4,0-0.6c0-0.4-0.3-0.7-0.7-0.7c-4,0-8,0-12,0c-0.4,0-0.7,0.3-0.7,0.7c0,0.2,0,0.4,0,0.6c0,0.4,0.3,0.7,0.7,0.7
		c1.4,0,2.8,0,4.2,0c0.4,0,0.7,0.3,0.7,0.7c0,4.5,0,9,0,13.5c0,0.4,0.3,0.7,0.7,0.7c0.3,0,0.6,0,0.9,0
		C173.4,178.4,173.7,178.1,173.7,177.7"/>
	<path class="st0" d="M203.7,172.9c-0.3,0-0.5,0-0.8-0.1c-0.3,0-0.6,0.2-0.7,0.5c-0.1,0.6-0.3,1.1-0.6,1.5c-0.4,0.5-0.9,1-1.7,1.3
		c-0.8,0.3-1.6,0.5-2.6,0.5c-0.8,0-1.6-0.1-2.2-0.4c-0.6-0.3-1.1-0.6-1.5-1c-0.3-0.4-0.5-0.9-0.5-1.4c0-0.5,0.2-1,0.5-1.4
		c0.3-0.4,0.8-0.7,1.5-1c0.5-0.2,1.4-0.4,3-0.8c1.5-0.4,2.6-0.7,3.2-1c0.8-0.4,1.4-0.9,1.8-1.6c0.4-0.6,0.6-1.3,0.6-2.1
		c0-0.8-0.2-1.6-0.7-2.4c-0.5-0.7-1.2-1.3-2.1-1.7c-0.9-0.4-2-0.6-3.1-0.6c-1.2,0-2.3,0.2-3.3,0.6c-0.9,0.4-1.7,1-2.2,1.8
		c-0.4,0.6-0.6,1.2-0.8,1.9c0,0.2,0,0.4,0.1,0.5c0.1,0.2,0.3,0.2,0.5,0.3c0.3,0,0.6,0,0.8,0.1c0.3,0,0.6-0.2,0.7-0.5
		c0.2-0.8,0.5-1.4,1.1-1.8c0.7-0.5,1.6-0.8,2.9-0.8c1.3,0,2.3,0.2,2.9,0.7c0.6,0.5,0.9,1.1,0.9,1.8c0,0.6-0.2,1.1-0.7,1.5
		c-0.4,0.4-1.5,0.8-3.3,1.2c-1.8,0.4-3,0.8-3.7,1.1c-1,0.5-1.7,1-2.2,1.7c-0.5,0.7-0.7,1.5-0.7,2.4c0,0.9,0.3,1.7,0.8,2.5
		s1.2,1.4,2.2,1.8c1,0.4,2,0.7,3.2,0.7c1.5,0,2.8-0.2,3.8-0.7c1-0.4,1.8-1.1,2.4-2c0.5-0.7,0.7-1.5,0.9-2.3c0-0.2,0-0.4-0.1-0.5
		C204,173,203.8,173,203.7,172.9"/>
	<path class="st0" d="M103.3,152.7c0-5.2,0-10.3,0-15.5c0-0.4-0.3-0.7-0.7-0.7c-3.3,0-6.7,0-10,0c-0.4,0-0.7,0.3-0.7,0.7
		c0,0.2,0,0.4,0,0.6c0,0.4,0.3,0.7,0.7,0.7c2.6,0,5.2,0,7.8,0c0.4,0,0.7,0.3,0.7,0.7c0,1.3,0,2.6,0,3.9c0,0.4-0.3,0.7-0.7,0.7
		c-2.2,0-4.4,0-6.5,0c-0.4,0-0.7,0.3-0.7,0.7c0,0.2,0,0.4,0,0.6c0,0.4,0.3,0.7,0.7,0.7c2.2,0,4.4,0,6.5,0c0.4,0,0.7,0.3,0.7,0.7
		c0,2.1,0,4.2,0,6.3c0,0.4,0.3,0.7,0.7,0.7c0.3,0,0.6,0,0.9,0C103,153.4,103.3,153.1,103.3,152.7"/>
	<path class="st0" d="M127.9,152.7c0-5.2,0-10.3,0-15.5c0-0.4-0.3-0.7-0.7-0.7c-0.3,0-0.6,0-0.9,0c-0.4,0-0.7,0.3-0.7,0.7
		c0,4.5,0,9,0,13.5c0,0.4-0.3,0.7-0.7,0.7c-2.3,0-4.6,0-6.9,0c-0.4,0-0.7,0.3-0.7,0.7c0,0.2,0,0.4,0,0.6c0,0.4,0.3,0.7,0.7,0.7
		c3.1,0,6.1,0,9.2,0C127.6,153.4,127.9,153.1,127.9,152.7"/>
	<path class="st0" d="M179.2,152.7c0-5.2,0-10.3,0-15.5c0-0.4-0.3-0.7-0.7-0.7c-0.3,0-0.6,0-0.9,0c-0.4,0-0.7,0.3-0.7,0.7
		c0,1.9,0,3.7,0,5.6c0,0.4-0.3,0.7-0.7,0.7c-2.5,0-4.9,0-7.4,0c-0.4,0-0.7-0.3-0.7-0.7c0-1.9,0-3.7,0-5.6c0-0.4-0.3-0.7-0.7-0.7
		c-0.3,0-0.6,0-0.9,0c-0.4,0-0.7,0.3-0.7,0.7c0,5.2,0,10.3,0,15.5c0,0.4,0.3,0.7,0.7,0.7c0.3,0,0.6,0,0.9,0c0.4,0,0.7-0.3,0.7-0.7
		c0-2.2,0-4.4,0-6.6c0-0.4,0.3-0.7,0.7-0.7c2.5,0,4.9,0,7.4,0c0.4,0,0.7,0.3,0.7,0.7c0,2.2,0,4.4,0,6.6c0,0.4,0.3,0.7,0.7,0.7
		c0.3,0,0.6,0,0.9,0C178.9,153.4,179.2,153.1,179.2,152.7"/>
	<path class="st0" d="M203.9,152.7c0-5.2,0-10.3,0-15.5c0-0.4-0.3-0.7-0.7-0.7c-3.6,0-7.2,0-10.8,0c-0.4,0-0.7,0.3-0.7,0.7
		c0,0.2,0,0.4,0,0.6c0,0.4,0.3,0.7,0.7,0.7c2.9,0,5.7,0,8.6,0c0.4,0,0.7,0.3,0.7,0.7c0,1.3,0,2.5,0,3.8c0,0.4-0.3,0.7-0.7,0.7
		c-2.7,0-5.3,0-8,0c-0.4,0-0.7,0.3-0.7,0.7c0,0.2,0,0.4,0,0.6c0,0.4,0.3,0.7,0.7,0.7c2.6,0,5.3,0,8,0c0.4,0,0.7,0.3,0.7,0.7
		c0,1.5,0,2.9,0,4.4c0,0.4-0.3,0.7-0.7,0.7c-3,0-6,0-9,0c-0.4,0-0.7,0.3-0.7,0.7c0,0.2,0,0.4,0,0.6c0,0.4,0.3,0.7,0.7,0.7
		c3.7,0,7.5,0,11.2,0C203.6,153.4,203.9,153.1,203.9,152.7"/>
	<path class="st0" d="M223.9,153c2-5.2,4-10.3,6-15.5c0.1-0.2,0.1-0.4-0.1-0.6c-0.1-0.2-0.3-0.3-0.6-0.3c-0.3,0-0.6,0-1,0
		c-0.3,0-0.5,0.2-0.6,0.4c-1.4,3.9-2.8,7.8-4.2,11.8c-0.1,0.2-0.2,0.5-0.3,0.7c-0.1,0.3-0.3,0.5-0.6,0.5c-0.3,0-0.5-0.2-0.6-0.4
		c-0.1-0.2-0.2-0.5-0.3-0.7c-1.5-3.9-2.9-7.8-4.4-11.8c-0.1-0.3-0.3-0.4-0.6-0.4c-0.3,0-0.5,0-0.8,0c-0.2,0-0.4,0.1-0.6,0.3
		c-0.1,0.2-0.2,0.4-0.1,0.6c2,5.2,4,10.3,6,15.5c0.1,0.3,0.3,0.4,0.6,0.4c0.5,0,0.9,0,1.4,0C223.6,153.4,223.8,153.2,223.9,153"/>
	<path class="st0" d="M248.7,152.7c0-5.2,0-10.3,0-15.5c0-0.4-0.3-0.7-0.7-0.7c-0.3,0-0.6,0-0.9,0c-0.4,0-0.7,0.3-0.7,0.7
		c0,5.2,0,10.3,0,15.5c0,0.4,0.3,0.7,0.7,0.7c0.3,0,0.6,0,0.9,0C248.4,153.4,248.7,153.1,248.7,152.7"/>
	<path class="st0" d="M278.3,152.7c0-5.2,0-10.3,0-15.5c0-0.4-0.3-0.7-0.7-0.7c-3.3,0-6.7,0-10,0c-0.4,0-0.7,0.3-0.7,0.7
		c0,0.2,0,0.4,0,0.6c0,0.4,0.3,0.7,0.7,0.7c2.6,0,5.2,0,7.8,0c0.4,0,0.7,0.3,0.7,0.7c0,1.3,0,2.6,0,3.9c0,0.4-0.3,0.7-0.7,0.7
		c-2.2,0-4.4,0-6.5,0c-0.4,0-0.7,0.3-0.7,0.7c0,0.2,0,0.4,0,0.6c0,0.4,0.3,0.7,0.7,0.7c2.2,0,4.4,0,6.5,0c0.4,0,0.7,0.3,0.7,0.7
		c0,2.1,0,4.2,0,6.3c0,0.4,0.3,0.7,0.7,0.7c0.3,0,0.6,0,0.9,0C278,153.4,278.3,153.1,278.3,152.7"/>
	<path class="st0" d="M98.8,127.7c0-2.1,0-4.2,0-6.2c0-0.1,0-0.3,0.1-0.4c1.9-2.8,3.8-5.6,5.7-8.5c0.1-0.2,0.2-0.5,0-0.7
		c-0.1-0.2-0.3-0.4-0.6-0.4c-0.4,0-0.7,0-1.1,0c-0.2,0-0.4,0.1-0.6,0.3c-1,1.6-2.1,3.2-3.1,4.8c-0.4,0.6-0.8,1.2-1.1,1.8
		c-0.1,0.2-0.3,0.3-0.6,0.3c-0.2,0-0.5-0.1-0.6-0.3c-0.4-0.6-0.8-1.3-1.3-2c-1-1.5-2-3.1-3.1-4.6c-0.1-0.2-0.3-0.3-0.6-0.3
		c-0.3,0-0.6,0-1,0c-0.3,0-0.5,0.1-0.6,0.4c-0.1,0.2-0.1,0.5,0,0.7c2,2.8,3.9,5.6,5.9,8.5c0.1,0.1,0.1,0.2,0.1,0.4
		c0,2.1,0,4.2,0,6.2c0,0.4,0.3,0.7,0.7,0.7c0.3,0,0.6,0,0.9,0C98.5,128.4,98.8,128.1,98.8,127.7"/>
	<path class="st0" d="M153.9,127.7c0-5.2,0-10.3,0-15.5c0-0.4-0.3-0.7-0.7-0.7c-3.6,0-7.2,0-10.8,0c-0.4,0-0.7,0.3-0.7,0.7
		c0,0.2,0,0.4,0,0.6c0,0.4,0.3,0.7,0.7,0.7c2.9,0,5.7,0,8.6,0c0.4,0,0.7,0.3,0.7,0.7c0,1.3,0,2.5,0,3.8c0,0.4-0.3,0.7-0.7,0.7
		c-2.7,0-5.3,0-8,0c-0.4,0-0.7,0.3-0.7,0.7c0,0.2,0,0.4,0,0.6c0,0.4,0.3,0.7,0.7,0.7c2.7,0,5.3,0,8,0c0.4,0,0.7,0.3,0.7,0.7
		c0,1.5,0,2.9,0,4.4c0,0.4-0.3,0.7-0.7,0.7c-3,0-6,0-9,0c-0.4,0-0.7,0.3-0.7,0.7c0,0.2,0,0.4,0,0.6c0,0.4,0.3,0.7,0.7,0.7
		c3.7,0,7.5,0,11.2,0C153.6,128.4,153.9,128.1,153.9,127.7"/>
	<path class="st0" d="M173.7,127.7c0-4.5,0-9,0-13.5c0-0.4,0.3-0.7,0.7-0.7c1.4,0,2.8,0,4.2,0c0.4,0,0.7-0.3,0.7-0.7
		c0-0.2,0-0.4,0-0.6c0-0.4-0.3-0.7-0.7-0.7c-4,0-8,0-12,0c-0.4,0-0.7,0.3-0.7,0.7c0,0.2,0,0.4,0,0.6c0,0.4,0.3,0.7,0.7,0.7
		c1.4,0,2.8,0,4.2,0c0.4,0,0.7,0.3,0.7,0.7c0,4.5,0,9,0,13.5c0,0.4,0.3,0.7,0.7,0.7c0.3,0,0.6,0,0.9,0
		C173.4,128.4,173.7,128.1,173.7,127.7"/>
	<path class="st0" d="M242.6,111.5c-0.3,0-0.6,0-0.9,0c-0.4,0-0.7,0.3-0.7,0.7c0,3,0,6,0,9c0,1.7,0.2,3,0.6,4c0.4,1,1.1,1.8,2.1,2.4
		c1,0.6,2.3,0.9,3.9,0.9c1.6,0,2.9-0.3,3.9-0.8c1-0.5,1.7-1.3,2.1-2.4c0.4-1,0.6-2.4,0.6-4.2c0-3,0-6,0-9c0-0.4-0.3-0.7-0.7-0.7
		c-0.3,0-0.6,0-0.9,0c-0.4,0-0.7,0.3-0.7,0.7c0,3,0,6,0,9c0,1.5-0.1,2.5-0.4,3.2c-0.3,0.7-0.7,1.2-1.4,1.6c-0.7,0.4-1.5,0.6-2.4,0.6
		c-1.6,0-2.8-0.4-3.5-1.1c-0.7-0.7-1-2.2-1-4.3c0-3,0-6,0-9C243.2,111.8,242.9,111.5,242.6,111.5"/>
	<path class="st0" d="M271.6,125.3c-0.5,0.2-1,0.4-1.4,0.7c-0.6,0.4-1.1,0.8-1.7,1.2c-0.9,0.7-1.8,1.3-2.7,1.6
		c-0.2,0.1-0.3,0.1-0.5,0c-0.2-0.1-0.3-0.2-0.3-0.3c0-0.1-0.1-0.2-0.1-0.3c-0.1-0.3,0-0.7,0.3-0.8c0.6-0.3,1.3-0.7,2-1.2
		c0.9-0.6,1.6-1.1,1.6-1.1c0.6-0.5,1.4-1,2.3-1.3c0.2-0.1,0.3,0,0.5,0c0.2,0.1,0.3,0.2,0.3,0.4c0,0.1,0.1,0.2,0.1,0.3
		C272.1,124.8,272,125.1,271.6,125.3"/>
	<path class="st0" d="M123.8,102.7c0-2.1,0-4.2,0-6.2c0-0.1,0-0.3,0.1-0.4c1.9-2.8,3.8-5.6,5.7-8.5c0.1-0.2,0.2-0.5,0-0.7
		c-0.1-0.2-0.3-0.4-0.6-0.4c-0.4,0-0.7,0-1.1,0c-0.2,0-0.4,0.1-0.6,0.3c-1,1.6-2.1,3.2-3.1,4.8c-0.4,0.6-0.8,1.2-1.1,1.8
		c-0.1,0.2-0.3,0.3-0.6,0.3c-0.2,0-0.5-0.1-0.6-0.3c-0.4-0.6-0.8-1.3-1.3-2c-1-1.5-2-3.1-3.1-4.6c-0.1-0.2-0.3-0.3-0.6-0.3
		c-0.3,0-0.6,0-1,0c-0.3,0-0.5,0.1-0.6,0.4c-0.1,0.2-0.1,0.5,0,0.7c2,2.8,3.9,5.6,5.9,8.5c0.1,0.1,0.1,0.2,0.1,0.4
		c0,2.1,0,4.2,0,6.2c0,0.4,0.3,0.7,0.7,0.7c0.3,0,0.6,0,0.9,0C123.5,103.4,123.8,103.1,123.8,102.7"/>
	<path class="st0" d="M148.7,102.7c0-4.5,0-9,0-13.5c0-0.4,0.3-0.7,0.7-0.7c1.4,0,2.8,0,4.2,0c0.4,0,0.7-0.3,0.7-0.7
		c0-0.2,0-0.4,0-0.6c0-0.4-0.3-0.7-0.7-0.7c-4,0-8,0-12,0c-0.4,0-0.7,0.3-0.7,0.7c0,0.2,0,0.4,0,0.6c0,0.4,0.3,0.7,0.7,0.7
		c1.4,0,2.8,0,4.2,0c0.4,0,0.7,0.3,0.7,0.7c0,4.5,0,9,0,13.5c0,0.4,0.3,0.7,0.7,0.7c0.3,0,0.6,0,0.9,0
		C148.4,103.4,148.7,103.1,148.7,102.7"/>
	<path class="st0" d="M179.2,102.7c0-5.2,0-10.3,0-15.5c0-0.4-0.3-0.7-0.7-0.7c-0.4,0-0.8,0-1.3,0c-0.2,0-0.4,0.1-0.6,0.3
		c-2.5,3.7-4.9,7.4-7.4,11.1c-0.2,0.2-0.5,0.4-0.7,0.3c-0.3-0.1-0.5-0.3-0.5-0.6c0-3.4,0-6.9,0-10.3c0-0.4-0.3-0.7-0.7-0.7
		c-0.3,0-0.5,0-0.8,0c-0.4,0-0.7,0.3-0.7,0.7c0,5.1,0,10.3,0,15.5c0,0.4,0.3,0.7,0.7,0.7c0.4,0,0.8,0,1.3,0c0.2,0,0.4-0.1,0.6-0.3
		c2.5-3.7,4.9-7.4,7.4-11.1c0.2-0.2,0.5-0.4,0.7-0.3c0.3,0.1,0.5,0.3,0.5,0.6c0,3.4,0,6.9,0,10.3c0,0.4,0.3,0.7,0.7,0.7
		c0.3,0,0.5,0,0.8,0C178.9,103.4,179.2,103.1,179.2,102.7"/>
	<path class="st0" d="M203.9,102.7c0-5.2,0-10.3,0-15.5c0-0.4-0.3-0.7-0.7-0.7c-3.6,0-7.2,0-10.8,0c-0.4,0-0.7,0.3-0.7,0.7
		c0,0.2,0,0.4,0,0.6c0,0.4,0.3,0.7,0.7,0.7c2.9,0,5.7,0,8.6,0c0.4,0,0.7,0.3,0.7,0.7c0,1.3,0,2.5,0,3.8c0,0.4-0.3,0.7-0.7,0.7
		c-2.7,0-5.3,0-8,0c-0.4,0-0.7,0.3-0.7,0.7c0,0.2,0,0.4,0,0.6c0,0.4,0.3,0.7,0.7,0.7c2.6,0,5.3,0,8,0c0.4,0,0.7,0.3,0.7,0.7
		c0,1.5,0,2.9,0,4.4c0,0.4-0.3,0.7-0.7,0.7c-3,0-6,0-9,0c-0.4,0-0.7,0.3-0.7,0.7c0,0.2,0,0.4,0,0.6c0,0.4,0.3,0.7,0.7,0.7
		c3.7,0,7.5,0,11.2,0C203.6,103.4,203.9,103.1,203.9,102.7"/>
	<path class="st0" d="M229.1,102.9c1.4-5.2,2.7-10.3,4.1-15.5c0.1-0.2,0-0.4-0.1-0.6c-0.1-0.2-0.3-0.3-0.5-0.3c-0.3,0-0.6,0-0.9,0
		c-0.3,0-0.6,0.2-0.7,0.5c-0.8,3.5-1.6,7-2.4,10.5c0,0.2-0.1,0.3-0.1,0.5c-0.1,0.3-0.3,0.5-0.6,0.5c-0.3,0-0.6-0.2-0.7-0.5
		c0-0.1,0-0.1,0-0.2c-1-3.6-2-7.2-3.1-10.8c-0.1-0.3-0.3-0.5-0.6-0.5c-0.6,0-1.1,0-1.7,0c-0.3,0-0.6,0.2-0.6,0.5
		c-0.8,2.7-1.5,5.3-2.3,8c-0.3,1-0.5,1.9-0.7,2.8c-0.1,0.3-0.3,0.5-0.6,0.5c-0.3,0-0.6-0.2-0.7-0.5c0-0.2-0.1-0.3-0.1-0.5
		c-0.8-3.4-1.7-6.9-2.5-10.3c-0.1-0.3-0.3-0.5-0.6-0.5c-0.3,0-0.6,0-0.8,0c-0.2,0-0.4,0.1-0.5,0.3c-0.1,0.2-0.2,0.4-0.1,0.6
		c1.4,5.1,2.8,10.3,4.2,15.5c0.1,0.3,0.3,0.5,0.6,0.5c0.4,0,0.7,0,1.1,0c0.3,0,0.6-0.2,0.6-0.5c1.1-3.9,2.2-7.9,3.3-11.8
		c0.1-0.3,0.3-0.5,0.6-0.5c0.3,0,0.6,0.2,0.6,0.5c1.1,3.9,2.2,7.9,3.3,11.8c0.1,0.3,0.3,0.5,0.6,0.5c0.4,0,0.8,0,1.2,0
		C228.7,103.4,229,103.2,229.1,102.9"/>
	<path class="st0" d="M248.7,102.7c0-4.5,0-9,0-13.5c0-0.4,0.3-0.7,0.7-0.7c1.4,0,2.8,0,4.2,0c0.4,0,0.7-0.3,0.7-0.7
		c0-0.2,0-0.4,0-0.6c0-0.4-0.3-0.7-0.7-0.7c-4,0-8,0-12,0c-0.4,0-0.7,0.3-0.7,0.7c0,0.2,0,0.4,0,0.6c0,0.4,0.3,0.7,0.7,0.7
		c1.4,0,2.8,0,4.2,0c0.4,0,0.7,0.3,0.7,0.7c0,4.5,0,9,0,13.5c0,0.4,0.3,0.7,0.7,0.7c0.3,0,0.6,0,0.9,0
		C248.4,103.4,248.7,103.1,248.7,102.7"/>
	<polygon class="st0" points="273.6,96.5 271.9,96.5 271.8,96.6 271.1,98.3 274.3,98.3 	"/>
	<path class="st0" d="M222.1,161.6c-0.3,0-0.5,0.2-0.6,0.4c-2.1,5.1-4.2,10.3-6.3,15.4c-0.1,0.2-0.1,0.4,0.1,0.6
		c0.1,0.2,0.3,0.3,0.6,0.3c0.5,0,1,0,1.5,0c0.6-1.6,1.3-3.3,1.9-4.9c0.2-0.6,0.4-1.2,0.7-1.8c0.6-1.5,1.1-3,1.7-4.5
		c0.2-0.5,0.4-0.9,0.5-1.4c0.1-0.3,0.3-0.4,0.6-0.4c0.1,0,0.1,0,0.2,0c0.3,0,0.5,0.1,0.6,0.4c0.2,0.4,0.3,0.9,0.5,1.4
		c0.6,1.5,1.1,3,1.7,4.5c0.2,0.6,0.4,1.2,0.7,1.8c0.6,1.6,1.3,3.3,1.9,4.9c0.5,0,1,0,1.5,0c0.2,0,0.4-0.1,0.6-0.3
		c0.1-0.2,0.2-0.4,0.1-0.6c-2.1-5.1-4.2-10.3-6.3-15.4c-0.1-0.3-0.3-0.4-0.6-0.4c-0.2,0-0.4,0-0.7,0
		C222.5,161.6,222.3,161.6,222.1,161.6"/>
	<polygon class="st0" points="223.6,121.5 221.9,121.5 221.8,121.6 221.1,123.3 224.3,123.3 	"/>
	<g id="_178792848">
		<circle id="_236366152" class="st0" cx="0" cy="0" r="11.6"/>
		<g>
			<g>
				<polyline id="_179029536" class="st0" points="138.3,78.2 138.3,69.2 120.3,69.2 120.3,78.2 				"/>
				<polyline id="_242593344" class="st0" points="102.3,78.2 102.3,69.2 84.3,69.2 84.3,78.2 				"/>
			</g>
			<line id="_254777480" class="st0" x1="138.3" y1="78.2" x2="120.3" y2="78.2"/>
			<line id="_185666432" class="st0" x1="102.3" y1="78.2" x2="84.3" y2="78.2"/>
		</g>
	</g>
	<rect x="66.3" y="63.8" class="st0" width="237.6" height="237.6"/>
	<g id="_173608064">
		<circle id="_186249800" class="st0" cx="0" cy="0" r="11.6"/>
		<g>
			<g>
				<polyline id="_184008960" class="st0" points="285.9,78.2 285.9,69.2 267.9,69.2 267.9,78.2 				"/>
				<polyline id="_174939752" class="st0" points="249.9,78.2 249.9,69.2 231.9,69.2 231.9,78.2 				"/>
			</g>
			<line id="_181879312" class="st0" x1="285.9" y1="78.2" x2="267.9" y2="78.2"/>
			<line id="_178623760" class="st0" x1="249.9" y1="78.2" x2="231.9" y2="78.2"/>
		</g>
	</g>
	<g id="_81032008">
		<circle id="_183769056" class="st0" cx="0" cy="0" r="11.6"/>
		<g>
			<g>
				<polyline id="_245551320" class="st0" points="138.3,296 138.3,287 120.3,287 120.3,296 				"/>
				<polyline id="_81208936" class="st0" points="102.3,296 102.3,287 84.3,287 84.3,296 				"/>
			</g>
			<line id="_80013632" class="st0" x1="138.3" y1="296" x2="120.3" y2="296"/>
			<line id="_185927664" class="st0" x1="102.3" y1="296" x2="84.3" y2="296"/>
		</g>
	</g>
	<g id="_78886544">
		<circle id="_82563128" class="st0" cx="0" cy="0" r="11.6"/>
		<g>
			<g>
				<polyline id="_239001976" class="st0" points="285.9,296 285.9,287 267.9,287 267.9,296 				"/>
				<polyline id="_184131688" class="st0" points="249.9,296 249.9,287 231.9,287 231.9,296 				"/>
			</g>
			<line id="_250499504" class="st0" x1="285.9" y1="296" x2="267.9" y2="296"/>
			<line id="_248478144" class="st0" x1="249.9" y1="296" x2="231.9" y2="296"/>
		</g>
	</g>
	<path class="st0" d="M146.2,162.2c0,0.2,0,0.4,0,0.7c0,0.3-0.1,0.5-0.4,0.6c-0.4,0.1-0.8,0.3-1.2,0.6c-0.9,0.6-1.6,1.4-2,2.4
		c-0.5,1-0.7,2.2-0.7,3.6c0,2.2,0.5,3.8,1.6,5c0.7,0.7,1.4,1.2,2.3,1.5c0.3,0.1,0.4,0.3,0.4,0.6c0,0.2,0,0.5,0,0.7
		c0,0.4-0.4,0.7-0.8,0.6c-0.7-0.2-1.3-0.4-2-0.8c-1.3-0.7-2.2-1.7-2.9-3.1c-0.7-1.3-1-2.9-1-4.6c0-1.7,0.3-3.2,1-4.5
		c0.7-1.3,1.6-2.4,2.8-3.1c0.6-0.4,1.3-0.7,2.1-0.8C145.9,161.4,146.3,161.8,146.2,162.2 M149.7,161.5c1.4,0.3,2.7,1.1,3.7,2.1
		c1.5,1.6,2.2,3.8,2.2,6.5c0,1.5-0.3,2.9-1,4.2c-0.6,1.3-1.6,2.4-2.8,3.1c-0.7,0.4-1.4,0.7-2.1,0.9c-0.4,0.1-0.8-0.2-0.8-0.6
		c0-0.2,0-0.5,0-0.7c0-0.4,0.1-0.5,0.5-0.6c0.9-0.3,1.6-0.8,2.3-1.5c1.1-1.2,1.6-2.8,1.6-4.8c0-2.5-0.6-4.3-1.7-5.4
		c-0.7-0.6-1.4-1.1-2.3-1.4c-0.3-0.1-0.4-0.3-0.4-0.6c0-0.2,0-0.5,0-0.7C148.9,161.7,149.3,161.4,149.7,161.5"/>
</g>
</svg>
